<?xml version="1.0" encoding="UTF-8" standalone="no"?>
<svg
   version="1.1"
   viewBox="0 0 960 298.99475"
   fill="none"
   stroke="none"
   stroke-linecap="square"
   stroke-miterlimit="10"
   id="svg36"
   sodipodi:docname="Evolución de HTML.svg"
   width="960"
   height="298.99475"
   inkscape:version="1.3.2 (091e20ef0f, 2023-11-25)"
   xmlns:inkscape="http://www.inkscape.org/namespaces/inkscape"
   xmlns:sodipodi="http://sodipodi.sourceforge.net/DTD/sodipodi-0.dtd"
   xmlns="http://www.w3.org/2000/svg"
   xmlns:svg="http://www.w3.org/2000/svg">
  <defs
     id="defs36">
    <clipPath
       clipPathUnits="userSpaceOnUse"
       id="clipPath37">
      <g
         id="g38">
        <path
           d="M 0,0 H 960 V 540 H 0 Z"
           clip-rule="nonzero"
           id="path37" />
      </g>
    </clipPath>
    <clipPath
       clipPathUnits="userSpaceOnUse"
       id="clipPath38">
      <g
         id="g39">
        <path
           d="M 0,0 H 960 V 540 H 0 Z"
           clip-rule="nonzero"
           id="path38" />
      </g>
    </clipPath>
    <clipPath
       clipPathUnits="userSpaceOnUse"
       id="clipPath39">
      <g
         id="g40">
        <path
           d="M 0,0 H 960 V 540 H 0 Z"
           clip-rule="nonzero"
           id="path39" />
      </g>
    </clipPath>
    <clipPath
       clipPathUnits="userSpaceOnUse"
       id="clipPath40">
      <g
         id="g41">
        <path
           d="M 0,0 H 960 V 540 H 0 Z"
           clip-rule="nonzero"
           id="path40" />
      </g>
    </clipPath>
    <clipPath
       clipPathUnits="userSpaceOnUse"
       id="clipPath41">
      <g
         id="g42">
        <path
           d="M 0,0 H 960 V 540 H 0 Z"
           clip-rule="nonzero"
           id="path41" />
      </g>
    </clipPath>
    <clipPath
       clipPathUnits="userSpaceOnUse"
       id="clipPath42">
      <g
         id="g43">
        <path
           d="M 0,0 H 960 V 540 H 0 Z"
           clip-rule="nonzero"
           id="path42" />
      </g>
    </clipPath>
    <clipPath
       clipPathUnits="userSpaceOnUse"
       id="clipPath43">
      <g
         id="g44">
        <path
           d="M 0,0 H 960 V 540 H 0 Z"
           clip-rule="nonzero"
           id="path43" />
      </g>
    </clipPath>
    <clipPath
       clipPathUnits="userSpaceOnUse"
       id="clipPath44">
      <g
         id="g45">
        <path
           d="M 0,0 H 960 V 540 H 0 Z"
           clip-rule="nonzero"
           id="path44" />
      </g>
    </clipPath>
    <clipPath
       clipPathUnits="userSpaceOnUse"
       id="clipPath45">
      <g
         id="g46">
        <path
           d="M 0,0 H 960 V 540 H 0 Z"
           clip-rule="nonzero"
           id="path45" />
      </g>
    </clipPath>
    <clipPath
       clipPathUnits="userSpaceOnUse"
       id="clipPath46">
      <g
         id="g47">
        <path
           d="M 0,0 H 960 V 540 H 0 Z"
           clip-rule="nonzero"
           id="path46" />
      </g>
    </clipPath>
    <clipPath
       clipPathUnits="userSpaceOnUse"
       id="clipPath47">
      <g
         id="g48">
        <path
           d="M 0,0 H 960 V 540 H 0 Z"
           clip-rule="nonzero"
           id="path47" />
      </g>
    </clipPath>
    <clipPath
       clipPathUnits="userSpaceOnUse"
       id="clipPath48">
      <g
         id="g49">
        <path
           d="M 0,0 H 960 V 540 H 0 Z"
           clip-rule="nonzero"
           id="path48" />
      </g>
    </clipPath>
    <clipPath
       clipPathUnits="userSpaceOnUse"
       id="clipPath49">
      <g
         id="g50">
        <path
           d="M 0,0 H 960 V 540 H 0 Z"
           clip-rule="nonzero"
           id="path49" />
      </g>
    </clipPath>
    <clipPath
       clipPathUnits="userSpaceOnUse"
       id="clipPath50">
      <g
         id="g51">
        <path
           d="M 0,0 H 960 V 540 H 0 Z"
           clip-rule="nonzero"
           id="path50" />
      </g>
    </clipPath>
    <clipPath
       clipPathUnits="userSpaceOnUse"
       id="clipPath51">
      <g
         id="g52">
        <path
           d="M 0,0 H 960 V 540 H 0 Z"
           clip-rule="nonzero"
           id="path51" />
      </g>
    </clipPath>
    <clipPath
       clipPathUnits="userSpaceOnUse"
       id="clipPath52">
      <g
         id="g53">
        <path
           d="M 0,0 H 960 V 540 H 0 Z"
           clip-rule="nonzero"
           id="path52" />
      </g>
    </clipPath>
    <clipPath
       clipPathUnits="userSpaceOnUse"
       id="clipPath53">
      <g
         id="g54">
        <path
           d="M 0,0 H 960 V 540 H 0 Z"
           clip-rule="nonzero"
           id="path53" />
      </g>
    </clipPath>
    <clipPath
       clipPathUnits="userSpaceOnUse"
       id="clipPath54">
      <g
         id="g55">
        <path
           d="M 0,0 H 960 V 540 H 0 Z"
           clip-rule="nonzero"
           id="path54" />
      </g>
    </clipPath>
    <clipPath
       clipPathUnits="userSpaceOnUse"
       id="clipPath55">
      <g
         id="g56">
        <path
           d="M 0,0 H 960 V 540 H 0 Z"
           clip-rule="nonzero"
           id="path55" />
      </g>
    </clipPath>
    <clipPath
       clipPathUnits="userSpaceOnUse"
       id="clipPath56">
      <g
         id="g57">
        <path
           d="M 0,0 H 960 V 540 H 0 Z"
           clip-rule="nonzero"
           id="path56" />
      </g>
    </clipPath>
    <clipPath
       clipPathUnits="userSpaceOnUse"
       id="clipPath57">
      <g
         id="g58">
        <path
           d="M 0,0 H 960 V 540 H 0 Z"
           clip-rule="nonzero"
           id="path57" />
      </g>
    </clipPath>
    <clipPath
       clipPathUnits="userSpaceOnUse"
       id="clipPath58">
      <g
         id="g59">
        <path
           d="M 0,0 H 960 V 540 H 0 Z"
           clip-rule="nonzero"
           id="path58" />
      </g>
    </clipPath>
    <clipPath
       clipPathUnits="userSpaceOnUse"
       id="clipPath59">
      <g
         id="g60">
        <path
           d="M 0,0 H 960 V 540 H 0 Z"
           clip-rule="nonzero"
           id="path59" />
      </g>
    </clipPath>
    <clipPath
       clipPathUnits="userSpaceOnUse"
       id="clipPath60">
      <g
         id="g61">
        <path
           d="M 0,0 H 960 V 540 H 0 Z"
           clip-rule="nonzero"
           id="path60" />
      </g>
    </clipPath>
    <clipPath
       clipPathUnits="userSpaceOnUse"
       id="clipPath61">
      <g
         id="g62">
        <path
           d="M 0,0 H 960 V 540 H 0 Z"
           clip-rule="nonzero"
           id="path61" />
      </g>
    </clipPath>
    <clipPath
       clipPathUnits="userSpaceOnUse"
       id="clipPath62">
      <g
         id="g63">
        <path
           d="M 0,0 H 960 V 540 H 0 Z"
           clip-rule="nonzero"
           id="path62" />
      </g>
    </clipPath>
    <clipPath
       clipPathUnits="userSpaceOnUse"
       id="clipPath63">
      <g
         id="g64">
        <path
           d="M 0,0 H 960 V 540 H 0 Z"
           clip-rule="nonzero"
           id="path63" />
      </g>
    </clipPath>
    <clipPath
       clipPathUnits="userSpaceOnUse"
       id="clipPath64">
      <g
         id="g65">
        <path
           d="M 0,0 H 960 V 540 H 0 Z"
           clip-rule="nonzero"
           id="path64" />
      </g>
    </clipPath>
    <clipPath
       clipPathUnits="userSpaceOnUse"
       id="clipPath65">
      <g
         id="g66">
        <path
           d="M 0,0 H 960 V 540 H 0 Z"
           clip-rule="nonzero"
           id="path65" />
      </g>
    </clipPath>
    <clipPath
       clipPathUnits="userSpaceOnUse"
       id="clipPath66">
      <g
         id="g67">
        <path
           d="M 0,0 H 960 V 540 H 0 Z"
           clip-rule="nonzero"
           id="path66" />
      </g>
    </clipPath>
    <clipPath
       clipPathUnits="userSpaceOnUse"
       id="clipPath67">
      <g
         id="g68">
        <path
           d="M 0,0 H 960 V 540 H 0 Z"
           clip-rule="nonzero"
           id="path67" />
      </g>
    </clipPath>
    <clipPath
       clipPathUnits="userSpaceOnUse"
       id="clipPath68">
      <g
         id="g69">
        <path
           d="M 0,0 H 960 V 540 H 0 Z"
           clip-rule="nonzero"
           id="path68" />
      </g>
    </clipPath>
    <clipPath
       clipPathUnits="userSpaceOnUse"
       id="clipPath69">
      <g
         id="g70">
        <path
           d="M 0,0 H 960 V 540 H 0 Z"
           clip-rule="nonzero"
           id="path69" />
      </g>
    </clipPath>
    <clipPath
       clipPathUnits="userSpaceOnUse"
       id="clipPath70">
      <g
         id="g71">
        <path
           d="M 0,0 H 960 V 540 H 0 Z"
           clip-rule="nonzero"
           id="path70" />
      </g>
    </clipPath>
    <clipPath
       clipPathUnits="userSpaceOnUse"
       id="clipPath71">
      <g
         id="g72">
        <path
           d="M 0,0 H 960 V 540 H 0 Z"
           clip-rule="nonzero"
           id="path71" />
      </g>
    </clipPath>
  </defs>
  <sodipodi:namedview
     id="namedview36"
     pagecolor="#ffffff"
     bordercolor="#000000"
     borderopacity="0.25"
     inkscape:showpageshadow="2"
     inkscape:pageopacity="0.0"
     inkscape:pagecheckerboard="0"
     inkscape:deskcolor="#d1d1d1"
     inkscape:zoom="1.0488751"
     inkscape:cx="396.6154"
     inkscape:cy="151.59098"
     inkscape:window-width="1920"
     inkscape:window-height="1016"
     inkscape:window-x="0"
     inkscape:window-y="0"
     inkscape:window-maximized="1"
     inkscape:current-layer="svg36" />
  <path
     fill="#efefef"
     d="M 720,296.47507 H 960 V 540.00263 H 720 Z"
     fill-rule="evenodd"
     id="path7"
     clip-path="url(#clipPath66)"
     transform="translate(0,-241.00525)" />
  <path
     fill="#efefef"
     d="m 720,241.00525 h 240 v 5.6378 H 720 Z"
     fill-rule="evenodd"
     id="path8"
     clip-path="url(#clipPath65)"
     transform="translate(0,-241.00525)" />
  <path
     fill="#000000"
     fill-opacity="0"
     d="m 742.70776,256.2842 h 91.46454 v 27.33859 h -91.46454 z"
     fill-rule="evenodd"
     id="path9"
     clip-path="url(#clipPath64)"
     transform="translate(0,-241.00525)" />
  <path
     fill="#5e5e5e"
     d="m 758.70776,277.09982 v 0.98438 h -6.20313 v -0.85938 l 3.09375,-3.46875 q 0.57813,-0.625 0.89063,-1.0625 0.32812,-0.45312 0.45312,-0.8125 0.125,-0.35937 0.125,-0.73437 0,-0.46875 -0.20312,-0.84375 -0.1875,-0.375 -0.5625,-0.59375 -0.35938,-0.23438 -0.89063,-0.23438 -0.625,0 -1.04687,0.25 -0.42188,0.23438 -0.64063,0.67188 -0.20312,0.4375 -0.20312,1 h -1.20313 q 0,-0.79688 0.34375,-1.45313 0.35938,-0.67187 1.04688,-1.0625 0.6875,-0.40625 1.70312,-0.40625 0.89063,0 1.53125,0.32813 0.64063,0.3125 0.98438,0.89062 0.34375,0.5625 0.34375,1.3125 0,0.42188 -0.14063,0.84375 -0.14062,0.42188 -0.39062,0.85938 -0.23438,0.42187 -0.5625,0.82812 -0.32813,0.40625 -0.6875,0.8125 l -2.53125,2.75 z m 7.22491,-4.51562 v 1.45312 q 0,1.15625 -0.21875,1.96875 -0.20312,0.79688 -0.59375,1.28125 -0.39062,0.48438 -0.9375,0.70313 -0.54687,0.21875 -1.23437,0.21875 -0.54688,0 -1.01563,-0.125 -0.45312,-0.14063 -0.82812,-0.4375 -0.35938,-0.3125 -0.625,-0.79688 -0.26563,-0.48437 -0.40625,-1.1875 -0.125,-0.70312 -0.125,-1.625 v -1.45312 q 0,-1.15625 0.20312,-1.9375 0.21875,-0.79688 0.60938,-1.26563 0.39062,-0.48437 0.9375,-0.6875 0.54687,-0.21875 1.23437,-0.21875 0.54688,0 1.01563,0.14063 0.46875,0.125 0.82812,0.42187 0.375,0.28125 0.625,0.76563 0.26563,0.48437 0.39063,1.17187 0.14062,0.6875 0.14062,1.60938 z m -1.20312,1.64062 v -1.82812 q 0,-0.64063 -0.0781,-1.125 -0.0781,-0.48438 -0.21875,-0.82813 -0.14062,-0.34375 -0.35937,-0.5625 -0.21875,-0.21875 -0.5,-0.3125 -0.28125,-0.10937 -0.64063,-0.10937 -0.42187,0 -0.76562,0.17187 -0.32813,0.15625 -0.5625,0.5 -0.21875,0.34375 -0.34375,0.90625 -0.10938,0.54688 -0.10938,1.35938 v 1.82812 q 0,0.64063 0.0781,1.14063 0.0781,0.48437 0.21875,0.84375 0.15625,0.34375 0.375,0.57812 0.21875,0.21875 0.5,0.32813 0.28125,0.10937 0.625,0.10937 0.4375,0 0.76562,-0.17187 0.34375,-0.17188 0.5625,-0.53125 0.21875,-0.35938 0.32813,-0.92188 0.125,-0.57812 0.125,-1.375 z m 6.70935,-5.67187 v 9.53125 h -1.20312 v -8.03125 l -2.4375,0.89062 v -1.07812 l 3.45312,-1.3125 z m 9.92804,6.34375 v 0.98437 h -6.84375 v -0.70312 l 4.25,-6.5625 h 0.98438 l -1.0625,1.89062 -2.79688,4.39063 z m -1.3125,-6.28125 v 9.46875 h -1.20312 v -9.46875 z m 5.89032,8.82812 q 0,-0.29687 0.1875,-0.5 0.20313,-0.21875 0.5625,-0.21875 0.35938,0 0.54688,0.21875 0.20312,0.20313 0.20312,0.5 0,0.29688 -0.20312,0.51563 -0.1875,0.20312 -0.54688,0.20312 -0.35937,0 -0.5625,-0.20312 -0.1875,-0.21875 -0.1875,-0.51563 z m 2.84375,0 q 0,-0.29687 0.1875,-0.5 0.20313,-0.21875 0.5625,-0.21875 0.35938,0 0.54688,0.21875 0.20312,0.20313 0.20312,0.5 0,0.29688 -0.20312,0.51563 -0.1875,0.20312 -0.54688,0.20312 -0.35937,0 -0.5625,-0.20312 -0.1875,-0.21875 -0.1875,-0.51563 z m 2.70313,0 q 0,-0.29687 0.1875,-0.5 0.20312,-0.21875 0.5625,-0.21875 0.35937,0 0.54687,0.21875 0.20313,0.20313 0.20313,0.5 0,0.29688 -0.20313,0.51563 -0.1875,0.20312 -0.54687,0.20312 -0.35938,0 -0.5625,-0.20312 -0.1875,-0.21875 -0.1875,-0.51563 z"
     fill-rule="nonzero"
     id="path10"
     clip-path="url(#clipPath63)"
     transform="translate(0,-241.00525)" />
  <path
     fill="#000000"
     fill-opacity="0"
     d="m 742.7087,320.2152 h 194.5827 v 83.74805 H 742.7087 Z"
     fill-rule="evenodd"
     id="path11"
     clip-path="url(#clipPath62)"
     transform="translate(0,-241.00525)" />
  <path
     fill="#5e5e5e"
     d="m 752.7243,333.20023 h 4.25 q 1.29687,0 2.23437,0.39062 0.95313,0.39063 1.45313,1.15625 0.51562,0.76563 0.51562,1.875 0,0.92188 -0.3125,1.57813 -0.3125,0.64062 -0.875,1.07812 -0.54687,0.4375 -1.29687,0.6875 l -0.75,0.39063 h -3.6875 l -0.0156,-1.82813 h 2.75 q 0.60938,0 1.01563,-0.21875 0.40625,-0.21875 0.60937,-0.60937 0.21875,-0.39063 0.21875,-0.90625 0,-0.54688 -0.20312,-0.9375 -0.20313,-0.40625 -0.625,-0.60938 -0.40625,-0.21875 -1.03125,-0.21875 h -1.90625 v 9.54688 h -2.34375 z m 6.35937,11.375 -2.59375,-5.07813 2.48438,-0.0156 2.625,4.98437 v 0.10938 z m 7.64063,0.15625 q -0.98438,0 -1.76563,-0.3125 -0.78125,-0.32813 -1.32812,-0.89063 -0.53125,-0.5625 -0.82813,-1.29687 -0.28125,-0.75 -0.28125,-1.59375 v -0.3125 q 0,-0.96875 0.26563,-1.76563 0.28125,-0.79687 0.78125,-1.375 0.51562,-0.59375 1.25,-0.90625 0.73437,-0.3125 1.65625,-0.3125 0.90625,0 1.59375,0.29688 0.70312,0.29687 1.17187,0.84375 0.46875,0.54687 0.70313,1.3125 0.25,0.75 0.25,1.6875 v 0.9375 h -6.71875 v -1.5 h 4.51562 v -0.17188 q 0,-0.46875 -0.17187,-0.84375 -0.17188,-0.375 -0.51563,-0.59375 -0.32812,-0.21875 -0.84375,-0.21875 -0.45312,0 -0.78125,0.20313 -0.3125,0.1875 -0.51562,0.54687 -0.1875,0.34375 -0.29688,0.82813 -0.0937,0.46875 -0.0937,1.03125 v 0.3125 q 0,0.5 0.14063,0.9375 0.15625,0.42187 0.42187,0.73437 0.26563,0.3125 0.65625,0.48438 0.39063,0.17187 0.875,0.17187 0.60938,0 1.14063,-0.23437 0.53125,-0.23438 0.90625,-0.71875 l 1.09375,1.1875 q -0.26563,0.375 -0.71875,0.73437 -0.45313,0.34375 -1.09375,0.57813 -0.64063,0.21875 -1.46875,0.21875 z m 8.25,-1.76563 q 0.40625,0 0.71875,-0.15625 0.32812,-0.15625 0.51562,-0.45312 0.1875,-0.29688 0.1875,-0.6875 h 2.125 q -0.0156,0.89062 -0.48437,1.57812 -0.46875,0.6875 -1.26563,1.09375 -0.78125,0.39063 -1.75,0.39063 -0.98437,0 -1.71875,-0.32813 -0.73437,-0.32812 -1.21875,-0.90625 -0.48437,-0.59375 -0.73437,-1.35937 -0.23438,-0.78125 -0.23438,-1.67188 v -0.23437 q 0,-0.89063 0.23438,-1.67188 0.25,-0.78125 0.73437,-1.35937 0.48438,-0.57813 1.20313,-0.90625 0.73437,-0.32813 1.71875,-0.32813 1.03125,0 1.8125,0.40625 0.79687,0.39063 1.23437,1.125 0.45313,0.73438 0.46875,1.75 h -2.125 q 0,-0.42187 -0.17187,-0.76562 -0.17188,-0.34375 -0.48438,-0.54688 -0.3125,-0.21875 -0.78125,-0.21875 -0.48437,0 -0.79687,0.21875 -0.3125,0.20313 -0.48438,0.5625 -0.17187,0.34375 -0.25,0.79688 -0.0625,0.45312 -0.0625,0.9375 v 0.23437 q 0,0.48438 0.0625,0.9375 0.0625,0.45313 0.23438,0.8125 0.1875,0.34375 0.5,0.54688 0.3125,0.20312 0.8125,0.20312 z m 4.47656,-2.53125 v -0.17187 q 0,-0.92188 0.26563,-1.70313 0.26562,-0.79687 0.76562,-1.375 0.51563,-0.57812 1.25,-0.89062 0.75,-0.32813 1.71875,-0.32813 0.95313,0 1.70313,0.32813 0.75,0.3125 1.26562,0.89062 0.51563,0.57813 0.78125,1.375 0.26563,0.78125 0.26563,1.70313 v 0.17187 q 0,0.92188 -0.26563,1.70313 -0.26562,0.78125 -0.78125,1.375 -0.51562,0.57812 -1.26562,0.90625 -0.73438,0.3125 -1.6875,0.3125 -0.96875,0 -1.71875,-0.3125 -0.73438,-0.32813 -1.25,-0.90625 -0.51563,-0.59375 -0.78125,-1.375 -0.26563,-0.78125 -0.26563,-1.70313 z m 2.25,-0.17187 v 0.17187 q 0,0.53125 0.0937,1 0.0937,0.45313 0.29688,0.79688 0.21875,0.34375 0.54687,0.54687 0.34375,0.1875 0.82813,0.1875 0.46875,0 0.79687,-0.1875 0.34375,-0.20312 0.54688,-0.54687 0.20312,-0.34375 0.29687,-0.79688 0.0937,-0.46875 0.0937,-1 v -0.17187 q 0,-0.51563 -0.0937,-0.96875 -0.0937,-0.45313 -0.3125,-0.8125 -0.20312,-0.35938 -0.54687,-0.5625 -0.32813,-0.20313 -0.79688,-0.20313 -0.48437,0 -0.8125,0.20313 -0.32812,0.20312 -0.54687,0.5625 -0.20313,0.35937 -0.29688,0.8125 -0.0937,0.45312 -0.0937,0.96875 z m 9.39063,-2.39063 v 6.70313 h -2.25 v -8.45313 h 2.10937 z m -0.3125,2.17188 h -0.625 q 0,-0.875 0.21875,-1.625 0.21875,-0.75 0.625,-1.29688 0.42187,-0.54687 1.03125,-0.84375 0.625,-0.3125 1.4375,-0.3125 0.5625,0 1.03125,0.17188 0.46875,0.15625 0.8125,0.51562 0.34375,0.35938 0.53125,0.92188 0.1875,0.5625 0.1875,1.35937 v 5.64063 h -2.25 v -5.39063 q 0,-0.57812 -0.15625,-0.89062 -0.15625,-0.3125 -0.45313,-0.4375 -0.28125,-0.125 -0.67187,-0.125 -0.4375,0 -0.76563,0.1875 -0.32812,0.17187 -0.54687,0.48437 -0.20313,0.3125 -0.3125,0.73438 -0.0937,0.42187 -0.0937,0.90625 z m 5.03125,-0.25 -0.79688,0.0937 q 0,-0.82813 0.20313,-1.53125 0.20312,-0.71875 0.60937,-1.25 0.42188,-0.54688 1.03125,-0.84375 0.60938,-0.29688 1.40625,-0.29688 0.60938,0 1.10938,0.17188 0.5,0.17187 0.84375,0.5625 0.35937,0.375 0.54687,0.98437 0.20313,0.60938 0.20313,1.48438 v 5.40625 h -2.26563 v -5.40625 q 0,-0.57813 -0.15625,-0.89063 -0.14062,-0.3125 -0.4375,-0.42187 -0.28125,-0.125 -0.67187,-0.125 -0.40625,0 -0.71875,0.15625 -0.29688,0.15625 -0.5,0.4375 -0.20313,0.28125 -0.3125,0.65625 -0.0937,0.375 -0.0937,0.8125 z m 10.78125,4.9375 q -0.98438,0 -1.76563,-0.3125 -0.78125,-0.32813 -1.32812,-0.89063 -0.53125,-0.5625 -0.82813,-1.29687 -0.28125,-0.75 -0.28125,-1.59375 v -0.3125 q 0,-0.96875 0.26563,-1.76563 0.28125,-0.79687 0.78125,-1.375 0.51562,-0.59375 1.25,-0.90625 0.73437,-0.3125 1.65625,-0.3125 0.90625,0 1.59375,0.29688 0.70312,0.29687 1.17187,0.84375 0.46875,0.54687 0.70313,1.3125 0.25,0.75 0.25,1.6875 v 0.9375 h -6.71875 v -1.5 h 4.51562 v -0.17188 q 0,-0.46875 -0.17187,-0.84375 -0.17188,-0.375 -0.51563,-0.59375 -0.32812,-0.21875 -0.84375,-0.21875 -0.45312,0 -0.78125,0.20313 -0.3125,0.1875 -0.51562,0.54687 -0.1875,0.34375 -0.29688,0.82813 -0.0937,0.46875 -0.0937,1.03125 v 0.3125 q 0,0.5 0.14063,0.9375 0.15625,0.42187 0.42187,0.73437 0.26563,0.3125 0.65625,0.48438 0.39063,0.17187 0.875,0.17187 0.60938,0 1.14063,-0.23437 0.53125,-0.23438 0.90625,-0.71875 l 1.09375,1.1875 q -0.26563,0.375 -0.71875,0.73437 -0.45313,0.34375 -1.09375,0.57813 -0.64063,0.21875 -1.46875,0.21875 z m 6.95312,-6.8125 v 6.65625 h -2.25 v -8.45313 h 2.10938 z m -0.32812,2.125 h -0.60938 q 0,-0.9375 0.23438,-1.6875 0.25,-0.75 0.6875,-1.28125 0.4375,-0.54688 1.04687,-0.82813 0.60938,-0.28125 1.35938,-0.28125 0.59375,0 1.07812,0.17188 0.5,0.17187 0.84375,0.54687 0.35938,0.375 0.54688,1 0.20312,0.60938 0.20312,1.5 v 5.39063 h -2.26562 v -5.40625 q 0,-0.5625 -0.15625,-0.875 -0.15625,-0.3125 -0.46875,-0.4375 -0.29688,-0.125 -0.73438,-0.125 -0.45312,0 -0.78125,0.1875 -0.32812,0.17187 -0.54687,0.48437 -0.21875,0.3125 -0.32813,0.73438 -0.10937,0.42187 -0.10937,0.90625 z m 12.09375,2.6875 v -10.15625 h 2.26562 v 12 h -2.04687 z m -5.34375,-2.28125 v -0.17188 q 0,-0.96875 0.21875,-1.75 0.21875,-0.79687 0.64062,-1.35937 0.42188,-0.57813 1.03125,-0.89063 0.625,-0.3125 1.40625,-0.3125 0.75,0 1.29688,0.3125 0.5625,0.3125 0.95312,0.89063 0.40625,0.5625 0.64063,1.34375 0.25,0.78125 0.35937,1.70312 v 0.35938 q -0.10937,0.875 -0.35937,1.64062 -0.23438,0.75 -0.64063,1.32813 -0.39062,0.5625 -0.95312,0.875 -0.5625,0.3125 -1.3125,0.3125 -0.78125,0 -1.40625,-0.3125 -0.60938,-0.32813 -1.03125,-0.90625 -0.40625,-0.57813 -0.625,-1.35938 -0.21875,-0.78125 -0.21875,-1.70312 z m 2.25,-0.17188 v 0.17188 q 0,0.51562 0.0781,0.96875 0.0781,0.45312 0.26563,0.8125 0.20312,0.34375 0.5,0.53125 0.3125,0.1875 0.76562,0.1875 0.57813,0 0.95313,-0.25 0.375,-0.26563 0.5625,-0.71875 0.20312,-0.46875 0.23437,-1.07813 v -1.01562 q -0.0156,-0.5 -0.14062,-0.89063 -0.10938,-0.39062 -0.32813,-0.67187 -0.20312,-0.28125 -0.53125,-0.4375 -0.3125,-0.15625 -0.73437,-0.15625 -0.4375,0 -0.75,0.20312 -0.3125,0.1875 -0.51563,0.53125 -0.1875,0.34375 -0.28125,0.8125 -0.0781,0.46875 -0.0781,1 z m 11.66406,2.39063 v -3.76563 q 0,-0.40625 -0.14063,-0.70312 -0.125,-0.29688 -0.40625,-0.45313 -0.26562,-0.17187 -0.70312,-0.17187 -0.375,0 -0.65625,0.14062 -0.26563,0.125 -0.42188,0.35938 -0.14062,0.23437 -0.14062,0.5625 h -2.25 q 0,-0.54688 0.25,-1.03125 0.25,-0.48438 0.71875,-0.84375 0.48437,-0.375 1.14062,-0.57813 0.65625,-0.21875 1.48438,-0.21875 0.98437,0 1.75,0.32813 0.76562,0.32812 1.20312,0.98437 0.4375,0.65625 0.4375,1.64063 v 3.60937 q 0,0.70313 0.0781,1.14063 0.0937,0.4375 0.26562,0.76562 v 0.14063 h -2.28125 q -0.15625,-0.34375 -0.25,-0.85938 -0.0781,-0.53125 -0.0781,-1.04687 z m 0.29687,-3.25 0.0156,1.28125 h -1.25 q -0.45313,0 -0.78125,0.10937 -0.32813,0.0937 -0.54688,0.28125 -0.20312,0.17188 -0.29687,0.42188 -0.0937,0.23437 -0.0937,0.53125 0,0.28125 0.125,0.51562 0.14062,0.23438 0.39062,0.35938 0.25,0.125 0.57813,0.125 0.51562,0 0.89062,-0.20313 0.375,-0.20312 0.57813,-0.5 0.20312,-0.29687 0.21875,-0.5625 l 0.59375,0.95313 q -0.125,0.32812 -0.34375,0.67187 -0.21875,0.34375 -0.54688,0.64063 -0.32812,0.29687 -0.79687,0.5 -0.45313,0.1875 -1.07813,0.1875 -0.8125,0 -1.46875,-0.32813 -0.64062,-0.32812 -1.03125,-0.89062 -0.375,-0.57813 -0.375,-1.3125 0,-0.67188 0.25,-1.1875 0.25,-0.51563 0.73438,-0.85938 0.5,-0.35937 1.23437,-0.54687 0.73438,-0.1875 1.70313,-0.1875 z m 7.20313,3.54687 q 0.40625,0 0.71875,-0.15625 0.32812,-0.15625 0.51562,-0.45312 0.1875,-0.29688 0.1875,-0.6875 h 2.125 q -0.0156,0.89062 -0.48437,1.57812 -0.46875,0.6875 -1.26563,1.09375 -0.78125,0.39063 -1.75,0.39063 -0.98437,0 -1.71875,-0.32813 -0.73437,-0.32812 -1.21875,-0.90625 -0.48437,-0.59375 -0.73437,-1.35937 -0.23438,-0.78125 -0.23438,-1.67188 v -0.23437 q 0,-0.89063 0.23438,-1.67188 0.25,-0.78125 0.73437,-1.35937 0.48438,-0.57813 1.20313,-0.90625 0.73437,-0.32813 1.71875,-0.32813 1.03125,0 1.8125,0.40625 0.79687,0.39063 1.23437,1.125 0.45313,0.73438 0.46875,1.75 h -2.125 q 0,-0.42187 -0.17187,-0.76562 -0.17188,-0.34375 -0.48438,-0.54688 -0.3125,-0.21875 -0.78125,-0.21875 -0.48437,0 -0.79687,0.21875 -0.3125,0.20313 -0.48438,0.5625 -0.17187,0.34375 -0.25,0.79688 -0.0625,0.45312 -0.0625,0.9375 v 0.23437 q 0,0.48438 0.0625,0.9375 0.0625,0.45313 0.23438,0.8125 0.1875,0.34375 0.5,0.54688 0.3125,0.20312 0.8125,0.20312 z m 7.21094,-6.84375 v 8.45313 h -2.25 v -8.45313 z m -2.39063,-2.20312 q 0,-0.5 0.34375,-0.8125 0.34375,-0.32813 0.92188,-0.32813 0.5625,0 0.90625,0.32813 0.35937,0.3125 0.35937,0.8125 0,0.48437 -0.35937,0.8125 -0.34375,0.3125 -0.90625,0.3125 -0.57813,0 -0.92188,-0.3125 -0.34375,-0.32813 -0.34375,-0.8125 z m 3.89063,6.51562 v -0.17187 q 0,-0.92188 0.26562,-1.70313 0.26563,-0.79687 0.76563,-1.375 0.51562,-0.57812 1.25,-0.89062 0.75,-0.32813 1.71875,-0.32813 0.95312,0 1.70312,0.32813 0.75,0.3125 1.26563,0.89062 0.51562,0.57813 0.78125,1.375 0.26562,0.78125 0.26562,1.70313 v 0.17187 q 0,0.92188 -0.26562,1.70313 -0.26563,0.78125 -0.78125,1.375 -0.51563,0.57812 -1.26563,0.90625 -0.73437,0.3125 -1.6875,0.3125 -0.96875,0 -1.71875,-0.3125 -0.73437,-0.32813 -1.25,-0.90625 -0.51562,-0.59375 -0.78125,-1.375 -0.26562,-0.78125 -0.26562,-1.70313 z m 2.25,-0.17187 v 0.17187 q 0,0.53125 0.0937,1 0.0937,0.45313 0.29687,0.79688 0.21875,0.34375 0.54688,0.54687 0.34375,0.1875 0.82812,0.1875 0.46875,0 0.79688,-0.1875 0.34375,-0.20312 0.54687,-0.54687 0.20313,-0.34375 0.29688,-0.79688 0.0937,-0.46875 0.0937,-1 v -0.17187 q 0,-0.51563 -0.0937,-0.96875 -0.0937,-0.45313 -0.3125,-0.8125 -0.20313,-0.35938 -0.54688,-0.5625 -0.32812,-0.20313 -0.79687,-0.20313 -0.48438,0 -0.8125,0.20313 -0.32813,0.20312 -0.54688,0.5625 -0.20312,0.35937 -0.29687,0.8125 -0.0937,0.45312 -0.0937,0.96875 z m 0.67187,-5.28125 1.53125,-2.40625 h 2.4375 l -2.14062,2.40625 z m 8.67188,2.9375 v 6.65625 h -2.25 v -8.45313 h 2.10937 z m -0.32813,2.125 h -0.60937 q 0,-0.9375 0.23437,-1.6875 0.25,-0.75 0.6875,-1.28125 0.4375,-0.54688 1.04688,-0.82813 0.60937,-0.28125 1.35937,-0.28125 0.59375,0 1.07813,0.17188 0.5,0.17187 0.84375,0.54687 0.35937,0.375 0.54687,1 0.20313,0.60938 0.20313,1.5 v 5.39063 h -2.26563 v -5.40625 q 0,-0.5625 -0.15625,-0.875 -0.15625,-0.3125 -0.46875,-0.4375 -0.29687,-0.125 -0.73437,-0.125 -0.45313,0 -0.78125,0.1875 -0.32813,0.17187 -0.54688,0.48437 -0.21875,0.3125 -0.32812,0.73438 -0.10938,0.42187 -0.10938,0.90625 z m 18.80469,-2.21875 v 1.82812 h -5.9375 v -1.82812 z m -5.25,-4.625 v 11.375 h -2.34375 v -11.375 z m 6.92188,0 v 11.375 h -2.34375 v -11.375 z m 6.89843,0 v 11.375 h -2.34375 v -11.375 z m 3.5,0 v 1.82812 h -9.28125 v -1.82812 z m 2.39844,0 h 1.98438 l 2.92187,8.34375 2.92188,-8.34375 h 1.98437 l -4.10937,11.375 h -1.59375 z m -1.07812,0 h 1.98437 l 0.35938,8.14062 v 3.23438 h -2.34375 z m 9.98437,0 h 1.98438 v 11.375 h -2.34375 v -3.23438 z m 11.33594,9.54687 v 1.82813 h -5.71875 v -1.82813 z m -4.96875,-9.54687 v 11.375 h -2.34375 v -11.375 z m 8.20312,6.1875 -1.79687,-0.42188 0.64062,-5.76562 h 6.39063 v 1.8125 h -4.53125 l -0.28125,2.53125 q 0.21875,-0.14063 0.67187,-0.28125 0.46875,-0.15625 1.04688,-0.15625 0.82812,0 1.46875,0.26562 0.64062,0.25 1.07812,0.75 0.45313,0.48438 0.6875,1.20313 0.23438,0.70312 0.23438,1.59375 0,0.76562 -0.23438,1.45312 -0.23437,0.67188 -0.71875,1.21875 -0.46875,0.53125 -1.1875,0.84375 -0.71875,0.29688 -1.70312,0.29688 -0.73438,0 -1.42188,-0.21875 -0.67187,-0.21875 -1.21875,-0.64063 -0.54687,-0.4375 -0.875,-1.04687 -0.3125,-0.625 -0.32812,-1.40625 h 2.23437 q 0.0469,0.48437 0.25,0.82812 0.20313,0.34375 0.54688,0.53125 0.34375,0.1875 0.8125,0.1875 0.42187,0 0.71875,-0.15625 0.3125,-0.17187 0.5,-0.45312 0.1875,-0.29688 0.28125,-0.6875 0.0937,-0.40625 0.0937,-0.85938 0,-0.46875 -0.10938,-0.84375 -0.10937,-0.375 -0.34375,-0.64062 -0.21875,-0.28125 -0.57812,-0.42188 -0.34375,-0.15625 -0.79688,-0.15625 -0.625,0 -0.96875,0.20313 -0.34375,0.1875 -0.5625,0.4375 z"
     fill-rule="nonzero"
     id="path12"
     clip-path="url(#clipPath61)"
     transform="translate(0,-241.00525)" />
  <path
     fill="#efefef"
     d="M 480,296.47507 H 720 V 540.00263 H 480 Z"
     fill-rule="evenodd"
     id="path13"
     clip-path="url(#clipPath60)"
     transform="translate(0,-241.00525)" />
  <path
     fill="#efefef"
     d="m 480,241.00525 h 240 v 5.6378 H 480 Z"
     fill-rule="evenodd"
     id="path14"
     clip-path="url(#clipPath59)"
     transform="translate(0,-241.00525)" />
  <path
     fill="#000000"
     fill-opacity="0"
     d="m 502.70776,256.2842 h 91.46454 v 27.33859 h -91.46454 z"
     fill-rule="evenodd"
     id="path15"
     clip-path="url(#clipPath58)"
     transform="translate(0,-241.00525)" />
  <path
     fill="#5e5e5e"
     d="m 518.70776,277.09982 v 0.98438 h -6.20313 v -0.85938 l 3.09375,-3.46875 q 0.57813,-0.625 0.89063,-1.0625 0.32812,-0.45312 0.45312,-0.8125 0.125,-0.35937 0.125,-0.73437 0,-0.46875 -0.20312,-0.84375 -0.1875,-0.375 -0.5625,-0.59375 -0.35938,-0.23438 -0.89063,-0.23438 -0.625,0 -1.04687,0.25 -0.42188,0.23438 -0.64063,0.67188 -0.20312,0.4375 -0.20312,1 h -1.20313 q 0,-0.79688 0.34375,-1.45313 0.35938,-0.67187 1.04688,-1.0625 0.6875,-0.40625 1.70312,-0.40625 0.89063,0 1.53125,0.32813 0.64063,0.3125 0.98438,0.89062 0.34375,0.5625 0.34375,1.3125 0,0.42188 -0.14063,0.84375 -0.14062,0.42188 -0.39062,0.85938 -0.23438,0.42187 -0.5625,0.82812 -0.32813,0.40625 -0.6875,0.8125 l -2.53125,2.75 z m 7.22491,-4.51562 v 1.45312 q 0,1.15625 -0.21875,1.96875 -0.20312,0.79688 -0.59375,1.28125 -0.39062,0.48438 -0.9375,0.70313 -0.54687,0.21875 -1.23437,0.21875 -0.54688,0 -1.01563,-0.125 -0.45312,-0.14063 -0.82812,-0.4375 -0.35938,-0.3125 -0.625,-0.79688 -0.26563,-0.48437 -0.40625,-1.1875 -0.125,-0.70312 -0.125,-1.625 v -1.45312 q 0,-1.15625 0.20312,-1.9375 0.21875,-0.79688 0.60938,-1.26563 0.39062,-0.48437 0.9375,-0.6875 0.54687,-0.21875 1.23437,-0.21875 0.54688,0 1.01563,0.14063 0.46875,0.125 0.82812,0.42187 0.375,0.28125 0.625,0.76563 0.26563,0.48437 0.39063,1.17187 0.14062,0.6875 0.14062,1.60938 z m -1.20312,1.64062 v -1.82812 q 0,-0.64063 -0.0781,-1.125 -0.0781,-0.48438 -0.21875,-0.82813 -0.14062,-0.34375 -0.35937,-0.5625 -0.21875,-0.21875 -0.5,-0.3125 -0.28125,-0.10937 -0.64063,-0.10937 -0.42187,0 -0.76562,0.17187 -0.32813,0.15625 -0.5625,0.5 -0.21875,0.34375 -0.34375,0.90625 -0.10938,0.54688 -0.10938,1.35938 v 1.82812 q 0,0.64063 0.0781,1.14063 0.0781,0.48437 0.21875,0.84375 0.15625,0.34375 0.375,0.57812 0.21875,0.21875 0.5,0.32813 0.28125,0.10937 0.625,0.10937 0.4375,0 0.76562,-0.17187 0.34375,-0.17188 0.5625,-0.53125 0.21875,-0.35938 0.32813,-0.92188 0.125,-0.57812 0.125,-1.375 z m 8.69373,-1.64062 v 1.45312 q 0,1.15625 -0.21875,1.96875 -0.20313,0.79688 -0.59375,1.28125 -0.39063,0.48438 -0.9375,0.70313 -0.54688,0.21875 -1.23438,0.21875 -0.54687,0 -1.01562,-0.125 -0.45313,-0.14063 -0.82813,-0.4375 -0.35937,-0.3125 -0.625,-0.79688 -0.26562,-0.48437 -0.40625,-1.1875 -0.125,-0.70312 -0.125,-1.625 v -1.45312 q 0,-1.15625 0.20313,-1.9375 0.21875,-0.79688 0.60937,-1.26563 0.39063,-0.48437 0.9375,-0.6875 0.54688,-0.21875 1.23438,-0.21875 0.54687,0 1.01562,0.14063 0.46875,0.125 0.82813,0.42187 0.375,0.28125 0.625,0.76563 0.26562,0.48437 0.39062,1.17187 0.14063,0.6875 0.14063,1.60938 z m -1.20313,1.64062 v -1.82812 q 0,-0.64063 -0.0781,-1.125 -0.0781,-0.48438 -0.21875,-0.82813 -0.14063,-0.34375 -0.35938,-0.5625 -0.21875,-0.21875 -0.5,-0.3125 -0.28125,-0.10937 -0.64062,-0.10937 -0.42188,0 -0.76563,0.17187 -0.32812,0.15625 -0.5625,0.5 -0.21875,0.34375 -0.34375,0.90625 -0.10937,0.54688 -0.10937,1.35938 v 1.82812 q 0,0.64063 0.0781,1.14063 0.0781,0.48437 0.21875,0.84375 0.15625,0.34375 0.375,0.57812 0.21875,0.21875 0.5,0.32813 0.28125,0.10937 0.625,0.10937 0.4375,0 0.76563,-0.17187 0.34375,-0.17188 0.5625,-0.53125 0.21875,-0.35938 0.32812,-0.92188 0.125,-0.57812 0.125,-1.375 z m 8.72492,1.29688 q 0,0.85937 -0.40625,1.46875 -0.39063,0.59375 -1.07813,0.90625 -0.6875,0.3125 -1.53125,0.3125 -0.85937,0 -1.54687,-0.3125 -0.67188,-0.3125 -1.07813,-0.90625 -0.39062,-0.60938 -0.39062,-1.46875 0,-0.5625 0.21875,-1.03125 0.21875,-0.48438 0.60937,-0.82813 0.40625,-0.35937 0.95313,-0.54687 0.5625,-0.1875 1.21875,-0.1875 0.875,0 1.54687,0.34375 0.6875,0.32812 1.07813,0.92187 0.40625,0.57813 0.40625,1.32813 z m -1.21875,-0.0312 q 0,-0.53125 -0.23438,-0.9375 -0.21875,-0.40625 -0.625,-0.625 -0.40625,-0.23438 -0.95312,-0.23438 -0.54688,0 -0.95313,0.23438 -0.40625,0.21875 -0.625,0.625 -0.21875,0.40625 -0.21875,0.9375 0,0.54687 0.21875,0.9375 0.21875,0.39062 0.625,0.59375 0.40625,0.20312 0.96875,0.20312 0.5625,0 0.95313,-0.20312 0.40625,-0.20313 0.625,-0.59375 0.21875,-0.39063 0.21875,-0.9375 z m 1,-4.42188 q 0,0.70313 -0.375,1.25 -0.35938,0.54688 -1,0.875 -0.625,0.3125 -1.42188,0.3125 -0.8125,0 -1.45312,-0.3125 -0.625,-0.32812 -0.98438,-0.875 -0.35937,-0.54687 -0.35937,-1.25 0,-0.8125 0.35937,-1.39062 0.35938,-0.59375 0.98438,-0.89063 0.64062,-0.3125 1.4375,-0.3125 0.82812,0 1.45312,0.3125 0.625,0.29688 0.98438,0.89063 0.375,0.57812 0.375,1.39062 z m -1.20313,0.0312 q 0,-0.48437 -0.20312,-0.84375 -0.20313,-0.35937 -0.5625,-0.5625 -0.35938,-0.21875 -0.84375,-0.21875 -0.46875,0 -0.82813,0.20313 -0.34375,0.1875 -0.54687,0.5625 -0.20313,0.35937 -0.20313,0.85937 0,0.48438 0.20313,0.85938 0.20312,0.35937 0.5625,0.5625 0.35937,0.1875 0.82812,0.1875 0.46875,0 0.82813,-0.1875 0.35937,-0.20313 0.5625,-0.5625 0.20312,-0.375 0.20312,-0.85938 z"
     fill-rule="nonzero"
     id="path16"
     clip-path="url(#clipPath57)"
     transform="translate(0,-241.00525)" />
  <path
     fill="#000000"
     fill-opacity="0"
     d="m 502.7087,320.2152 h 194.58267 v 83.74805 H 502.7087 Z"
     fill-rule="evenodd"
     id="path17"
     clip-path="url(#clipPath56)"
     transform="translate(0,-241.00525)" />
  <path
     fill="#5e5e5e"
     d="m 520.31805,337.82523 v 1.82812 h -5.9375 v -1.82812 z m -5.25,-4.625 v 11.375 h -2.34375 v -11.375 z m 6.92187,0 v 11.375 h -2.34375 v -11.375 z m 6.89844,0 v 11.375 h -2.34375 v -11.375 z m 3.5,0 v 1.82812 h -9.28125 v -1.82812 z m 2.39844,0 h 1.98437 l 2.92188,8.34375 2.92187,-8.34375 h 1.98438 l -4.10938,11.375 h -1.59375 z m -1.07813,0 h 1.98438 l 0.35937,8.14062 v 3.23438 h -2.34375 z m 9.98438,0 h 1.98437 v 11.375 h -2.34375 v -3.23438 z m 11.33594,9.54687 v 1.82813 h -5.71875 v -1.82813 z m -4.96875,-9.54687 v 11.375 h -2.34375 v -11.375 z m 8.20312,6.1875 -1.79687,-0.42188 0.64062,-5.76562 h 6.39063 v 1.8125 h -4.53125 l -0.28125,2.53125 q 0.21875,-0.14063 0.67187,-0.28125 0.46875,-0.15625 1.04688,-0.15625 0.82812,0 1.46875,0.26562 0.64062,0.25 1.07812,0.75 0.45313,0.48438 0.6875,1.20313 0.23438,0.70312 0.23438,1.59375 0,0.76562 -0.23438,1.45312 -0.23437,0.67188 -0.71875,1.21875 -0.46875,0.53125 -1.1875,0.84375 -0.71875,0.29688 -1.70312,0.29688 -0.73438,0 -1.42188,-0.21875 -0.67187,-0.21875 -1.21875,-0.64063 -0.54687,-0.4375 -0.875,-1.04687 -0.3125,-0.625 -0.32812,-1.40625 h 2.23437 q 0.0469,0.48437 0.25,0.82812 0.20313,0.34375 0.54688,0.53125 0.34375,0.1875 0.8125,0.1875 0.42187,0 0.71875,-0.15625 0.3125,-0.17187 0.5,-0.45312 0.1875,-0.29688 0.28125,-0.6875 0.0937,-0.40625 0.0937,-0.85938 0,-0.46875 -0.10938,-0.84375 -0.10937,-0.375 -0.34375,-0.64062 -0.21875,-0.28125 -0.57812,-0.42188 -0.34375,-0.15625 -0.79688,-0.15625 -0.625,0 -0.96875,0.20313 -0.34375,0.1875 -0.5625,0.4375 z"
     fill-rule="nonzero"
     id="path18"
     clip-path="url(#clipPath55)"
     transform="translate(0,-241.00525)" />
  <path
     fill="#000000"
     fill-opacity="0"
     d="M 720,241.00525 V 538.89502"
     fill-rule="evenodd"
     id="path19"
     clip-path="url(#clipPath54)"
     transform="translate(0,-241.00525)" />
  <path
     stroke="#d9d9d9"
     stroke-width="1"
     stroke-linejoin="round"
     stroke-linecap="butt"
     stroke-dasharray="1, 3"
     d="M 720,241.00525 V 538.89502"
     fill-rule="evenodd"
     id="path20"
     clip-path="url(#clipPath53)"
     transform="translate(0,-241.00525)" />
  <path
     fill="#1b786e"
     d="M 240,296.47507 H 480 V 540.00263 H 240 Z"
     fill-rule="evenodd"
     id="path21"
     clip-path="url(#clipPath52)"
     transform="translate(0,-241.00525)" />
  <path
     fill="#1b786e"
     d="m 240,241.00525 h 240 v 5.6378 H 240 Z"
     fill-rule="evenodd"
     id="path22"
     clip-path="url(#clipPath51)"
     transform="translate(0,-241.00525)" />
  <path
     fill="#000000"
     fill-opacity="0"
     d="m 262.70776,256.2842 h 91.46454 v 27.33859 h -91.46454 z"
     fill-rule="evenodd"
     id="path23"
     clip-path="url(#clipPath50)"
     transform="translate(0,-241.00525)" />
  <path
     fill="#1b786e"
     d="m 276.45776,268.55295 v 9.53125 h -1.20313 v -8.03125 l -2.4375,0.89062 v -1.07812 l 3.45313,-1.3125 z m 4.72494,8.51562 h 0.125 q 1.04688,0 1.6875,-0.28125 0.65625,-0.29687 1,-0.78125 0.35938,-0.5 0.48438,-1.125 0.14062,-0.625 0.14062,-1.28125 v -1.45312 q 0,-0.64063 -0.15625,-1.14063 -0.14062,-0.5 -0.40625,-0.84375 -0.25,-0.34375 -0.57812,-0.51562 -0.32813,-0.17188 -0.6875,-0.17188 -0.42188,0 -0.75,0.17188 -0.32813,0.15625 -0.5625,0.46875 -0.21875,0.29687 -0.34375,0.70312 -0.10938,0.39063 -0.10938,0.875 0,0.42188 0.10938,0.8125 0.10937,0.39063 0.3125,0.71875 0.21875,0.3125 0.54687,0.5 0.32813,0.1875 0.75,0.1875 0.40625,0 0.76563,-0.15625 0.35937,-0.15625 0.625,-0.4375 0.28125,-0.28125 0.4375,-0.625 0.17187,-0.35937 0.20312,-0.73437 h 0.57813 q 0,0.53125 -0.21875,1.0625 -0.20313,0.51562 -0.59375,0.95312 -0.375,0.42188 -0.89063,0.6875 -0.5,0.25 -1.09375,0.25 -0.70312,0 -1.21875,-0.26562 -0.51562,-0.28125 -0.84375,-0.73438 -0.32812,-0.45312 -0.48437,-1.01562 -0.15625,-0.5625 -0.15625,-1.14063 0,-0.6875 0.1875,-1.26562 0.1875,-0.59375 0.54687,-1.04688 0.375,-0.45312 0.92188,-0.70312 0.5625,-0.26563 1.28125,-0.26563 0.8125,0 1.375,0.32813 0.57812,0.32812 0.9375,0.875 0.375,0.54687 0.53125,1.23437 0.17187,0.67188 0.17187,1.40625 v 0.42188 q 0,0.75 -0.0937,1.51562 -0.0937,0.75 -0.35937,1.4375 -0.26563,0.6875 -0.76563,1.23438 -0.5,0.53125 -1.3125,0.85937 -0.79687,0.3125 -1.96875,0.3125 h -0.125 z m 7.49057,0 h 0.125 q 1.04688,0 1.6875,-0.28125 0.65625,-0.29687 1,-0.78125 0.35938,-0.5 0.48438,-1.125 0.14062,-0.625 0.14062,-1.28125 v -1.45312 q 0,-0.64063 -0.15625,-1.14063 -0.14062,-0.5 -0.40625,-0.84375 -0.25,-0.34375 -0.57812,-0.51562 -0.32813,-0.17188 -0.6875,-0.17188 -0.42188,0 -0.75,0.17188 -0.32813,0.15625 -0.5625,0.46875 -0.21875,0.29687 -0.34375,0.70312 -0.10938,0.39063 -0.10938,0.875 0,0.42188 0.10938,0.8125 0.10937,0.39063 0.3125,0.71875 0.21875,0.3125 0.54687,0.5 0.32813,0.1875 0.75,0.1875 0.40625,0 0.76563,-0.15625 0.35937,-0.15625 0.625,-0.4375 0.28125,-0.28125 0.4375,-0.625 0.17187,-0.35937 0.20312,-0.73437 h 0.57813 q 0,0.53125 -0.21875,1.0625 -0.20313,0.51562 -0.59375,0.95312 -0.375,0.42188 -0.89063,0.6875 -0.5,0.25 -1.09375,0.25 -0.70312,0 -1.21875,-0.26562 -0.51562,-0.28125 -0.84375,-0.73438 -0.32812,-0.45312 -0.48437,-1.01562 -0.15625,-0.5625 -0.15625,-1.14063 0,-0.6875 0.1875,-1.26562 0.1875,-0.59375 0.54687,-1.04688 0.375,-0.45312 0.92188,-0.70312 0.5625,-0.26563 1.28125,-0.26563 0.8125,0 1.375,0.32813 0.57812,0.32812 0.9375,0.875 0.375,0.54687 0.53125,1.23437 0.17187,0.67188 0.17187,1.40625 v 0.42188 q 0,0.75 -0.0937,1.51562 -0.0937,0.75 -0.35937,1.4375 -0.26563,0.6875 -0.76563,1.23438 -0.5,0.53125 -1.3125,0.85937 -0.79687,0.3125 -1.96875,0.3125 h -0.125 z m 12.27182,-1.54687 q 0,0.85937 -0.40625,1.46875 -0.39062,0.59375 -1.07812,0.90625 -0.6875,0.3125 -1.53125,0.3125 -0.85938,0 -1.54688,-0.3125 -0.67187,-0.3125 -1.07812,-0.90625 -0.39063,-0.60938 -0.39063,-1.46875 0,-0.5625 0.21875,-1.03125 0.21875,-0.48438 0.60938,-0.82813 0.40625,-0.35937 0.95312,-0.54687 0.5625,-0.1875 1.21875,-0.1875 0.875,0 1.54688,0.34375 0.6875,0.32812 1.07812,0.92187 0.40625,0.57813 0.40625,1.32813 z m -1.21875,-0.0312 q 0,-0.53125 -0.23437,-0.9375 -0.21875,-0.40625 -0.625,-0.625 -0.40625,-0.23438 -0.95313,-0.23438 -0.54687,0 -0.95312,0.23438 -0.40625,0.21875 -0.625,0.625 -0.21875,0.40625 -0.21875,0.9375 0,0.54687 0.21875,0.9375 0.21875,0.39062 0.625,0.59375 0.40625,0.20312 0.96875,0.20312 0.5625,0 0.95312,-0.20312 0.40625,-0.20313 0.625,-0.59375 0.21875,-0.39063 0.21875,-0.9375 z m 1,-4.42188 q 0,0.70313 -0.375,1.25 -0.35937,0.54688 -1,0.875 -0.625,0.3125 -1.42187,0.3125 -0.8125,0 -1.45313,-0.3125 -0.625,-0.32812 -0.98437,-0.875 -0.35938,-0.54687 -0.35938,-1.25 0,-0.8125 0.35938,-1.39062 0.35937,-0.59375 0.98437,-0.89063 0.64063,-0.3125 1.4375,-0.3125 0.82813,0 1.45313,0.3125 0.625,0.29688 0.98437,0.89063 0.375,0.57812 0.375,1.39062 z m -1.20312,0.0312 q 0,-0.48437 -0.20313,-0.84375 -0.20312,-0.35937 -0.5625,-0.5625 -0.35937,-0.21875 -0.84375,-0.21875 -0.46875,0 -0.82812,0.20313 -0.34375,0.1875 -0.54688,0.5625 -0.20312,0.35937 -0.20312,0.85937 0,0.48438 0.20312,0.85938 0.20313,0.35937 0.5625,0.5625 0.35938,0.1875 0.82813,0.1875 0.46875,0 0.82812,-0.1875 0.35938,-0.20313 0.5625,-0.5625 0.20313,-0.375 0.20313,-0.85938 z"
     fill-rule="nonzero"
     id="path24"
     clip-path="url(#clipPath49)"
     transform="translate(0,-241.00525)" />
  <path
     fill="#000000"
     fill-opacity="0"
     d="m 262.7087,320.2152 h 194.58267 v 83.74805 H 262.7087 Z"
     fill-rule="evenodd"
     id="path25"
     clip-path="url(#clipPath48)"
     transform="translate(0,-241.00525)" />
  <path
     fill="#ffffff"
     d="m 280.31808,337.82523 v 1.82812 h -5.9375 v -1.82812 z m -5.25,-4.625 v 11.375 h -2.34375 v -11.375 z m 6.92187,0 v 11.375 h -2.34375 v -11.375 z m 6.89844,0 v 11.375 h -2.34375 v -11.375 z m 3.5,0 v 1.82812 h -9.28125 v -1.82812 z m 2.39844,0 h 1.98437 l 2.92188,8.34375 2.92187,-8.34375 h 1.98438 l -4.10938,11.375 h -1.59375 z m -1.07813,0 h 1.98438 l 0.35937,8.14062 v 3.23438 h -2.34375 z m 9.98438,0 h 1.98437 v 11.375 h -2.34375 v -3.23438 z m 11.33594,9.54687 v 1.82813 h -5.71875 v -1.82813 z m -4.96875,-9.54687 v 11.375 h -2.34375 v -11.375 z m 18.02344,7.125 v 1.76562 h -8.1875 l -0.10938,-1.375 4.73438,-7.51562 h 1.79687 l -1.9375,3.23437 -2.35937,3.89063 z m -1.28125,-7.125 v 11.375 h -2.25 v -11.375 z"
     fill-rule="nonzero"
     id="path26"
     clip-path="url(#clipPath47)"
     transform="translate(0,-241.00525)" />
  <path
     fill="#000000"
     fill-opacity="0"
     d="M 480,241.00525 V 538.89502"
     fill-rule="evenodd"
     id="path27"
     clip-path="url(#clipPath46)"
     transform="translate(0,-241.00525)" />
  <path
     stroke="#83e3d9"
     stroke-width="1"
     stroke-linejoin="round"
     stroke-linecap="butt"
     stroke-dasharray="1, 3"
     d="M 480,241.00525 V 538.89502"
     fill-rule="evenodd"
     id="path28"
     clip-path="url(#clipPath45)"
     transform="translate(0,-241.00525)" />
  <path
     fill="#1b786e"
     d="M 0,296.47507 H 240 V 540.00263 H 0 Z"
     fill-rule="evenodd"
     id="path29"
     clip-path="url(#clipPath44)"
     transform="translate(0,-241.00525)" />
  <path
     fill="#1b786e"
     d="m 0,241.00525 h 240 v 5.6378 H 0 Z"
     fill-rule="evenodd"
     id="path30"
     clip-path="url(#clipPath43)"
     transform="translate(0,-241.00525)" />
  <path
     fill="#000000"
     fill-opacity="0"
     d="m 22.707748,256.2842 h 91.464572 v 27.33859 H 22.707748 Z"
     fill-rule="evenodd"
     id="path31"
     clip-path="url(#clipPath42)"
     transform="translate(0,-241.00525)" />
  <path
     fill="#1b786e"
     d="m 36.45775,268.55295 v 9.53125 h -1.203125 v -8.03125 l -2.4375,0.89062 v -1.07812 l 3.453125,-1.3125 z m 4.724945,8.51562 h 0.125 q 1.046875,0 1.6875,-0.28125 0.65625,-0.29687 1,-0.78125 0.359375,-0.5 0.484375,-1.125 0.140625,-0.625 0.140625,-1.28125 v -1.45312 q 0,-0.64063 -0.15625,-1.14063 -0.140625,-0.5 -0.40625,-0.84375 -0.25,-0.34375 -0.578125,-0.51562 -0.328125,-0.17188 -0.6875,-0.17188 -0.421875,0 -0.75,0.17188 -0.328125,0.15625 -0.5625,0.46875 -0.21875,0.29687 -0.34375,0.70312 -0.109375,0.39063 -0.109375,0.875 0,0.42188 0.109375,0.8125 0.109375,0.39063 0.3125,0.71875 0.21875,0.3125 0.546875,0.5 0.328125,0.1875 0.75,0.1875 0.40625,0 0.765625,-0.15625 0.359375,-0.15625 0.625,-0.4375 0.28125,-0.28125 0.4375,-0.625 0.171875,-0.35937 0.203125,-0.73437 h 0.578125 q 0,0.53125 -0.21875,1.0625 -0.203125,0.51562 -0.59375,0.95312 -0.375,0.42188 -0.890625,0.6875 -0.5,0.25 -1.09375,0.25 -0.703125,0 -1.21875,-0.26562 -0.515625,-0.28125 -0.84375,-0.73438 -0.328125,-0.45312 -0.484375,-1.01562 -0.15625,-0.5625 -0.15625,-1.14063 0,-0.6875 0.1875,-1.26562 0.1875,-0.59375 0.546875,-1.04688 0.375,-0.45312 0.921875,-0.70312 0.5625,-0.26563 1.28125,-0.26563 0.8125,0 1.375,0.32813 0.578125,0.32812 0.9375,0.875 0.375,0.54687 0.53125,1.23437 0.171875,0.67188 0.171875,1.40625 v 0.42188 q 0,0.75 -0.09375,1.51562 -0.09375,0.75 -0.359375,1.4375 -0.265625,0.6875 -0.765625,1.23438 -0.5,0.53125 -1.3125,0.85937 -0.796875,0.3125 -1.96875,0.3125 h -0.125 z m 7.49057,0 h 0.125 q 1.046875,0 1.6875,-0.28125 0.65625,-0.29687 1,-0.78125 0.359375,-0.5 0.484375,-1.125 0.140625,-0.625 0.140625,-1.28125 v -1.45312 q 0,-0.64063 -0.15625,-1.14063 -0.140625,-0.5 -0.40625,-0.84375 -0.25,-0.34375 -0.578125,-0.51562 -0.328125,-0.17188 -0.6875,-0.17188 -0.421875,0 -0.75,0.17188 -0.328125,0.15625 -0.5625,0.46875 -0.21875,0.29687 -0.34375,0.70312 -0.109375,0.39063 -0.109375,0.875 0,0.42188 0.109375,0.8125 0.109375,0.39063 0.3125,0.71875 0.21875,0.3125 0.546875,0.5 0.328125,0.1875 0.75,0.1875 0.40625,0 0.765625,-0.15625 0.359375,-0.15625 0.625,-0.4375 0.28125,-0.28125 0.4375,-0.625 0.171875,-0.35937 0.203125,-0.73437 h 0.578125 q 0,0.53125 -0.21875,1.0625 -0.203125,0.51562 -0.59375,0.95312 -0.375,0.42188 -0.890625,0.6875 -0.5,0.25 -1.09375,0.25 -0.703125,0 -1.21875,-0.26562 -0.515625,-0.28125 -0.84375,-0.73438 -0.328125,-0.45312 -0.484375,-1.01562 -0.15625,-0.5625 -0.15625,-1.14063 0,-0.6875 0.1875,-1.26562 0.1875,-0.59375 0.546875,-1.04688 0.375,-0.45312 0.921875,-0.70312 0.5625,-0.26563 1.28125,-0.26563 0.8125,0 1.375,0.32813 0.578125,0.32812 0.9375,0.875 0.375,0.54687 0.53125,1.23437 0.171875,0.67188 0.171875,1.40625 v 0.42188 q 0,0.75 -0.09375,1.51562 -0.09375,0.75 -0.359375,1.4375 -0.265625,0.6875 -0.765625,1.23438 -0.5,0.53125 -1.3125,0.85937 -0.796875,0.3125 -1.96875,0.3125 h -0.125 z m 12.506195,0.0312 v 0.98438 h -6.203125 v -0.85938 l 3.09375,-3.46875 q 0.578125,-0.625 0.890625,-1.0625 0.328125,-0.45312 0.453125,-0.8125 0.125,-0.35937 0.125,-0.73437 0,-0.46875 -0.203125,-0.84375 -0.1875,-0.375 -0.5625,-0.59375 -0.359375,-0.23438 -0.890625,-0.23438 -0.625,0 -1.046875,0.25 -0.421875,0.23438 -0.640625,0.67188 -0.203125,0.4375 -0.203125,1 h -1.203125 q 0,-0.79688 0.34375,-1.45313 0.359375,-0.67187 1.046875,-1.0625 0.6875,-0.40625 1.703125,-0.40625 0.890625,0 1.53125,0.32813 0.640625,0.3125 0.984375,0.89062 0.34375,0.5625 0.34375,1.3125 0,0.42188 -0.140625,0.84375 -0.140625,0.42188 -0.390625,0.85938 -0.234375,0.42187 -0.5625,0.82812 -0.328125,0.40625 -0.6875,0.8125 l -2.53125,2.75 z"
     fill-rule="nonzero"
     id="path32"
     clip-path="url(#clipPath41)"
     transform="translate(0,-241.00525)" />
  <path
     fill="#000000"
     fill-opacity="0"
     d="m 22.70871,320.2152 h 194.58267 v 83.74805 H 22.70871 Z"
     fill-rule="evenodd"
     id="path33"
     clip-path="url(#clipPath40)"
     transform="translate(0,-241.00525)" />
  <path
     fill="#ffffff"
     d="m 40.036835,342.7471 v 1.82812 h -5.71875 v -1.82812 z m -4.96875,-9.54688 v 11.375 h -2.34375 v -11.375 z m 10.734375,9.46875 v -3.76562 q 0,-0.40625 -0.140625,-0.70313 -0.125,-0.29687 -0.40625,-0.45312 -0.265625,-0.17188 -0.703125,-0.17188 -0.375,0 -0.65625,0.14063 -0.265625,0.125 -0.421875,0.35937 -0.140625,0.23438 -0.140625,0.5625 h -2.25 q 0,-0.54687 0.25,-1.03125 0.25,-0.48437 0.71875,-0.84375 0.484375,-0.375 1.140625,-0.57812 0.65625,-0.21875 1.484375,-0.21875 0.984375,0 1.75,0.32812 0.765625,0.32813 1.203125,0.98438 0.4375,0.65625 0.4375,1.64062 v 3.60938 q 0,0.70312 0.07813,1.14062 0.09375,0.4375 0.265625,0.76563 v 0.14062 h -2.28125 q -0.15625,-0.34375 -0.25,-0.85937 -0.07813,-0.53125 -0.07813,-1.04688 z m 0.296875,-3.25 0.01563,1.28125 h -1.25 q -0.453125,0 -0.78125,0.10938 -0.328125,0.0937 -0.546875,0.28125 -0.203125,0.17187 -0.296875,0.42187 -0.09375,0.23438 -0.09375,0.53125 0,0.28125 0.125,0.51563 0.140625,0.23437 0.390625,0.35937 0.25,0.125 0.578125,0.125 0.515625,0 0.890625,-0.20312 0.375,-0.20313 0.578125,-0.5 0.203125,-0.29688 0.21875,-0.5625 l 0.59375,0.95312 q -0.125,0.32813 -0.34375,0.67188 -0.21875,0.34375 -0.546875,0.64062 -0.328125,0.29688 -0.796875,0.5 -0.453125,0.1875 -1.078125,0.1875 -0.8125,0 -1.46875,-0.32812 -0.640625,-0.32813 -1.03125,-0.89063 -0.375,-0.57812 -0.375,-1.3125 0,-0.67187 0.25,-1.1875 0.25,-0.51562 0.734375,-0.85937 0.5,-0.35938 1.234375,-0.54688 0.734375,-0.1875 1.703125,-0.1875 z m 5.90625,-1.5 v 6.65625 h -2.25 v -8.45312 h 2.109375 z m -0.328125,2.125 h -0.609375 q 0,-0.9375 0.234375,-1.6875 0.25,-0.75 0.6875,-1.28125 0.4375,-0.54687 1.046875,-0.82812 0.609375,-0.28125 1.359375,-0.28125 0.59375,0 1.078125,0.17187 0.5,0.17188 0.84375,0.54688 0.359375,0.375 0.546875,1 0.203125,0.60937 0.203125,1.5 v 5.39062 H 54.80246 v -5.40625 q 0,-0.5625 -0.15625,-0.875 -0.15625,-0.3125 -0.46875,-0.4375 -0.296875,-0.125 -0.734375,-0.125 -0.453125,0 -0.78125,0.1875 -0.328125,0.17188 -0.546875,0.48438 -0.21875,0.3125 -0.328125,0.73437 -0.109375,0.42188 -0.109375,0.90625 z m 13.828125,2.76563 v 1.76562 H 59.08371 v -1.76562 z m -0.125,-5.39063 -5.390625,7.15625 h -1.515625 v -1.34375 l 5.375,-7.10937 h 1.53125 z M 64.58371,336.1221 v 1.75 h -5.984375 v -1.75 z m 6.890625,6.54687 v -3.76562 q 0,-0.40625 -0.140625,-0.70313 -0.125,-0.29687 -0.40625,-0.45312 -0.265625,-0.17188 -0.703125,-0.17188 -0.375,0 -0.65625,0.14063 -0.265625,0.125 -0.421875,0.35937 -0.140625,0.23438 -0.140625,0.5625 h -2.25 q 0,-0.54687 0.25,-1.03125 0.25,-0.48437 0.71875,-0.84375 0.484375,-0.375 1.140625,-0.57812 0.65625,-0.21875 1.484375,-0.21875 0.984375,0 1.75,0.32812 0.765625,0.32813 1.203125,0.98438 0.4375,0.65625 0.4375,1.64062 v 3.60938 q 0,0.70312 0.07813,1.14062 0.09375,0.4375 0.265625,0.76563 v 0.14062 h -2.28125 q -0.15625,-0.34375 -0.25,-0.85937 -0.07813,-0.53125 -0.07813,-1.04688 z m 0.296875,-3.25 0.01563,1.28125 h -1.25 q -0.453125,0 -0.78125,0.10938 -0.328125,0.0937 -0.546875,0.28125 -0.203125,0.17187 -0.296875,0.42187 -0.09375,0.23438 -0.09375,0.53125 0,0.28125 0.125,0.51563 0.140625,0.23437 0.390625,0.35937 0.25,0.125 0.578125,0.125 0.515625,0 0.890625,-0.20312 0.375,-0.20313 0.578125,-0.5 0.203125,-0.29688 0.21875,-0.5625 l 0.59375,0.95312 q -0.125,0.32813 -0.34375,0.67188 -0.21875,0.34375 -0.546875,0.64062 -0.328125,0.29688 -0.796875,0.5 -0.453125,0.1875 -1.078125,0.1875 -0.8125,0 -1.46875,-0.32812 -0.640625,-0.32813 -1.03125,-0.89063 -0.375,-0.57812 -0.375,-1.3125 0,-0.67187 0.25,-1.1875 0.25,-0.51562 0.734375,-0.85937 0.5,-0.35938 1.234375,-0.54688 0.734375,-0.1875 1.703125,-0.1875 z m 5.953125,-1.54687 v 6.70312 h -2.25 v -8.45312 h 2.109375 z m -0.3125,2.17187 h -0.625 q 0,-0.875 0.21875,-1.625 0.21875,-0.75 0.625,-1.29687 0.421875,-0.54688 1.03125,-0.84375 0.625,-0.3125 1.4375,-0.3125 0.5625,0 1.03125,0.17187 0.46875,0.15625 0.8125,0.51563 0.34375,0.35937 0.53125,0.92187 0.1875,0.5625 0.1875,1.35938 v 5.64062 h -2.25 v -5.39062 q 0,-0.57813 -0.15625,-0.89063 -0.15625,-0.3125 -0.453125,-0.4375 -0.28125,-0.125 -0.671875,-0.125 -0.4375,0 -0.765625,0.1875 -0.328125,0.17188 -0.546875,0.48438 -0.203125,0.3125 -0.3125,0.73437 -0.09375,0.42188 -0.09375,0.90625 z m 5.03125,-0.25 -0.796875,0.0937 q 0,-0.82812 0.203125,-1.53125 0.203125,-0.71875 0.609375,-1.25 0.421875,-0.54687 1.03125,-0.84375 0.609375,-0.29687 1.40625,-0.29687 0.609375,0 1.109375,0.17187 0.5,0.17188 0.84375,0.5625 0.359375,0.375 0.546875,0.98438 0.203125,0.60937 0.203125,1.48437 v 5.40625 H 85.33371 v -5.40625 q 0,-0.57812 -0.15625,-0.89062 -0.140625,-0.3125 -0.4375,-0.42188 -0.28125,-0.125 -0.671875,-0.125 -0.40625,0 -0.71875,0.15625 -0.296875,0.15625 -0.5,0.4375 -0.203125,0.28125 -0.3125,0.65625 -0.09375,0.375 -0.09375,0.8125 z m 9.265625,-3.67187 v 8.45312 h -2.25 v -8.45312 z m -2.390625,-2.20313 q 0,-0.5 0.34375,-0.8125 0.34375,-0.32812 0.921875,-0.32812 0.5625,0 0.90625,0.32812 0.359375,0.3125 0.359375,0.8125 0,0.48438 -0.359375,0.8125 -0.34375,0.3125 -0.90625,0.3125 -0.578125,0 -0.921875,-0.3125 -0.34375,-0.32812 -0.34375,-0.8125 z m 8.140625,10.8125 q -0.984375,0 -1.765625,-0.3125 -0.78125,-0.32812 -1.328125,-0.89062 -0.53125,-0.5625 -0.828125,-1.29688 -0.28125,-0.75 -0.28125,-1.59375 v -0.3125 q 0,-0.96875 0.265625,-1.76562 0.28125,-0.79688 0.78125,-1.375 0.515625,-0.59375 1.25,-0.90625 0.734375,-0.3125 1.65625,-0.3125 0.90625,0 1.59375,0.29687 0.703125,0.29688 1.171875,0.84375 0.468745,0.54688 0.703125,1.3125 0.25,0.75 0.25,1.6875 v 0.9375 h -6.71875 v -1.5 h 4.515625 v -0.17187 q 0,-0.46875 -0.171875,-0.84375 -0.171875,-0.375 -0.515625,-0.59375 -0.328125,-0.21875 -0.84375,-0.21875 -0.453125,0 -0.78125,0.20312 -0.3125,0.1875 -0.515625,0.54688 -0.1875,0.34375 -0.296875,0.82812 -0.09375,0.46875 -0.09375,1.03125 v 0.3125 q 0,0.5 0.140625,0.9375 0.15625,0.42188 0.421875,0.73438 0.265625,0.3125 0.65625,0.48437 0.390625,0.17188 0.875,0.17188 0.609375,0 1.140625,-0.23438 0.53125,-0.23437 0.90625,-0.71875 l 1.09375,1.1875 q -0.26563,0.375 -0.71875,0.73438 -0.453125,0.34375 -1.09375,0.57812 -0.640625,0.21875 -1.46875,0.21875 z m 6.95312,-6.8125 v 6.65625 h -2.25 v -8.45312 h 2.10938 z m -0.32812,2.125 h -0.60938 q 0,-0.9375 0.23438,-1.6875 0.25,-0.75 0.6875,-1.28125 0.4375,-0.54687 1.04687,-0.82812 0.60938,-0.28125 1.35938,-0.28125 0.59375,0 1.07812,0.17187 0.5,0.17188 0.84375,0.54688 0.35938,0.375 0.54688,1 0.20312,0.60937 0.20312,1.5 v 5.39062 h -2.26562 v -5.40625 q 0,-0.5625 -0.15625,-0.875 -0.15625,-0.3125 -0.46875,-0.4375 -0.29688,-0.125 -0.73438,-0.125 -0.45312,0 -0.78125,0.1875 -0.32812,0.17188 -0.54687,0.48438 -0.21875,0.3125 -0.32813,0.73437 -0.10937,0.42188 -0.10937,0.90625 z m 11.23437,-3.92187 v 1.59375 h -4.92187 v -1.59375 z m -3.70312,-2.09375 h 2.25 v 8 q 0,0.35937 0.0937,0.5625 0.10937,0.1875 0.29687,0.26562 0.20313,0.0781 0.5,0.0781 0.20313,0 0.375,-0.0156 0.17188,-0.0312 0.28125,-0.0469 l 0.0156,1.65625 q -0.29688,0.0937 -0.64063,0.14062 -0.32812,0.0625 -0.73437,0.0625 -0.73438,0 -1.29688,-0.25 -0.54687,-0.25 -0.84375,-0.79687 -0.29687,-0.54688 -0.29687,-1.4375 z m 4.40625,6.40625 v -0.17188 q 0,-0.92187 0.26562,-1.70312 0.26563,-0.79688 0.76563,-1.375 0.51562,-0.57813 1.25,-0.89063 0.75,-0.32812 1.71875,-0.32812 0.95312,0 1.70312,0.32812 0.75,0.3125 1.26563,0.89063 0.51562,0.57812 0.78125,1.375 0.26562,0.78125 0.26562,1.70312 v 0.17188 q 0,0.92187 -0.26562,1.70312 -0.26563,0.78125 -0.78125,1.375 -0.51563,0.57813 -1.26563,0.90625 -0.73437,0.3125 -1.6875,0.3125 -0.96875,0 -1.71875,-0.3125 -0.73437,-0.32812 -1.25,-0.90625 -0.51562,-0.59375 -0.78125,-1.375 -0.26562,-0.78125 -0.26562,-1.70312 z m 2.25,-0.17188 v 0.17188 q 0,0.53125 0.0937,1 0.0937,0.45312 0.29687,0.79687 0.21875,0.34375 0.54688,0.54688 0.34375,0.1875 0.82812,0.1875 0.46875,0 0.79688,-0.1875 0.34375,-0.20313 0.54687,-0.54688 0.20313,-0.34375 0.29688,-0.79687 0.0937,-0.46875 0.0937,-1 v -0.17188 q 0,-0.51562 -0.0937,-0.96875 -0.0937,-0.45312 -0.3125,-0.8125 -0.20313,-0.35937 -0.54688,-0.5625 -0.32812,-0.20312 -0.79687,-0.20312 -0.48438,0 -0.8125,0.20312 -0.32813,0.20313 -0.54688,0.5625 -0.20312,0.35938 -0.29687,0.8125 -0.0937,0.45313 -0.0937,0.96875 z m 16.11719,2.46875 v -10.15625 h 2.26562 v 12 h -2.04687 z m -5.34375,-2.28125 v -0.17187 q 0,-0.96875 0.21875,-1.75 0.21875,-0.79688 0.64062,-1.35938 0.42188,-0.57812 1.03125,-0.89062 0.625,-0.3125 1.40625,-0.3125 0.75,0 1.29688,0.3125 0.5625,0.3125 0.95312,0.89062 0.40625,0.5625 0.64063,1.34375 0.25,0.78125 0.35937,1.70313 v 0.35937 q -0.10937,0.875 -0.35937,1.64063 -0.23438,0.75 -0.64063,1.32812 -0.39062,0.5625 -0.95312,0.875 -0.5625,0.3125 -1.3125,0.3125 -0.78125,0 -1.40625,-0.3125 -0.60938,-0.32812 -1.03125,-0.90625 -0.40625,-0.57812 -0.625,-1.35937 -0.21875,-0.78125 -0.21875,-1.70313 z m 2.25,-0.17187 v 0.17187 q 0,0.51563 0.0781,0.96875 0.0781,0.45313 0.26563,0.8125 0.20312,0.34375 0.5,0.53125 0.3125,0.1875 0.76562,0.1875 0.57813,0 0.95313,-0.25 0.375,-0.26562 0.5625,-0.71875 0.20312,-0.46875 0.23437,-1.07812 v -1.01563 q -0.0156,-0.5 -0.14062,-0.89062 -0.10938,-0.39063 -0.32813,-0.67188 -0.20312,-0.28125 -0.53125,-0.4375 -0.3125,-0.15625 -0.73437,-0.15625 -0.4375,0 -0.75,0.20313 -0.3125,0.1875 -0.51563,0.53125 -0.1875,0.34375 -0.28125,0.8125 -0.0781,0.46875 -0.0781,1 z m 10.99219,4.45312 q -0.98438,0 -1.76563,-0.3125 -0.78125,-0.32812 -1.32812,-0.89062 -0.53125,-0.5625 -0.82813,-1.29688 -0.28125,-0.75 -0.28125,-1.59375 v -0.3125 q 0,-0.96875 0.26563,-1.76562 0.28125,-0.79688 0.78125,-1.375 0.51562,-0.59375 1.25,-0.90625 0.73437,-0.3125 1.65625,-0.3125 0.90625,0 1.59375,0.29687 0.70312,0.29688 1.17187,0.84375 0.46875,0.54688 0.70313,1.3125 0.25,0.75 0.25,1.6875 v 0.9375 h -6.71875 v -1.5 h 4.51562 v -0.17187 q 0,-0.46875 -0.17187,-0.84375 -0.17188,-0.375 -0.51563,-0.59375 -0.32812,-0.21875 -0.84375,-0.21875 -0.45312,0 -0.78125,0.20312 -0.3125,0.1875 -0.51562,0.54688 -0.1875,0.34375 -0.29688,0.82812 -0.0937,0.46875 -0.0937,1.03125 v 0.3125 q 0,0.5 0.14063,0.9375 0.15625,0.42188 0.42187,0.73438 0.26563,0.3125 0.65625,0.48437 0.39063,0.17188 0.875,0.17188 0.60938,0 1.14063,-0.23438 0.53125,-0.23437 0.90625,-0.71875 l 1.09375,1.1875 q -0.26563,0.375 -0.71875,0.73438 -0.45313,0.34375 -1.09375,0.57812 -0.64063,0.21875 -1.46875,0.21875 z m 16.46093,-6.90625 v 1.82813 h -5.9375 v -1.82813 z m -5.25,-4.625 v 11.375 h -2.34375 v -11.375 z m 6.92188,0 v 11.375 h -2.34375 v -11.375 z m 6.89844,0 v 11.375 h -2.34375 v -11.375 z m 3.5,0 v 1.82813 h -9.28125 v -1.82813 z m 2.39843,0 h 1.98438 l 2.92187,8.34375 2.92188,-8.34375 h 1.98437 l -4.10937,11.375 h -1.59375 z m -1.07812,0 h 1.98437 l 0.35938,8.14063 v 3.23437 h -2.34375 z m 9.98437,0 h 1.98438 v 11.375 h -2.34375 v -3.23437 z m 11.33594,9.54688 v 1.82812 h -5.71875 v -1.82812 z m -4.96875,-9.54688 v 11.375 h -2.34375 v -11.375 z"
     fill-rule="nonzero"
     id="path34"
     clip-path="url(#clipPath39)"
     transform="translate(0,-241.00525)" />
  <path
     fill="#000000"
     fill-opacity="0"
     d="M 240,241.00525 V 538.89502"
     fill-rule="evenodd"
     id="path35"
     clip-path="url(#clipPath38)"
     transform="translate(0,-241.00525)" />
  <path
     stroke="#83e3d9"
     stroke-width="1"
     stroke-linejoin="round"
     stroke-linecap="butt"
     stroke-dasharray="1, 3"
     d="M 240,241.00525 V 538.89502"
     fill-rule="evenodd"
     id="path36"
     clip-path="url(#clipPath37)"
     transform="translate(0,-241.00525)" />
</svg>
