<?xml version="1.0" encoding="UTF-8" standalone="no"?>
<svg
   version="1.1"
   viewBox="0 0 759.42304 163.10934"
   fill="none"
   stroke="none"
   stroke-linecap="square"
   stroke-miterlimit="10"
   id="svg24"
   sodipodi:docname="Sintaxis.svg"
   width="759.42303"
   height="163.10934"
   inkscape:version="1.3.2 (091e20ef0f, 2023-11-25)"
   xmlns:inkscape="http://www.inkscape.org/namespaces/inkscape"
   xmlns:sodipodi="http://sodipodi.sourceforge.net/DTD/sodipodi-0.dtd"
   xmlns="http://www.w3.org/2000/svg"
   xmlns:svg="http://www.w3.org/2000/svg">
  <defs
     id="defs24">
    <clipPath
       clipPathUnits="userSpaceOnUse"
       id="clipPath25">
      <g
         id="g26">
        <path
           d="M 0,0 H 960 V 540 H 0 Z"
           clip-rule="nonzero"
           id="path25" />
      </g>
    </clipPath>
    <clipPath
       clipPathUnits="userSpaceOnUse"
       id="clipPath26">
      <g
         id="g27">
        <path
           d="M 0,0 H 960 V 540 H 0 Z"
           clip-rule="nonzero"
           id="path26" />
      </g>
    </clipPath>
    <clipPath
       clipPathUnits="userSpaceOnUse"
       id="clipPath27">
      <g
         id="g28">
        <path
           d="M 0,0 H 960 V 540 H 0 Z"
           clip-rule="nonzero"
           id="path27" />
      </g>
    </clipPath>
    <clipPath
       clipPathUnits="userSpaceOnUse"
       id="clipPath28">
      <g
         id="g29">
        <path
           d="M 0,0 H 960 V 540 H 0 Z"
           clip-rule="nonzero"
           id="path28" />
      </g>
    </clipPath>
    <clipPath
       clipPathUnits="userSpaceOnUse"
       id="clipPath29">
      <g
         id="g30">
        <path
           d="M 0,0 H 960 V 540 H 0 Z"
           clip-rule="nonzero"
           id="path29" />
      </g>
    </clipPath>
    <clipPath
       clipPathUnits="userSpaceOnUse"
       id="clipPath30">
      <g
         id="g31">
        <path
           d="M 0,0 H 960 V 540 H 0 Z"
           clip-rule="nonzero"
           id="path30" />
      </g>
    </clipPath>
    <clipPath
       clipPathUnits="userSpaceOnUse"
       id="clipPath31">
      <g
         id="g32">
        <path
           d="M 0,0 H 960 V 540 H 0 Z"
           clip-rule="nonzero"
           id="path31" />
      </g>
    </clipPath>
    <clipPath
       clipPathUnits="userSpaceOnUse"
       id="clipPath32">
      <g
         id="g33">
        <path
           d="M 0,0 H 960 V 540 H 0 Z"
           clip-rule="nonzero"
           id="path32" />
      </g>
    </clipPath>
    <clipPath
       clipPathUnits="userSpaceOnUse"
       id="clipPath33">
      <g
         id="g34">
        <path
           d="M 0,0 H 960 V 540 H 0 Z"
           clip-rule="nonzero"
           id="path33" />
      </g>
    </clipPath>
    <clipPath
       clipPathUnits="userSpaceOnUse"
       id="clipPath34">
      <g
         id="g35">
        <path
           d="M 0,0 H 960 V 540 H 0 Z"
           clip-rule="nonzero"
           id="path34" />
      </g>
    </clipPath>
    <clipPath
       clipPathUnits="userSpaceOnUse"
       id="clipPath35">
      <g
         id="g36">
        <path
           d="M 0,0 H 960 V 540 H 0 Z"
           clip-rule="nonzero"
           id="path35" />
      </g>
    </clipPath>
    <clipPath
       clipPathUnits="userSpaceOnUse"
       id="clipPath36">
      <g
         id="g37">
        <path
           d="M 0,0 H 960 V 540 H 0 Z"
           clip-rule="nonzero"
           id="path36" />
      </g>
    </clipPath>
    <clipPath
       clipPathUnits="userSpaceOnUse"
       id="clipPath37">
      <g
         id="g38">
        <path
           d="M 0,0 H 960 V 540 H 0 Z"
           clip-rule="nonzero"
           id="path37" />
      </g>
    </clipPath>
    <clipPath
       clipPathUnits="userSpaceOnUse"
       id="clipPath38">
      <g
         id="g39">
        <path
           d="M 0,0 H 960 V 540 H 0 Z"
           clip-rule="nonzero"
           id="path38" />
      </g>
    </clipPath>
    <clipPath
       clipPathUnits="userSpaceOnUse"
       id="clipPath39">
      <g
         id="g40">
        <path
           d="M 0,0 H 960 V 540 H 0 Z"
           clip-rule="nonzero"
           id="path39" />
      </g>
    </clipPath>
    <clipPath
       clipPathUnits="userSpaceOnUse"
       id="clipPath40">
      <g
         id="g41">
        <path
           d="M 0,0 H 960 V 540 H 0 Z"
           clip-rule="nonzero"
           id="path40" />
      </g>
    </clipPath>
    <clipPath
       clipPathUnits="userSpaceOnUse"
       id="clipPath41">
      <g
         id="g42">
        <path
           d="M 0,0 H 960 V 540 H 0 Z"
           clip-rule="nonzero"
           id="path41" />
      </g>
    </clipPath>
    <clipPath
       clipPathUnits="userSpaceOnUse"
       id="clipPath42">
      <g
         id="g43">
        <path
           d="M 0,0 H 960 V 540 H 0 Z"
           clip-rule="nonzero"
           id="path42" />
      </g>
    </clipPath>
    <clipPath
       clipPathUnits="userSpaceOnUse"
       id="clipPath43">
      <g
         id="g44">
        <path
           d="M 0,0 H 960 V 540 H 0 Z"
           clip-rule="nonzero"
           id="path43" />
      </g>
    </clipPath>
    <clipPath
       clipPathUnits="userSpaceOnUse"
       id="clipPath44">
      <g
         id="g45">
        <path
           d="M 0,0 H 960 V 540 H 0 Z"
           clip-rule="nonzero"
           id="path44" />
      </g>
    </clipPath>
    <clipPath
       clipPathUnits="userSpaceOnUse"
       id="clipPath45">
      <g
         id="g46">
        <path
           d="M 0,0 H 960 V 540 H 0 Z"
           clip-rule="nonzero"
           id="path45" />
      </g>
    </clipPath>
    <clipPath
       clipPathUnits="userSpaceOnUse"
       id="clipPath46">
      <g
         id="g47">
        <path
           d="M 0,0 H 960 V 540 H 0 Z"
           clip-rule="nonzero"
           id="path46" />
      </g>
    </clipPath>
    <clipPath
       clipPathUnits="userSpaceOnUse"
       id="clipPath47">
      <g
         id="g48">
        <path
           d="M 0,0 H 960 V 540 H 0 Z"
           clip-rule="nonzero"
           id="path47" />
      </g>
    </clipPath>
  </defs>
  <sodipodi:namedview
     id="namedview24"
     pagecolor="#ffffff"
     bordercolor="#000000"
     borderopacity="0.25"
     inkscape:showpageshadow="2"
     inkscape:pageopacity="0.0"
     inkscape:pagecheckerboard="0"
     inkscape:deskcolor="#d1d1d1"
     inkscape:zoom="0.376955"
     inkscape:cx="358.13294"
     inkscape:cy="-84.89077"
     inkscape:window-width="952"
     inkscape:window-height="990"
     inkscape:window-x="0"
     inkscape:window-y="0"
     inkscape:window-maximized="0"
     inkscape:current-layer="svg24" />
  <path
     fill="#e91d63"
     d="m 53.552536,239.0911 -8.953125,-6.0625 v -1.5 l 8.953125,-6.0625 v 1.89062 l -7.21875,4.875 v 0.0937 l 7.21875,4.875 z"
     fill-rule="nonzero"
     id="path8"
     clip-path="url(#clipPath41)"
     transform="translate(-43.646286,-223.05985)" />
  <path
     fill="#9c26b0"
     d="m 64.04625,240.5286 q -1.75,0 -3.1875,-0.71875 -1.421875,-0.71875 -2.265625,-2.09375 -0.84375,-1.375 -0.84375,-3.32813 0,-1.89062 0.84375,-3.25 0.84375,-1.375 2.203125,-2.10937 1.359375,-0.73438 2.90625,-0.73438 1.6875,0 2.875,0.6875 1.1875,0.6875 1.8125,1.90625 0.640625,1.21875 0.640625,2.875 0,0.34375 -0.03125,0.65625 -0.01563,0.3125 -0.0625,0.54688 H 59.0775 v -1.53125 h 8.6875 l -0.5,0.54687 q 0,-2.0625 -0.953125,-3.09375 -0.953125,-1.03125 -2.5625,-1.03125 -1.078125,0 -2,0.53125 -0.921875,0.51563 -1.484375,1.53125 -0.546875,1.01563 -0.546875,2.46875 0,1.51563 0.59375,2.53125 0.609375,1 1.640625,1.51563 1.03125,0.51562 2.328125,0.51562 1.0625,0 1.90625,-0.29687 0.859375,-0.29688 1.65625,-0.8125 l 0.71875,1.29687 q -0.875,0.57813 -1.984375,0.98438 -1.109375,0.40625 -2.53125,0.40625 z m 15.931213,0 q -1.703125,0 -2.6875,-0.60938 -0.984375,-0.60937 -1.40625,-1.6875 -0.421875,-1.07812 -0.421875,-2.51562 v -5.53125 h -3.28125 v -1.48438 l 3.359375,-0.10937 0.265625,-3.75 h 1.625 v 3.75 h 5.734375 v 1.59375 h -5.734375 v 5.54687 q 0,1.03125 0.265625,1.75 0.265625,0.71875 0.90625,1.09375 0.65625,0.35938 1.78125,0.35938 0.84375,0 1.515625,-0.14063 0.671875,-0.15625 1.296875,-0.39062 l 0.4375,1.4375 q -0.796875,0.28125 -1.671875,0.48437 -0.875,0.20313 -1.984375,0.20313 z m 12.524963,-0.28125 v -10.0625 h -5.421875 v -1.59375 h 7.390625 v 11.65625 z m 0.78125,-14.10938 q -0.671875,0 -1.140625,-0.42187 -0.453125,-0.42188 -0.453125,-1.10938 0,-0.70312 0.453125,-1.125 0.46875,-0.42187 1.140625,-0.42187 0.671875,0 1.125,0.42187 0.453125,0.42188 0.453125,1.125 0,0.6875 -0.453125,1.10938 -0.453125,0.42187 -1.125,0.42187 z m 16.243714,19.03125 v -4.25 l 0.0937,-2.15625 h -0.0781 q -0.6875,0.73438 -1.67187,1.25 -0.98438,0.51563 -2.0625,0.51563 -2.26563,0 -3.65625,-1.59375 -1.39063,-1.59375 -1.39063,-4.5 0,-1.89063 0.75,-3.26563 0.76563,-1.39062 1.96875,-2.125 1.21875,-0.75 2.59375,-0.75 1.04688,0 1.90625,0.40625 0.875,0.39063 1.6875,1.17188 h 0.0781 l 0.15625,-1.28125 h 1.59375 v 16.57812 z m -3.29688,-6.29687 q 0.875,0 1.6875,-0.4375 0.8125,-0.4375 1.60938,-1.3125 v -5.79688 q -0.79688,-0.75 -1.5625,-1.0625 -0.75,-0.3125 -1.51563,-0.3125 -1,0 -1.82812,0.5625 -0.82813,0.5625 -1.32813,1.5625 -0.48437,1 -0.48437,2.34375 0,2.07813 0.90625,3.26563 0.90625,1.1875 2.51562,1.1875 z m 13.39997,1.65625 q -2.09375,0 -3.07813,-1.1875 -0.98437,-1.20313 -0.98437,-3.51563 v -7.23437 h 2 v 6.96875 q 0,1.65625 0.60937,2.46875 0.60938,0.79687 2.07813,0.79687 1,0 1.82812,-0.51562 0.82813,-0.51563 1.79688,-1.64063 v -8.07812 h 1.96875 v 11.65625 h -1.60938 l -0.17187,-2.04688 h -0.0937 q -0.89063,1.01563 -1.95313,1.67188 -1.04687,0.65625 -2.39062,0.65625 z m 16.41558,0 q -1.75,0 -3.1875,-0.71875 -1.42187,-0.71875 -2.26562,-2.09375 -0.84375,-1.375 -0.84375,-3.32813 0,-1.89062 0.84375,-3.25 0.84375,-1.375 2.20312,-2.10937 1.35938,-0.73438 2.90625,-0.73438 1.6875,0 2.875,0.6875 1.1875,0.6875 1.8125,1.90625 0.64063,1.21875 0.64063,2.875 0,0.34375 -0.0312,0.65625 -0.0156,0.3125 -0.0625,0.54688 h -9.85938 v -1.53125 h 8.6875 l -0.5,0.54687 q 0,-2.0625 -0.95312,-3.09375 -0.95313,-1.03125 -2.5625,-1.03125 -1.07813,0 -2,0.53125 -0.92188,0.51563 -1.48438,1.53125 -0.54687,1.01563 -0.54687,2.46875 0,1.51563 0.59375,2.53125 0.60937,1 1.64062,1.51563 1.03125,0.51562 2.32813,0.51562 1.0625,0 1.90625,-0.29687 0.85937,-0.29688 1.65625,-0.8125 l 0.71875,1.29687 q -0.875,0.57813 -1.98438,0.98438 -1.10937,0.40625 -2.53125,0.40625 z m 15.93122,0 q -1.70313,0 -2.6875,-0.60938 -0.98438,-0.60937 -1.40625,-1.6875 -0.42188,-1.07812 -0.42188,-2.51562 v -5.53125 h -3.28125 v -1.48438 l 3.35938,-0.10937 0.26562,-3.75 h 1.625 v 3.75 h 5.73438 v 1.59375 h -5.73438 v 5.54687 q 0,1.03125 0.26563,1.75 0.26562,0.71875 0.90625,1.09375 0.65625,0.35938 1.78125,0.35938 0.84375,0 1.51562,-0.14063 0.67188,-0.15625 1.29688,-0.39062 l 0.4375,1.4375 q -0.79688,0.28125 -1.67188,0.48437 -0.875,0.20313 -1.98437,0.20313 z m 10.85309,0 q -1.07813,0 -2,-0.39063 -0.90625,-0.39062 -1.4375,-1.125 -0.53125,-0.75 -0.53125,-1.79687 0,-1.95313 1.96875,-2.96875 1.96875,-1.03125 6.48437,-1.39063 -0.0156,-0.79687 -0.32812,-1.46875 -0.29688,-0.67187 -0.96875,-1.0625 -0.67188,-0.39062 -1.79688,-0.39062 -0.75,0 -1.48437,0.20312 -0.71875,0.20313 -1.39063,0.53125 -0.65625,0.3125 -1.20312,0.65625 l -0.76563,-1.34375 q 0.57813,-0.39062 1.40625,-0.78125 0.82813,-0.40625 1.78125,-0.65625 0.95313,-0.25 1.98438,-0.25 1.60937,0 2.65625,0.60938 1.04687,0.59375 1.5625,1.67187 0.51562,1.0625 0.51562,2.51563 v 7.15625 h -1.60937 l -0.17188,-1.57813 h -0.0625 q -0.96875,0.76563 -2.17187,1.3125 -1.1875,0.54688 -2.4375,0.54688 z m 0.53125,-1.57813 q 1,0 1.98437,-0.45312 0.98438,-0.45313 1.96875,-1.28125 v -3.0625 q -2.5,0.21875 -3.92187,0.60937 -1.42188,0.375 -2.01563,0.96875 -0.59375,0.57813 -0.59375,1.34375 0,0.65625 0.35938,1.07813 0.35937,0.40625 0.95312,0.60937 0.59375,0.1875 1.26563,0.1875 z"
     fill-rule="nonzero"
     id="path9"
     clip-path="url(#clipPath40)"
     transform="translate(-43.646286,-223.05985)" />
  <path
     fill="#01afd1"
     d="m 190.97404,240.5286 q -1.8125,0 -2.90625,-1.125 -1.09375,-1.14063 -1.09375,-3.32813 0,-1.59375 0.48437,-2.98437 0.5,-1.39063 1.39063,-2.46875 0.89062,-1.07813 2.03125,-1.70313 1.15625,-0.625 2.5,-0.625 1.25,0 2.17187,0.48438 0.92188,0.48437 1.40625,1.26562 h 0.0937 l 0.45313,-1.45312 h 1.48437 l -2.32812,11.65625 h -1.5 l 0.1875,-1.78125 h -0.0937 q -0.92188,0.9375 -2.03125,1.5 -1.10938,0.5625 -2.25,0.5625 z m 0.5625,-1.53125 q 0.95312,0 2,-0.57813 1.04687,-0.57812 2,-1.67187 l 1.07812,-5.1875 q -0.59375,-0.9375 -1.39062,-1.32813 -0.78125,-0.40625 -1.60938,-0.40625 -0.98437,0 -1.85937,0.5 -0.875,0.48438 -1.53125,1.3125 -0.64063,0.82813 -1,1.92188 -0.35938,1.07812 -0.35938,2.21875 0,1.64062 0.73438,2.4375 0.73437,0.78125 1.9375,0.78125 z m 15.96246,1.53125 q -1.82812,0 -2.70312,-0.92188 -0.85938,-0.92187 -0.85938,-2.40625 0,-0.39062 0.0625,-0.75 0.0625,-0.35937 0.14063,-0.76562 l 1.14062,-5.60938 h -3.375 l 0.26563,-1.375 3.5,-0.10937 0.85937,-3.21875 h 1.5625 l -0.67187,3.21875 h 5.76562 l -0.3125,1.48437 h -5.76562 l -1.17188,5.65625 q -0.0781,0.3125 -0.10937,0.5625 -0.0156,0.25 -0.0156,0.51563 0,1.10937 0.57813,1.65625 0.59375,0.53125 1.57812,0.53125 0.875,0 1.64063,-0.25 0.76562,-0.25 1.39062,-0.59375 l 0.59375,1.32812 q -0.73437,0.45313 -1.8125,0.75 -1.0625,0.29688 -2.28125,0.29688 z m 9.35309,-0.28125 2.32813,-11.65625 h 1.51562 l -0.51562,3.32812 h 0.10937 q 0.64063,-0.98437 1.46875,-1.8125 0.82813,-0.82812 1.76563,-1.3125 0.95312,-0.5 1.96875,-0.5 0.79687,0 1.375,0.15625 0.59375,0.15625 0.96875,0.4375 l -0.71875,1.59375 q -0.42188,-0.29687 -0.89063,-0.39062 -0.46875,-0.10938 -1.04687,-0.10938 -1.34375,0 -2.70313,1.15625 -1.35937,1.14063 -2.57812,3.03125 l -1.21875,6.07813 z m 20.39996,0.28125 q -1.39062,0 -2.26562,-0.73438 -0.875,-0.75 -0.875,-2.1875 0,-0.28125 0.0469,-0.60937 0.0469,-0.32813 0.14063,-0.65625 l 1.39062,-6.26563 h -4.26562 l 0.3125,-1.48437 h 6.09375 l -1.75,7.90625 q -0.0312,0.21875 -0.0625,0.40625 -0.0312,0.17187 -0.0312,0.375 0,0.90625 0.5,1.3125 0.5,0.40625 1.29687,0.40625 0.54688,0 1.07813,-0.15625 0.53125,-0.17188 1.15625,-0.46875 l 0.42187,1.39062 q -0.73437,0.34375 -1.48437,0.54688 -0.75,0.21875 -1.70313,0.21875 z m -0.125,-14.42188 q -0.54687,0 -0.95312,-0.32812 -0.40625,-0.34375 -0.40625,-0.9375 0,-0.45313 0.21875,-0.82813 0.23437,-0.39062 0.60937,-0.60937 0.39063,-0.21875 0.82813,-0.21875 0.64062,0 1.01562,0.34375 0.375,0.32812 0.375,0.92187 0,0.70313 -0.5,1.1875 -0.48437,0.46875 -1.1875,0.46875 z m 12.68122,14.42188 q -1.15625,0 -2.09375,-0.5 -0.9375,-0.5 -1.48438,-1.25 h -0.0781 l -0.42188,1.46875 h -1.54687 l 3.40625,-17.09375 h 1.85937 l -0.9375,4.5625 -0.625,2.57812 h 0.0625 q 0.89063,-0.82812 2,-1.40625 1.125,-0.59375 2.25,-0.59375 1.875,0 2.9375,1.20313 1.07811,1.20312 1.07811,3.4375 0,1.54687 -0.48436,2.95312 -0.48437,1.39063 -1.35937,2.4375 -0.875,1.03125 -2.04688,1.625 -1.15625,0.57813 -2.51562,0.57813 z m -0.20313,-1.53125 q 1.03125,0 1.89063,-0.45313 0.85937,-0.45312 1.48437,-1.25 0.64063,-0.8125 0.98438,-1.85937 0.34375,-1.0625 0.34375,-2.25 0,-1.70313 -0.73438,-2.53125 -0.71875,-0.82813 -1.96875,-0.82813 -0.89062,0 -1.95312,0.60938 -1.04688,0.59375 -1.98438,1.65625 l -1.0625,5.23437 q 0.625,0.90625 1.40625,1.29688 0.78125,0.375 1.59375,0.375 z m 12.4937,1.53125 q -1.5625,0 -2.29687,-0.79688 -0.73438,-0.79687 -0.73438,-2.09375 0,-0.53125 0.0625,-0.98437 0.0625,-0.46875 0.15625,-0.9375 l 1.4375,-7.125 h 1.82813 l -1.39063,6.92187 q -0.0781,0.4375 -0.15625,0.84375 -0.0625,0.39063 -0.0625,0.79688 0,0.85937 0.46875,1.32812 0.48438,0.46875 1.375,0.46875 1.17188,0 2.375,-0.75 1.20313,-0.76562 2.375,-2.07812 l 1.51563,-7.53125 h 1.84375 l -2.32813,11.65625 h -1.5 l 0.29688,-2.375 h -0.0937 q -0.71875,0.6875 -1.53125,1.3125 -0.79688,0.60937 -1.70313,0.98437 -0.90625,0.35938 -1.9375,0.35938 z m 17.39996,0 q -1.82812,0 -2.70312,-0.92188 -0.85938,-0.92187 -0.85938,-2.40625 0,-0.39062 0.0625,-0.75 0.0625,-0.35937 0.14063,-0.76562 l 1.14062,-5.60938 h -3.375 l 0.26563,-1.375 3.5,-0.10937 0.85937,-3.21875 h 1.5625 l -0.67187,3.21875 h 5.76562 l -0.3125,1.48437 h -5.76562 l -1.17188,5.65625 q -0.0781,0.3125 -0.10937,0.5625 -0.0156,0.25 -0.0156,0.51563 0,1.10937 0.57813,1.65625 0.59375,0.53125 1.57812,0.53125 0.875,0 1.64063,-0.25 0.76562,-0.25 1.39062,-0.59375 l 0.59375,1.32812 q -0.73437,0.45313 -1.8125,0.75 -1.0625,0.29688 -2.28125,0.29688 z m 13.02497,0 q -1.53125,0 -2.625,-0.64063 -1.09375,-0.65625 -1.6875,-1.79687 -0.57813,-1.15625 -0.57813,-2.67188 0,-1.53125 0.53125,-2.82812 0.54688,-1.29688 1.48438,-2.26563 0.9375,-0.96875 2.14062,-1.5 1.21875,-0.53125 2.5625,-0.53125 1.51563,0 2.59375,0.65625 1.09375,0.64063 1.6875,1.79688 0.59375,1.14062 0.59375,2.65625 0,1.51562 -0.54687,2.82812 -0.54688,1.29688 -1.48438,2.26563 -0.92187,0.95312 -2.125,1.5 -1.20312,0.53125 -2.54687,0.53125 z m 0.125,-1.53125 q 0.9375,0 1.78125,-0.42188 0.85937,-0.4375 1.51562,-1.17187 0.65625,-0.75 1.03125,-1.75 0.39063,-1 0.39063,-2.125 0,-1.70313 -0.84375,-2.70313 -0.82813,-1 -2.3125,-1 -0.92188,0 -1.78125,0.4375 -0.84375,0.4375 -1.5,1.1875 -0.65625,0.73438 -1.04688,1.73438 -0.39062,0.98437 -0.39062,2.125 0,1.70312 0.84375,2.70312 0.84375,0.98438 2.3125,0.98438 z m 14.75933,1.53125 q -1.01562,0 -1.98437,-0.26563 -0.96875,-0.25 -1.79688,-0.73437 -0.82812,-0.48438 -1.39062,-1.125 l 1.0625,-1.1875 q 0.85937,0.96875 2.01562,1.42187 1.17188,0.45313 2.42188,0.45313 1.23437,0 2.03125,-0.4375 0.79687,-0.45313 0.79687,-1.40625 0,-0.57813 -0.35937,-0.9375 -0.35938,-0.375 -1.04688,-0.65625 -0.67187,-0.29688 -1.65625,-0.64063 -1.82812,-0.59375 -2.67187,-1.39062 -0.82813,-0.8125 -0.82813,-2.01563 0,-1.125 0.59375,-1.85937 0.59375,-0.73438 1.57813,-1.09375 0.98437,-0.35938 2.1875,-0.35938 1.6875,0 2.90625,0.57813 1.21875,0.57812 1.96875,1.3125 l -1.03125,1.14062 q -0.71875,-0.625 -1.71875,-1.10937 -1,-0.48438 -2.3125,-0.48438 -1.125,0 -1.78125,0.45313 -0.64063,0.4375 -0.64063,1.20312 0,0.8125 0.73438,1.28125 0.75,0.45313 2.14062,0.9375 1.07813,0.35938 1.92188,0.79688 0.84375,0.42187 1.3125,1.04687 0.46875,0.625 0.46875,1.5625 0,1.25 -0.67188,2.03125 -0.65625,0.76563 -1.78125,1.125 -1.10937,0.35938 -2.46875,0.35938 z"
     fill-rule="nonzero"
     id="path10"
     clip-path="url(#clipPath39)"
     transform="translate(-43.646286,-223.05985)" />
  <path
     fill="#333333"
     d="m 317.37057,230.51297 v -1.48438 h 10.3125 v 1.48438 z m 0,5.125 v -1.48438 h 10.3125 v 1.48438 z"
     fill-rule="nonzero"
     id="path11"
     clip-path="url(#clipPath38)"
     transform="translate(-43.646286,-223.05985)" />
  <path
     fill="#0090ac"
     d="m 334.1299,231.8411 q -0.9375,0 -1.54687,-0.76563 -0.60938,-0.76562 -0.60938,-2.10937 0,-1.82813 0.92188,-3.23438 0.92187,-1.42187 2.53125,-2.26562 l 0.65625,1.15625 q -1.20313,0.70312 -1.85938,1.75 -0.64062,1.03125 -0.64062,2.40625 l 0.45312,1.875 -1.3125,-1.59375 q 0.3125,-0.32813 0.70313,-0.54688 0.39062,-0.23437 0.79687,-0.23437 0.75,0 1.21875,0.48437 0.46875,0.46875 0.46875,1.23438 0,0.8125 -0.5,1.32812 -0.48437,0.51563 -1.28125,0.51563 z m 5.53125,0 q -0.9375,0 -1.54687,-0.76563 -0.60938,-0.76562 -0.60938,-2.10937 0,-1.82813 0.92188,-3.23438 0.92187,-1.42187 2.53125,-2.26562 l 0.65625,1.15625 q -1.20313,0.70312 -1.85938,1.75 -0.64062,1.03125 -0.64062,2.40625 l 0.45312,1.875 -1.3125,-1.59375 q 0.3125,-0.32813 0.70313,-0.54688 0.39062,-0.23437 0.79687,-0.23437 0.75,0 1.21875,0.48437 0.46875,0.46875 0.46875,1.23438 0,0.8125 -0.5,1.32812 -0.48437,0.51563 -1.28125,0.51563 z m 10.60309,8.40625 -4.92188,-11.65625 h 2 l 2.6875,6.60937 q 0.35938,0.875 0.67188,1.73438 0.32812,0.85937 0.64062,1.70312 h 0.0937 q 0.3125,-0.84375 0.625,-1.70312 0.3125,-0.85938 0.65625,-1.73438 l 2.6875,-6.60937 h 1.89063 l -4.8125,11.65625 z m 14.16559,0.28125 q -1.07813,0 -2,-0.39063 -0.90625,-0.39062 -1.4375,-1.125 -0.53125,-0.75 -0.53125,-1.79687 0,-1.95313 1.96875,-2.96875 1.96875,-1.03125 6.48437,-1.39063 -0.0156,-0.79687 -0.32812,-1.46875 -0.29688,-0.67187 -0.96875,-1.0625 -0.67188,-0.39062 -1.79688,-0.39062 -0.75,0 -1.48437,0.20312 -0.71875,0.20313 -1.39063,0.53125 -0.65625,0.3125 -1.20312,0.65625 l -0.76563,-1.34375 q 0.57813,-0.39062 1.40625,-0.78125 0.82813,-0.40625 1.78125,-0.65625 0.95313,-0.25 1.98438,-0.25 1.60937,0 2.65625,0.60938 1.04687,0.59375 1.5625,1.67187 0.51562,1.0625 0.51562,2.51563 v 7.15625 h -1.60937 l -0.17188,-1.57813 h -0.0625 q -0.96875,0.76563 -2.17187,1.3125 -1.1875,0.54688 -2.4375,0.54688 z m 0.53125,-1.57813 q 1,0 1.98437,-0.45312 0.98438,-0.45313 1.96875,-1.28125 v -3.0625 q -2.5,0.21875 -3.92187,0.60937 -1.42188,0.375 -2.01563,0.96875 -0.59375,0.57813 -0.59375,1.34375 0,0.65625 0.35938,1.07813 0.35937,0.40625 0.95312,0.60937 0.59375,0.1875 1.26563,0.1875 z m 17.71246,1.57813 q -1.85938,0 -2.84375,-1.0625 -0.98438,-1.0625 -0.98438,-3.125 v -11.57813 h -3.98437 v -1.60937 h 5.95312 v 13.32812 q 0,1.26563 0.625,1.84375 0.625,0.57813 1.65625,0.57813 0.51563,0 1.03125,-0.125 0.53125,-0.14063 1.1875,-0.42188 l 0.5,1.48438 q -0.79687,0.28125 -1.5,0.48437 -0.6875,0.20313 -1.64062,0.20313 z m 11.85309,0 q -1.54688,0 -2.85938,-0.71875 -1.29687,-0.71875 -2.10937,-2.07813 -0.79688,-1.375 -0.79688,-3.29687 0,-1.96875 0.79688,-3.32813 0.8125,-1.375 2.10937,-2.09375 1.3125,-0.71875 2.85938,-0.71875 1.53125,0 2.84375,0.71875 1.3125,0.71875 2.10937,2.09375 0.79688,1.35938 0.79688,3.32813 0,1.92187 -0.79688,3.29687 -0.79687,1.35938 -2.10937,2.07813 -1.3125,0.71875 -2.84375,0.71875 z m 0,-1.625 q 1.125,0 1.96875,-0.5625 0.84375,-0.5625 1.29687,-1.5625 0.45313,-1.01563 0.45313,-2.34375 0,-1.34375 -0.45313,-2.35938 -0.45312,-1.01562 -1.29687,-1.57812 -0.84375,-0.5625 -1.96875,-0.5625 -1.125,0 -1.95313,0.5625 -0.82812,0.5625 -1.29687,1.57812 -0.46875,1.01563 -0.46875,2.35938 0,1.32812 0.46875,2.34375 0.46875,1 1.29687,1.5625 0.82813,0.5625 1.95313,0.5625 z m 10.69684,1.34375 V 228.5911 h 1.64062 l 0.15625,2.75 h 0.0781 q 0.90625,-1.40625 2.25,-2.21875 1.34375,-0.82813 2.95312,-0.82813 0.65625,0 1.21875,0.10938 0.5625,0.10937 1.09375,0.375 l -0.45312,1.70312 q -0.60938,-0.21875 -1.04688,-0.3125 -0.42187,-0.0937 -1.125,-0.0937 -1.3125,0 -2.53125,0.76563 -1.20312,0.75 -2.26562,2.5625 v 6.84375 z m 14.00933,-8.40625 -0.67187,-1.14063 q 1.20312,-0.70312 1.85937,-1.75 0.67188,-1.04687 0.67188,-2.40625 l -0.48438,-1.875 1.3125,1.60938 q -0.3125,0.34375 -0.70312,0.5625 -0.375,0.20312 -0.78125,0.20312 -0.73438,0 -1.21875,-0.46875 -0.48438,-0.48437 -0.48438,-1.23437 0,-0.84375 0.5,-1.35938 0.51563,-0.51562 1.28125,-0.51562 0.9375,0 1.54688,0.78125 0.60937,0.76562 0.60937,2.125 0,1.79687 -0.92187,3.23437 -0.90625,1.42188 -2.51563,2.23438 z m 5.53125,0 -0.67187,-1.14063 q 1.20312,-0.70312 1.85937,-1.75 0.67188,-1.04687 0.67188,-2.40625 l -0.48438,-1.875 1.3125,1.60938 q -0.3125,0.34375 -0.70312,0.5625 -0.375,0.20312 -0.78125,0.20312 -0.73438,0 -1.21875,-0.46875 -0.48438,-0.48437 -0.48438,-1.23437 0,-0.84375 0.5,-1.35938 0.51563,-0.51562 1.28125,-0.51562 0.9375,0 1.54688,0.78125 0.60937,0.76562 0.60937,2.125 0,1.79687 -0.92187,3.23437 -0.90625,1.42188 -2.51563,2.23438 z"
     fill-rule="nonzero"
     id="path12"
     clip-path="url(#clipPath37)"
     transform="translate(-43.646286,-223.05985)" />
  <path
     fill="#e91d63"
     d="m 447.48587,239.0911 v -1.89063 l 7.23437,-4.875 v -0.0937 l -7.23437,-4.875 v -1.89062 l 8.95312,6.0625 v 1.5 z"
     fill-rule="nonzero"
     id="path13"
     clip-path="url(#clipPath36)"
     transform="translate(-43.646286,-223.05985)" />
  <path
     fill="#424242"
     d="m 466.63583,240.5286 q -1.71875,0 -3.17188,-0.625 -1.45312,-0.64063 -2.53125,-1.70313 l 1.20313,-1.39062 q 0.89062,0.89062 2.07812,1.4375 1.1875,0.53125 2.53125,0.53125 1.625,0 2.51563,-0.6875 0.90625,-0.70313 0.90625,-1.79688 0,-0.84375 -0.375,-1.34375 -0.35938,-0.51562 -1,-0.84375 -0.64063,-0.34375 -1.45313,-0.67187 l -2.25,-0.98438 q -0.79687,-0.34375 -1.57812,-0.84375 -0.78125,-0.5 -1.3125,-1.28125 -0.51563,-0.78125 -0.51563,-1.9375 0,-1.20312 0.65625,-2.14062 0.65625,-0.95313 1.82813,-1.48438 1.1875,-0.54687 2.67187,-0.54687 1.48438,0 2.73438,0.54687 1.25,0.53125 2.10937,1.39063 l -1.0625,1.29687 q -0.76562,-0.6875 -1.70312,-1.07812 -0.9375,-0.40625 -2.15625,-0.40625 -1.35938,0 -2.20313,0.60937 -0.84375,0.60938 -0.84375,1.70313 0,0.73437 0.42188,1.21875 0.42187,0.48437 1.0625,0.79687 0.65625,0.3125 1.32812,0.59375 l 2.20313,0.95313 q 0.98437,0.39062 1.76562,0.9375 0.79688,0.53125 1.25,1.32812 0.46875,0.78125 0.46875,1.9375 0,1.25 -0.67187,2.28125 -0.67188,1.01563 -1.92188,1.60938 -1.25,0.59375 -2.98437,0.59375 z m 14.66559,-0.28125 v -10.0625 h -5.42188 v -1.59375 h 7.39063 v 11.65625 z m 0.78125,-14.10938 q -0.67188,0 -1.14063,-0.42187 -0.45312,-0.42188 -0.45312,-1.10938 0,-0.70312 0.45312,-1.125 0.46875,-0.42187 1.14063,-0.42187 0.67187,0 1.125,0.42187 0.45312,0.42188 0.45312,1.125 0,0.6875 -0.45312,1.10938 -0.45313,0.42187 -1.125,0.42187 z m 8.27496,14.10938 V 228.5911 h 1.625 l 0.17188,1.98437 h 0.0937 q 0.92187,-0.98437 1.96875,-1.625 1.0625,-0.65625 2.42187,-0.65625 2.0625,0 3.04688,1.20313 0.98437,1.20312 0.98437,3.5 v 7.25 h -1.96875 v -6.98438 q 0,-1.65625 -0.625,-2.45312 -0.60937,-0.8125 -2.0625,-0.8125 -1.03125,0 -1.84375,0.53125 -0.8125,0.53125 -1.84375,1.57812 v 8.14063 z m 21.61871,0.28125 q -1.70312,0 -2.6875,-0.60938 -0.98437,-0.60937 -1.40625,-1.6875 -0.42187,-1.07812 -0.42187,-2.51562 v -5.53125 h -3.28125 v -1.48438 l 3.35937,-0.10937 0.26563,-3.75 h 1.625 v 3.75 h 5.7344 v 1.59375 h -5.7344 v 5.54687 q 0,1.03125 0.26562,1.75 0.26563,0.71875 0.90625,1.09375 0.65625,0.35938 1.78128,0.35938 0.84375,0 1.51563,-0.14063 0.67187,-0.15625 1.29687,-0.39062 l 0.4375,1.4375 q -0.79687,0.28125 -1.67187,0.48437 -0.875,0.20313 -1.98441,0.20313 z m 10.85312,0 q -1.07812,0 -2,-0.39063 -0.90625,-0.39062 -1.4375,-1.125 -0.53125,-0.75 -0.53125,-1.79687 0,-1.95313 1.96875,-2.96875 1.96875,-1.03125 6.48438,-1.39063 -0.0156,-0.79687 -0.32813,-1.46875 -0.29687,-0.67187 -0.96875,-1.0625 -0.67187,-0.39062 -1.79687,-0.39062 -0.75,0 -1.48438,0.20312 -0.71875,0.20313 -1.39062,0.53125 -0.65625,0.3125 -1.20313,0.65625 l -0.76562,-1.34375 q 0.57812,-0.39062 1.40625,-0.78125 0.82812,-0.40625 1.78125,-0.65625 0.95312,-0.25 1.98437,-0.25 1.60938,0 2.65625,0.60938 1.04688,0.59375 1.5625,1.67187 0.51563,1.0625 0.51563,2.51563 v 7.15625 h -1.60938 l -0.17187,-1.57813 h -0.0625 q -0.96875,0.76563 -2.17188,1.3125 -1.1875,0.54688 -2.4375,0.54688 z m 0.53125,-1.57813 q 1,0 1.98438,-0.45312 0.98437,-0.45313 1.96875,-1.28125 v -3.0625 q -2.5,0.21875 -3.92188,0.60937 -1.42187,0.375 -2.01562,0.96875 -0.59375,0.57813 -0.59375,1.34375 0,0.65625 0.35937,1.07813 0.35938,0.40625 0.95313,0.60937 0.59375,0.1875 1.26562,0.1875 z m 9.49372,1.29688 4.4375,-6.04688 -4.09375,-5.60937 h 2.1875 l 1.84375,2.5625 q 0.3125,0.45312 0.67187,0.96875 0.35938,0.5 0.6875,1 h 0.10938 q 0.3125,-0.5 0.65625,-1.01563 0.34375,-0.51562 0.65625,-1 l 1.75,-2.51562 h 2.09375 l -4.15625,5.78125 4.46875,5.875 h -2.15625 l -2.04688,-2.6875 q -0.35937,-0.5 -0.76562,-1.04688 -0.39063,-0.5625 -0.76563,-1.0625 h -0.0937 q -0.375,0.5 -0.73437,1.03125 -0.35938,0.53125 -0.71875,1.07813 l -1.92188,2.6875 z m 20.44683,0 v -10.0625 h -5.42187 v -1.59375 h 7.39062 v 11.65625 z m 0.78125,-14.10938 q -0.67187,0 -1.14062,-0.42187 -0.45313,-0.42188 -0.45313,-1.10938 0,-0.70312 0.45313,-1.125 0.46875,-0.42187 1.14062,-0.42187 0.67188,0 1.125,0.42187 0.45313,0.42188 0.45313,1.125 0,0.6875 -0.45313,1.10938 -0.45312,0.42187 -1.125,0.42187 z m 13.47809,14.39063 q -1.70312,0 -3.1875,-0.54688 -1.48437,-0.54687 -2.54687,-1.26562 l 0.90625,-1.29688 q 1.01562,0.71875 2.23437,1.15625 1.23438,0.42188 2.84375,0.42188 1.48438,0 2.20313,-0.54688 0.73437,-0.5625 0.73437,-1.28125 0,-0.32812 -0.125,-0.60937 -0.125,-0.29688 -0.5,-0.5625 -0.375,-0.26563 -1.09375,-0.5 -0.71875,-0.23438 -1.92187,-0.48438 -2.28125,-0.48437 -3.42188,-1.29687 -1.14062,-0.8125 -1.14062,-2.10938 0,-1.42187 1.21875,-2.35937 1.23437,-0.95313 3.625,-0.95313 1.34375,0 2.59375,0.45313 1.25,0.4375 2.10937,1.03125 l -0.95312,1.28125 q -0.79688,-0.57813 -1.8125,-0.90625 -1,-0.32813 -2.09375,-0.32813 -1.01563,0 -1.60938,0.23438 -0.57812,0.23437 -0.82812,0.625 -0.25,0.375 -0.25,0.82812 0,0.75 0.79687,1.17188 0.8125,0.40625 2.57813,0.76562 1.95312,0.40625 2.98437,0.92188 1.04688,0.5 1.4375,1.15625 0.40625,0.64062 0.40625,1.53125 0,0.95312 -0.60937,1.73437 -0.59375,0.78125 -1.75,1.26563 -1.14063,0.46875 -2.82813,0.46875 z m 27.86243,0 q -2.28125,0 -3.67188,-1.59375 -1.39062,-1.59375 -1.39062,-4.5 0,-1.89063 0.75,-3.26563 0.76562,-1.39062 1.96875,-2.125 1.21875,-0.75 2.59375,-0.75 1.03125,0 1.875,0.40625 0.85937,0.39063 1.59375,1.10938 h 0.0781 l -0.0937,-2.15625 v -4.5 h 1.96875 v 17.09375 h -1.64062 l -0.15625,-1.53125 h -0.0781 q -0.70312,0.73437 -1.70312,1.28125 -0.98438,0.53125 -2.09375,0.53125 z m 0.40625,-1.65625 q 0.875,0 1.6875,-0.4375 0.8125,-0.4375 1.60937,-1.3125 v -5.79688 q -0.79687,-0.75 -1.5625,-1.0625 -0.75,-0.3125 -1.51562,-0.3125 -1,0 -1.82813,0.5625 -0.82812,0.5625 -1.32812,1.5625 -0.48438,1 -0.48438,2.34375 0,2.07813 0.90625,3.26563 0.90625,1.1875 2.51563,1.1875 z m 15.41559,1.65625 q -1.75,0 -3.1875,-0.71875 -1.42188,-0.71875 -2.26563,-2.09375 -0.84375,-1.375 -0.84375,-3.32813 0,-1.89062 0.84375,-3.25 0.84375,-1.375 2.20313,-2.10937 1.35937,-0.73438 2.90625,-0.73438 1.6875,0 2.875,0.6875 1.1875,0.6875 1.8125,1.90625 0.64062,1.21875 0.64062,2.875 0,0.34375 -0.0312,0.65625 -0.0156,0.3125 -0.0625,0.54688 h -9.85937 v -1.53125 h 8.6875 l -0.5,0.54687 q 0,-2.0625 -0.95313,-3.09375 -0.95312,-1.03125 -2.5625,-1.03125 -1.07812,0 -2,0.53125 -0.92187,0.51563 -1.48437,1.53125 -0.54688,1.01563 -0.54688,2.46875 0,1.51563 0.59375,2.53125 0.60938,1 1.64063,1.51563 1.03125,0.51562 2.32812,0.51562 1.0625,0 1.90625,-0.29687 0.85938,-0.29688 1.65625,-0.8125 l 0.71875,1.29687 q -0.875,0.57813 -1.98437,0.98438 -1.10938,0.40625 -2.53125,0.40625 z m 28.79992,0 q -1.75,0 -3.1875,-0.71875 -1.42187,-0.71875 -2.26562,-2.09375 -0.84375,-1.375 -0.84375,-3.32813 0,-1.89062 0.84375,-3.25 0.84375,-1.375 2.20312,-2.10937 1.35938,-0.73438 2.90625,-0.73438 1.6875,0 2.875,0.6875 1.1875,0.6875 1.8125,1.90625 0.64063,1.21875 0.64063,2.875 0,0.34375 -0.0312,0.65625 -0.0156,0.3125 -0.0625,0.54688 h -9.85938 v -1.53125 h 8.6875 l -0.5,0.54687 q 0,-2.0625 -0.95312,-3.09375 -0.95313,-1.03125 -2.5625,-1.03125 -1.07813,0 -2,0.53125 -0.92188,0.51563 -1.48438,1.53125 -0.54687,1.01563 -0.54687,2.46875 0,1.51563 0.59375,2.53125 0.60937,1 1.64062,1.51563 1.03125,0.51562 2.32813,0.51562 1.0625,0 1.90625,-0.29687 0.85937,-0.29688 1.65625,-0.8125 l 0.71875,1.29687 q -0.875,0.57813 -1.98438,0.98438 -1.10937,0.40625 -2.53125,0.40625 z m 15.93122,0 q -1.70313,0 -2.6875,-0.60938 -0.98438,-0.60937 -1.40625,-1.6875 -0.42188,-1.07812 -0.42188,-2.51562 v -5.53125 h -3.28125 v -1.48438 l 3.35938,-0.10937 0.26562,-3.75 h 1.625 v 3.75 h 5.73438 v 1.59375 h -5.73438 v 5.54687 q 0,1.03125 0.26563,1.75 0.26562,0.71875 0.90625,1.09375 0.65625,0.35938 1.78125,0.35938 0.84375,0 1.51562,-0.14063 0.67188,-0.15625 1.29688,-0.39062 l 0.4375,1.4375 q -0.79688,0.28125 -1.67188,0.48437 -0.875,0.20313 -1.98437,0.20313 z m 12.52496,-0.28125 v -10.0625 h -5.42188 v -1.59375 h 7.39063 v 11.65625 z m 0.78125,-14.10938 q -0.67188,0 -1.14063,-0.42187 -0.45312,-0.42188 -0.45312,-1.10938 0,-0.70312 0.45312,-1.125 0.46875,-0.42187 1.14063,-0.42187 0.67187,0 1.125,0.42187 0.45312,0.42188 0.45312,1.125 0,0.6875 -0.45312,1.10938 -0.45313,0.42187 -1.125,0.42187 z m 16.24371,19.03125 v -4.25 l 0.0937,-2.15625 h -0.0781 q -0.6875,0.73438 -1.67188,1.25 -0.98437,0.51563 -2.0625,0.51563 -2.26562,0 -3.65625,-1.59375 -1.39062,-1.59375 -1.39062,-4.5 0,-1.89063 0.75,-3.26563 0.76562,-1.39062 1.96875,-2.125 1.21875,-0.75 2.59375,-0.75 1.04687,0 1.90625,0.40625 0.875,0.39063 1.6875,1.17188 h 0.0781 l 0.15625,-1.28125 h 1.59375 v 16.57812 z m -3.29687,-6.29687 q 0.875,0 1.6875,-0.4375 0.8125,-0.4375 1.60937,-1.3125 v -5.79688 q -0.79687,-0.75 -1.5625,-1.0625 -0.75,-0.3125 -1.51562,-0.3125 -1,0 -1.82813,0.5625 -0.82812,0.5625 -1.32812,1.5625 -0.48438,1 -0.48438,2.34375 0,2.07813 0.90625,3.26563 0.90625,1.1875 2.51563,1.1875 z m 13.39996,1.65625 q -2.09375,0 -3.07812,-1.1875 -0.98438,-1.20313 -0.98438,-3.51563 v -7.23437 h 2 v 6.96875 q 0,1.65625 0.60938,2.46875 0.60937,0.79687 2.07812,0.79687 1,0 1.82813,-0.51562 0.82812,-0.51563 1.79687,-1.64063 v -8.07812 h 1.96875 v 11.65625 h -1.60937 l -0.17188,-2.04688 h -0.0937 q -0.89062,1.01563 -1.95312,1.67188 -1.04688,0.65625 -2.39063,0.65625 z m 16.41559,0 q -1.75,0 -3.1875,-0.71875 -1.42188,-0.71875 -2.26563,-2.09375 -0.84375,-1.375 -0.84375,-3.32813 0,-1.89062 0.84375,-3.25 0.84375,-1.375 2.20313,-2.10937 1.35937,-0.73438 2.90625,-0.73438 1.6875,0 2.875,0.6875 1.1875,0.6875 1.8125,1.90625 0.64062,1.21875 0.64062,2.875 0,0.34375 -0.0312,0.65625 -0.0156,0.3125 -0.0625,0.54688 h -9.85937 v -1.53125 h 8.6875 l -0.5,0.54687 q 0,-2.0625 -0.95313,-3.09375 -0.95312,-1.03125 -2.5625,-1.03125 -1.07812,0 -2,0.53125 -0.92187,0.51563 -1.48437,1.53125 -0.54688,1.01563 -0.54688,2.46875 0,1.51563 0.59375,2.53125 0.60938,1 1.64063,1.51563 1.03125,0.51562 2.32812,0.51562 1.0625,0 1.90625,-0.29687 0.85938,-0.29688 1.65625,-0.8125 l 0.71875,1.29687 q -0.875,0.57813 -1.98437,0.98438 -1.10938,0.40625 -2.53125,0.40625 z m 15.93121,0 q -1.70312,0 -2.6875,-0.60938 -0.98437,-0.60937 -1.40625,-1.6875 -0.42187,-1.07812 -0.42187,-2.51562 v -5.53125 h -3.28125 v -1.48438 l 3.35937,-0.10937 0.26563,-3.75 h 1.625 v 3.75 h 5.73437 v 1.59375 h -5.73437 v 5.54687 q 0,1.03125 0.26562,1.75 0.26563,0.71875 0.90625,1.09375 0.65625,0.35938 1.78125,0.35938 0.84375,0 1.51563,-0.14063 0.67187,-0.15625 1.29687,-0.39062 l 0.4375,1.4375 q -0.79687,0.28125 -1.67187,0.48437 -0.875,0.20313 -1.98438,0.20313 z m 10.85309,0 q -1.07813,0 -2,-0.39063 -0.90625,-0.39062 -1.4375,-1.125 -0.53125,-0.75 -0.53125,-1.79687 0,-1.95313 1.96875,-2.96875 1.96875,-1.03125 6.48437,-1.39063 -0.0156,-0.79687 -0.32812,-1.46875 -0.29688,-0.67187 -0.96875,-1.0625 -0.67188,-0.39062 -1.79688,-0.39062 -0.75,0 -1.48437,0.20312 -0.71875,0.20313 -1.39063,0.53125 -0.65625,0.3125 -1.20312,0.65625 l -0.76563,-1.34375 q 0.57813,-0.39062 1.40625,-0.78125 0.82813,-0.40625 1.78125,-0.65625 0.95313,-0.25 1.98438,-0.25 1.60937,0 2.65625,0.60938 1.04687,0.59375 1.5625,1.67187 0.51562,1.0625 0.51562,2.51563 v 7.15625 h -1.60937 l -0.17188,-1.57813 h -0.0625 q -0.96875,0.76563 -2.17187,1.3125 -1.1875,0.54688 -2.4375,0.54688 z m 0.53125,-1.57813 q 1,0 1.98437,-0.45312 0.98438,-0.45313 1.96875,-1.28125 v -3.0625 q -2.5,0.21875 -3.92187,0.60937 -1.42188,0.375 -2.01563,0.96875 -0.59375,0.57813 -0.59375,1.34375 0,0.65625 0.35938,1.07813 0.35937,0.40625 0.95312,0.60937 0.59375,0.1875 1.26563,0.1875 z m 30.6593,1.57813 q -1.8125,0 -3.26562,-0.71875 -1.45313,-0.71875 -2.28125,-2.07813 -0.82813,-1.375 -0.82813,-3.29687 0,-1.96875 0.89063,-3.32813 0.89062,-1.375 2.35937,-2.09375 1.46875,-0.71875 3.25,-0.71875 1.4375,0 2.48438,0.51563 1.04687,0.5 1.76562,1.1875 l -0.98437,1.28125 q -0.71875,-0.625 -1.48438,-0.98438 -0.76562,-0.35937 -1.70312,-0.35937 -1.34375,0 -2.375,0.5625 -1.03125,0.5625 -1.60938,1.57812 -0.5625,1.01563 -0.5625,2.35938 0,1.32812 0.54688,2.34375 0.5625,1 1.57812,1.5625 1.03125,0.5625 2.375,0.5625 1.07813,0 1.96875,-0.42188 0.90625,-0.4375 1.625,-1.04687 l 0.89063,1.28125 q -0.96875,0.85937 -2.15625,1.34375 -1.1875,0.46875 -2.48438,0.46875 z m 13.30621,0 q -1.54687,0 -2.85937,-0.71875 -1.29688,-0.71875 -2.10938,-2.07813 -0.79687,-1.375 -0.79687,-3.29687 0,-1.96875 0.79687,-3.32813 0.8125,-1.375 2.10938,-2.09375 1.3125,-0.71875 2.85937,-0.71875 1.53125,0 2.84375,0.71875 1.3125,0.71875 2.10938,2.09375 0.79687,1.35938 0.79687,3.32813 0,1.92187 -0.79687,3.29687 -0.79688,1.35938 -2.10938,2.07813 -1.3125,0.71875 -2.84375,0.71875 z m 0,-1.625 q 1.125,0 1.96875,-0.5625 0.84375,-0.5625 1.29688,-1.5625 0.45312,-1.01563 0.45312,-2.34375 0,-1.34375 -0.45312,-2.35938 -0.45313,-1.01562 -1.29688,-1.57812 -0.84375,-0.5625 -1.96875,-0.5625 -1.125,0 -1.95312,0.5625 -0.82813,0.5625 -1.29688,1.57812 -0.46875,1.01563 -0.46875,2.35938 0,1.32812 0.46875,2.34375 0.46875,1 1.29688,1.5625 0.82812,0.5625 1.95312,0.5625 z m 9.43122,1.34375 V 228.5911 h 1.625 l 0.17187,1.98437 h 0.0937 q 0.92188,-0.98437 1.96875,-1.625 1.0625,-0.65625 2.42188,-0.65625 2.0625,0 3.04687,1.20313 0.98438,1.20312 0.98438,3.5 v 7.25 h -1.96875 v -6.98438 q 0,-1.65625 -0.625,-2.45312 -0.60938,-0.8125 -2.0625,-0.8125 -1.03125,0 -1.84375,0.53125 -0.8125,0.53125 -1.84375,1.57812 v 8.14063 z"
     fill-rule="nonzero"
     id="path14"
     clip-path="url(#clipPath35)"
     transform="translate(-43.646286,-223.05985)" />
  <path
     fill="#424242"
     d="m 50.021286,273.5286 q -1.8125,0 -3.265625,-0.71875 -1.453125,-0.71875 -2.28125,-2.07813 -0.828125,-1.375 -0.828125,-3.29687 0,-1.96875 0.890625,-3.32813 0.890625,-1.375 2.359375,-2.09375 1.46875,-0.71875 3.25,-0.71875 1.4375,0 2.484375,0.51563 1.046875,0.5 1.765625,1.1875 l -0.984375,1.28125 q -0.71875,-0.625 -1.484375,-0.98438 -0.765625,-0.35937 -1.703125,-0.35937 -1.34375,0 -2.375,0.5625 -1.03125,0.5625 -1.609375,1.57812 -0.5625,1.01563 -0.5625,2.35938 0,1.32812 0.546875,2.34375 0.5625,1 1.578125,1.5625 1.03125,0.5625 2.375,0.5625 1.078125,0 1.96875,-0.42188 0.90625,-0.4375 1.625,-1.04687 l 0.890625,1.28125 q -0.96875,0.85937 -2.15625,1.34375 -1.1875,0.46875 -2.484375,0.46875 z m 13.681213,-0.28125 v -10.0625 h -5.421875 v -1.59375 h 7.390625 v 11.65625 z m 0.78125,-14.10938 q -0.671875,0 -1.140625,-0.42187 -0.453125,-0.42188 -0.453125,-1.10938 0,-0.70312 0.453125,-1.125 0.46875,-0.42187 1.140625,-0.42187 0.671875,0 1.125,0.42187 0.453125,0.42188 0.453125,1.125 0,0.6875 -0.453125,1.10938 -0.453125,0.42187 -1.125,0.42187 z m 13.962463,14.39063 q -1.75,0 -3.1875,-0.71875 -1.421875,-0.71875 -2.265625,-2.09375 -0.84375,-1.375 -0.84375,-3.32813 0,-1.89062 0.84375,-3.25 0.84375,-1.375 2.203125,-2.10937 1.359375,-0.73438 2.90625,-0.73438 1.6875,0 2.875,0.6875 1.1875,0.6875 1.8125,1.90625 0.640625,1.21875 0.640625,2.875 0,0.34375 -0.03125,0.65625 -0.01563,0.3125 -0.0625,0.54688 h -9.859375 v -1.53125 h 8.6875 l -0.5,0.54687 q 0,-2.0625 -0.953125,-3.09375 -0.953125,-1.03125 -2.5625,-1.03125 -1.078125,0 -2,0.53125 -0.921875,0.51563 -1.484375,1.53125 -0.546875,1.01563 -0.546875,2.46875 0,1.51563 0.59375,2.53125 0.609375,1 1.640625,1.51563 1.03125,0.51562 2.328125,0.51562 1.0625,0 1.90625,-0.29687 0.859375,-0.29688 1.65625,-0.8125 l 0.71875,1.29687 q -0.875,0.57813 -1.984375,0.98438 -1.109375,0.40625 -2.53125,0.40625 z M 88.4243,273.24735 V 261.5911 h 1.640625 l 0.15625,2.75 h 0.07813 q 0.90625,-1.40625 2.25,-2.21875 1.34375,-0.82813 2.953125,-0.82813 0.65625,0 1.21875,0.10938 0.5625,0.10937 1.09375,0.375 l -0.453125,1.70312 q -0.609375,-0.21875 -1.046875,-0.3125 -0.421875,-0.0937 -1.125,-0.0937 -1.3125,0 -2.53125,0.76563 -1.203125,0.75 -2.265625,2.5625 v 6.84375 z m 14.39996,0 V 261.5911 h 1.64063 l 0.15625,2.75 h 0.0781 q 0.90625,-1.40625 2.25,-2.21875 1.34375,-0.82813 2.95313,-0.82813 0.65625,0 1.21875,0.10938 0.5625,0.10937 1.09375,0.375 l -0.45313,1.70312 q -0.60937,-0.21875 -1.04687,-0.3125 -0.42188,-0.0937 -1.125,-0.0937 -1.3125,0 -2.53125,0.76563 -1.20313,0.75 -2.26563,2.5625 v 6.84375 z m 18.82184,0.28125 q -1.75,0 -3.1875,-0.71875 -1.42187,-0.71875 -2.26562,-2.09375 -0.84375,-1.375 -0.84375,-3.32813 0,-1.89062 0.84375,-3.25 0.84375,-1.375 2.20312,-2.10937 1.35938,-0.73438 2.90625,-0.73438 1.6875,0 2.875,0.6875 1.1875,0.6875 1.8125,1.90625 0.64063,1.21875 0.64063,2.875 0,0.34375 -0.0312,0.65625 -0.0156,0.3125 -0.0625,0.54688 h -9.85938 v -1.53125 h 8.6875 l -0.5,0.54687 q 0,-2.0625 -0.95312,-3.09375 -0.95313,-1.03125 -2.5625,-1.03125 -1.07813,0 -2,0.53125 -0.92188,0.51563 -1.48438,1.53125 -0.54687,1.01563 -0.54687,2.46875 0,1.51563 0.59375,2.53125 0.60937,1 1.64062,1.51563 1.03125,0.51562 2.32813,0.51562 1.0625,0 1.90625,-0.29687 0.85937,-0.29688 1.65625,-0.8125 l 0.71875,1.29687 q -0.875,0.57813 -1.98438,0.98438 -1.10937,0.40625 -2.53125,0.40625 z m 11.75934,4.82812 -0.54688,-1.25 q 1.53125,-0.67187 2.26563,-1.6875 0.75,-1.01562 0.75,-2.51562 l -0.45313,-2.20313 1.34375,1.90625 q -0.28125,0.32813 -0.64062,0.4375 -0.34375,0.10938 -0.70313,0.10938 -0.5,0 -0.9375,-0.20313 -0.4375,-0.20312 -0.6875,-0.59375 -0.25,-0.40625 -0.25,-1 0,-0.89062 0.57813,-1.35937 0.57812,-0.46875 1.34375,-0.46875 1.0625,0 1.60937,0.82812 0.54688,0.82813 0.54688,2.25 0,2.10938 -1.125,3.5625 -1.125,1.45313 -3.09375,2.1875 z m 29.42493,-4.82812 q -1.07813,0 -2,-0.39063 -0.90625,-0.39062 -1.4375,-1.125 -0.53125,-0.75 -0.53125,-1.79687 0,-1.95313 1.96875,-2.96875 1.96875,-1.03125 6.48437,-1.39063 -0.0156,-0.79687 -0.32812,-1.46875 -0.29688,-0.67187 -0.96875,-1.0625 -0.67188,-0.39062 -1.79688,-0.39062 -0.75,0 -1.48437,0.20312 -0.71875,0.20313 -1.39063,0.53125 -0.65625,0.3125 -1.20312,0.65625 l -0.76563,-1.34375 q 0.57813,-0.39062 1.40625,-0.78125 0.82813,-0.40625 1.78125,-0.65625 0.95313,-0.25 1.98438,-0.25 1.60937,0 2.65625,0.60938 1.04687,0.59375 1.5625,1.67187 0.51562,1.0625 0.51562,2.51563 v 7.15625 h -1.60937 l -0.17188,-1.57813 h -0.0625 q -0.96875,0.76563 -2.17187,1.3125 -1.1875,0.54688 -2.4375,0.54688 z m 0.53125,-1.57813 q 1,0 1.98437,-0.45312 0.98438,-0.45313 1.96875,-1.28125 v -3.0625 q -2.5,0.21875 -3.92187,0.60937 -1.42188,0.375 -2.01563,0.96875 -0.59375,0.57813 -0.59375,1.34375 0,0.65625 0.35938,1.07813 0.35937,0.40625 0.95312,0.60937 0.59375,0.1875 1.26563,0.1875 z m 18.16558,6.21875 v -4.25 l 0.0937,-2.15625 h -0.0781 q -0.6875,0.73438 -1.67188,1.25 -0.98437,0.51563 -2.0625,0.51563 -2.26562,0 -3.65625,-1.59375 -1.39062,-1.59375 -1.39062,-4.5 0,-1.89063 0.75,-3.26563 0.76562,-1.39062 1.96875,-2.125 1.21875,-0.75 2.59375,-0.75 1.04687,0 1.90625,0.40625 0.875,0.39063 1.6875,1.17188 h 0.0781 l 0.15625,-1.28125 h 1.59375 v 16.57812 z m -3.29687,-6.29687 q 0.875,0 1.6875,-0.4375 0.8125,-0.4375 1.60937,-1.3125 v -5.79688 q -0.79687,-0.75 -1.5625,-1.0625 -0.75,-0.3125 -1.51562,-0.3125 -1,0 -1.82813,0.5625 -0.82812,0.5625 -1.32812,1.5625 -0.48438,1 -0.48438,2.34375 0,2.07813 0.90625,3.26563 0.90625,1.1875 2.51563,1.1875 z m 13.39996,1.65625 q -2.09375,0 -3.07812,-1.1875 -0.98438,-1.20313 -0.98438,-3.51563 v -7.23437 h 2 v 6.96875 q 0,1.65625 0.60938,2.46875 0.60937,0.79687 2.07812,0.79687 1,0 1.82813,-0.51562 0.82812,-0.51563 1.79687,-1.64063 v -8.07812 h 1.96875 v 11.65625 h -1.60937 l -0.17188,-2.04688 h -0.0937 q -0.89062,1.01563 -1.95312,1.67188 -1.04688,0.65625 -2.39063,0.65625 z m 16.07184,-0.28125 v -10.0625 h -5.42188 v -1.59375 h 7.39063 v 11.65625 z m 0.28125,-13.625 -1.04688,-0.98438 3.42188,-4.03125 1.39062,1.34375 z m 27.08118,13.625 -4.92188,-11.65625 h 2 l 2.6875,6.60937 q 0.35938,0.875 0.67188,1.73438 0.32812,0.85937 0.64062,1.70312 h 0.0937 q 0.3125,-0.84375 0.625,-1.70312 0.3125,-0.85938 0.65625,-1.73438 l 2.6875,-6.60937 h 1.89063 l -4.8125,11.65625 z m 14.16558,0.28125 q -1.07812,0 -2,-0.39063 -0.90625,-0.39062 -1.4375,-1.125 -0.53125,-0.75 -0.53125,-1.79687 0,-1.95313 1.96875,-2.96875 1.96875,-1.03125 6.48438,-1.39063 -0.0156,-0.79687 -0.32813,-1.46875 -0.29687,-0.67187 -0.96875,-1.0625 -0.67187,-0.39062 -1.79687,-0.39062 -0.75,0 -1.48438,0.20312 -0.71875,0.20313 -1.39062,0.53125 -0.65625,0.3125 -1.20313,0.65625 l -0.76562,-1.34375 q 0.57812,-0.39062 1.40625,-0.78125 0.82812,-0.40625 1.78125,-0.65625 0.95312,-0.25 1.98437,-0.25 1.60938,0 2.65625,0.60938 1.04688,0.59375 1.5625,1.67187 0.51563,1.0625 0.51563,2.51563 v 7.15625 h -1.60938 l -0.17187,-1.57813 h -0.0625 q -0.96875,0.76563 -2.17188,1.3125 -1.1875,0.54688 -2.4375,0.54688 z m 0.53125,-1.57813 q 1,0 1.98438,-0.45312 0.98437,-0.45313 1.96875,-1.28125 v -3.0625 q -2.5,0.21875 -3.92188,0.60937 -1.42187,0.375 -2.01562,0.96875 -0.59375,0.57813 -0.59375,1.34375 0,0.65625 0.35937,1.07813 0.35938,0.40625 0.95313,0.60937 0.59375,0.1875 1.26562,0.1875 z m 30.28429,1.57813 q -1.75,0 -3.1875,-0.71875 -1.42187,-0.71875 -2.26562,-2.09375 -0.84375,-1.375 -0.84375,-3.32813 0,-1.89062 0.84375,-3.25 0.84375,-1.375 2.20312,-2.10937 1.35938,-0.73438 2.90625,-0.73438 1.6875,0 2.875,0.6875 1.1875,0.6875 1.8125,1.90625 0.64063,1.21875 0.64063,2.875 0,0.34375 -0.0312,0.65625 -0.0156,0.3125 -0.0625,0.54688 h -9.85938 v -1.53125 h 8.6875 l -0.5,0.54687 q 0,-2.0625 -0.95312,-3.09375 -0.95313,-1.03125 -2.5625,-1.03125 -1.07813,0 -2,0.53125 -0.92188,0.51563 -1.48438,1.53125 -0.54687,1.01563 -0.54687,2.46875 0,1.51563 0.59375,2.53125 0.60937,1 1.64062,1.51563 1.03125,0.51562 2.32813,0.51562 1.0625,0 1.90625,-0.29687 0.85937,-0.29688 1.65625,-0.8125 l 0.71875,1.29687 q -0.875,0.57813 -1.98438,0.98438 -1.10937,0.40625 -2.53125,0.40625 z m 16.22809,0 q -1.85938,0 -2.84375,-1.0625 -0.98438,-1.0625 -0.98438,-3.125 v -11.57813 h -3.98437 v -1.60937 h 5.95312 v 13.32812 q 0,1.26563 0.625,1.84375 0.625,0.57813 1.65625,0.57813 0.51563,0 1.03125,-0.125 0.53125,-0.14063 1.1875,-0.42188 l 0.5,1.48438 q -0.79687,0.28125 -1.5,0.48437 -0.6875,0.20313 -1.64062,0.20313 z m 27.3468,0 q -1.8125,0 -3.26562,-0.71875 -1.45313,-0.71875 -2.28125,-2.07813 -0.82813,-1.375 -0.82813,-3.29687 0,-1.96875 0.89063,-3.32813 0.89062,-1.375 2.35937,-2.09375 1.46875,-0.71875 3.25,-0.71875 1.4375,0 2.48438,0.51563 1.04687,0.5 1.76562,1.1875 l -0.98437,1.28125 q -0.71875,-0.625 -1.48438,-0.98438 -0.76562,-0.35937 -1.70312,-0.35937 -1.34375,0 -2.375,0.5625 -1.03125,0.5625 -1.60938,1.57812 -0.5625,1.01563 -0.5625,2.35938 0,1.32812 0.54688,2.34375 0.5625,1 1.57812,1.5625 1.03125,0.5625 2.375,0.5625 1.07813,0 1.96875,-0.42188 0.90625,-0.4375 1.625,-1.04687 l 0.89063,1.28125 q -0.96875,0.85937 -2.15625,1.34375 -1.1875,0.46875 -2.48438,0.46875 z m 13.30621,0 q -1.54687,0 -2.85937,-0.71875 -1.29688,-0.71875 -2.10938,-2.07813 -0.79687,-1.375 -0.79687,-3.29687 0,-1.96875 0.79687,-3.32813 0.8125,-1.375 2.10938,-2.09375 1.3125,-0.71875 2.85937,-0.71875 1.53125,0 2.84375,0.71875 1.3125,0.71875 2.10938,2.09375 0.79687,1.35938 0.79687,3.32813 0,1.92187 -0.79687,3.29687 -0.79688,1.35938 -2.10938,2.07813 -1.3125,0.71875 -2.84375,0.71875 z m 0,-1.625 q 1.125,0 1.96875,-0.5625 0.84375,-0.5625 1.29688,-1.5625 0.45312,-1.01563 0.45312,-2.34375 0,-1.34375 -0.45312,-2.35938 -0.45313,-1.01562 -1.29688,-1.57812 -0.84375,-0.5625 -1.96875,-0.5625 -1.125,0 -1.95312,0.5625 -0.82813,0.5625 -1.29688,1.57812 -0.46875,1.01563 -0.46875,2.35938 0,1.32812 0.46875,2.34375 0.46875,1 1.29688,1.5625 0.82812,0.5625 1.95312,0.5625 z m 9.43122,1.34375 V 261.5911 h 1.625 l 0.17187,1.98437 h 0.0937 q 0.92188,-0.98437 1.96875,-1.625 1.0625,-0.65625 2.42188,-0.65625 2.0625,0 3.04687,1.20313 0.98438,1.20312 0.98438,3.5 v 7.25 h -1.96875 v -6.98438 q 0,-1.65625 -0.625,-2.45312 -0.60938,-0.8125 -2.0625,-0.8125 -1.03125,0 -1.84375,0.53125 -0.8125,0.53125 -1.84375,1.57812 v 8.14063 z m 21.61871,0.28125 q -1.70312,0 -2.6875,-0.60938 -0.98437,-0.60937 -1.40625,-1.6875 -0.42187,-1.07812 -0.42187,-2.51562 v -5.53125 h -3.28125 v -1.48438 l 3.35937,-0.10937 0.26563,-3.75 h 1.625 v 3.75 h 5.73437 v 1.59375 h -5.73437 v 5.54687 q 0,1.03125 0.26562,1.75 0.26563,0.71875 0.90625,1.09375 0.65625,0.35938 1.78125,0.35938 0.84375,0 1.51563,-0.14063 0.67187,-0.15625 1.29687,-0.39062 l 0.4375,1.4375 q -0.79687,0.28125 -1.67187,0.48437 -0.875,0.20313 -1.98438,0.20313 z m 12.86871,0 q -1.75,0 -3.1875,-0.71875 -1.42187,-0.71875 -2.26562,-2.09375 -0.84375,-1.375 -0.84375,-3.32813 0,-1.89062 0.84375,-3.25 0.84375,-1.375 2.20312,-2.10937 1.35938,-0.73438 2.90625,-0.73438 1.6875,0 2.875,0.6875 1.1875,0.6875 1.8125,1.90625 0.64063,1.21875 0.64063,2.875 0,0.34375 -0.0312,0.65625 -0.0156,0.3125 -0.0625,0.54688 h -9.85938 v -1.53125 h 8.6875 l -0.5,0.54687 q 0,-2.0625 -0.95312,-3.09375 -0.95313,-1.03125 -2.5625,-1.03125 -1.07813,0 -2,0.53125 -0.92188,0.51563 -1.48438,1.53125 -0.54687,1.01563 -0.54687,2.46875 0,1.51563 0.59375,2.53125 0.60937,1 1.64062,1.51563 1.03125,0.51562 2.32813,0.51562 1.0625,0 1.90625,-0.29687 0.85937,-0.29688 1.65625,-0.8125 l 0.71875,1.29687 q -0.875,0.57813 -1.98438,0.98438 -1.10937,0.40625 -2.53125,0.40625 z m 8.71247,-0.28125 V 261.5911 h 1.625 l 0.17187,1.98437 h 0.0937 q 0.92188,-0.98437 1.96875,-1.625 1.0625,-0.65625 2.42188,-0.65625 2.0625,0 3.04687,1.20313 0.98438,1.20312 0.98438,3.5 v 7.25 h -1.96875 v -6.98438 q 0,-1.65625 -0.625,-2.45312 -0.60938,-0.8125 -2.0625,-0.8125 -1.03125,0 -1.84375,0.53125 -0.8125,0.53125 -1.84375,1.57812 v 8.14063 z m 19.74371,0 v -10.0625 h -5.42188 v -1.59375 h 7.39063 v 11.65625 z m 0.78125,-14.10938 q -0.67188,0 -1.14063,-0.42187 -0.45312,-0.42188 -0.45312,-1.10938 0,-0.70312 0.45312,-1.125 0.46875,-0.42187 1.14063,-0.42187 0.67187,0 1.125,0.42187 0.45312,0.42188 0.45312,1.125 0,0.6875 -0.45312,1.10938 -0.45313,0.42187 -1.125,0.42187 z m 12.54059,14.39063 q -2.28125,0 -3.67188,-1.59375 -1.39062,-1.59375 -1.39062,-4.5 0,-1.89063 0.75,-3.26563 0.76562,-1.39062 1.96875,-2.125 1.21875,-0.75 2.59375,-0.75 1.03125,0 1.875,0.40625 0.85937,0.39063 1.59375,1.10938 h 0.0781 l -0.0937,-2.15625 v -4.5 h 1.96875 v 17.09375 h -1.64062 l -0.15625,-1.53125 h -0.0781 q -0.70312,0.73437 -1.70312,1.28125 -0.98438,0.53125 -2.09375,0.53125 z m 0.40625,-1.65625 q 0.875,0 1.6875,-0.4375 0.8125,-0.4375 1.60937,-1.3125 v -5.79688 q -0.79687,-0.75 -1.5625,-1.0625 -0.75,-0.3125 -1.51562,-0.3125 -1,0 -1.82813,0.5625 -0.82812,0.5625 -1.32812,1.5625 -0.48438,1 -0.48438,2.34375 0,2.07813 0.90625,3.26563 0.90625,1.1875 2.51563,1.1875 z m 14.69684,1.65625 q -1.54688,0 -2.85938,-0.71875 -1.29687,-0.71875 -2.10937,-2.07813 -0.79688,-1.375 -0.79688,-3.29687 0,-1.96875 0.79688,-3.32813 0.8125,-1.375 2.10937,-2.09375 1.3125,-0.71875 2.85938,-0.71875 1.53125,0 2.84375,0.71875 1.3125,0.71875 2.10937,2.09375 0.79688,1.35938 0.79688,3.32813 0,1.92187 -0.79688,3.29687 -0.79687,1.35938 -2.10937,2.07813 -1.3125,0.71875 -2.84375,0.71875 z m 0,-1.625 q 1.125,0 1.96875,-0.5625 0.84375,-0.5625 1.29687,-1.5625 0.45313,-1.01563 0.45313,-2.34375 0,-1.34375 -0.45313,-2.35938 -0.45312,-1.01562 -1.29687,-1.57812 -0.84375,-0.5625 -1.96875,-0.5625 -1.125,0 -1.95313,0.5625 -0.82812,0.5625 -1.29687,1.57812 -0.46875,1.01563 -0.46875,2.35938 0,1.32812 0.46875,2.34375 0.46875,1 1.29687,1.5625 0.82813,0.5625 1.95313,0.5625 z"
     fill-rule="nonzero"
     id="path15"
     clip-path="url(#clipPath34)"
     transform="translate(-43.646286,-223.05985)" />
  <path
     fill="#e91d63"
     d="m 456.7515,272.0911 -8.95312,-6.0625 v -1.5 l 8.95312,-6.0625 v 1.89062 l -7.21875,4.875 v 0.0937 l 7.21875,4.875 z m 4.94684,5 7.875,-20.89063 h 1.78125 l -7.875,20.89063 z"
     fill-rule="nonzero"
     id="path16"
     clip-path="url(#clipPath33)"
     transform="translate(-43.646286,-223.05985)" />
  <path
     fill="#9c26b0"
     d="m 481.64517,273.5286 q -1.75,0 -3.1875,-0.71875 -1.42188,-0.71875 -2.26563,-2.09375 -0.84375,-1.375 -0.84375,-3.32813 0,-1.89062 0.84375,-3.25 0.84375,-1.375 2.20313,-2.10937 1.35937,-0.73438 2.90625,-0.73438 1.6875,0 2.875,0.6875 1.1875,0.6875 1.8125,1.90625 0.64062,1.21875 0.64062,2.875 0,0.34375 -0.0312,0.65625 -0.0156,0.3125 -0.0625,0.54688 h -9.85937 v -1.53125 h 8.6875 l -0.5,0.54687 q 0,-2.0625 -0.95313,-3.09375 -0.95312,-1.03125 -2.5625,-1.03125 -1.07812,0 -2,0.53125 -0.92187,0.51563 -1.48437,1.53125 -0.54688,1.01563 -0.54688,2.46875 0,1.51563 0.59375,2.53125 0.60938,1 1.64063,1.51563 1.03125,0.51562 2.32812,0.51562 1.0625,0 1.90625,-0.29687 0.85938,-0.29688 1.65625,-0.8125 l 0.71875,1.29687 q -0.875,0.57813 -1.98437,0.98438 -1.10938,0.40625 -2.53125,0.40625 z m 15.93121,0 q -1.70312,0 -2.6875,-0.60938 -0.98437,-0.60937 -1.40625,-1.6875 -0.42187,-1.07812 -0.42187,-2.51562 v -5.53125 h -3.28125 v -1.48438 l 3.35937,-0.10937 0.26563,-3.75 h 1.625 v 3.75 h 5.73437 v 1.59375 h -5.73437 v 5.54687 q 0,1.03125 0.26562,1.75 0.26563,0.71875 0.90625,1.09375 0.65625,0.35938 1.78125,0.35938 0.84375,0 1.51563,-0.14063 0.67187,-0.15625 1.29687,-0.39062 l 0.4375,1.4375 q -0.79687,0.28125 -1.67187,0.48437 -0.875,0.20313 -1.98438,0.20313 z m 12.52497,-0.28125 v -10.0625 h -5.42188 v -1.59375 h 7.39066 v 11.65625 z m 0.78125,-14.10938 q -0.67188,0 -1.14063,-0.42187 -0.45312,-0.42188 -0.45312,-1.10938 0,-0.70312 0.45312,-1.125 0.46875,-0.42187 1.14063,-0.42187 0.67187,0 1.12503,0.42187 0.45312,0.42188 0.45312,1.125 0,0.6875 -0.45312,1.10938 -0.45316,0.42187 -1.12503,0.42187 z m 16.24374,19.03125 v -4.25 l 0.0937,-2.15625 h -0.0781 q -0.6875,0.73438 -1.67188,1.25 -0.98437,0.51563 -2.0625,0.51563 -2.26562,0 -3.65625,-1.59375 -1.39062,-1.59375 -1.39062,-4.5 0,-1.89063 0.75,-3.26563 0.76562,-1.39062 1.96875,-2.125 1.21875,-0.75 2.59375,-0.75 1.04687,0 1.90625,0.40625 0.875,0.39063 1.6875,1.17188 h 0.0781 l 0.15625,-1.28125 h 1.59375 v 16.57812 z m -3.29687,-6.29687 q 0.875,0 1.6875,-0.4375 0.8125,-0.4375 1.60937,-1.3125 v -5.79688 q -0.79687,-0.75 -1.5625,-1.0625 -0.75,-0.3125 -1.51562,-0.3125 -1,0 -1.82813,0.5625 -0.82812,0.5625 -1.32812,1.5625 -0.48438,1 -0.48438,2.34375 0,2.07813 0.90625,3.26563 0.90625,1.1875 2.51563,1.1875 z m 13.39996,1.65625 q -2.09375,0 -3.07813,-1.1875 -0.98437,-1.20313 -0.98437,-3.51563 v -7.23437 h 2 v 6.96875 q 0,1.65625 0.60937,2.46875 0.60938,0.79687 2.07813,0.79687 1,0 1.82812,-0.51562 0.82813,-0.51563 1.79688,-1.64063 v -8.07812 h 1.96875 v 11.65625 h -1.60938 l -0.17187,-2.04688 h -0.0937 q -0.89063,1.01563 -1.95313,1.67188 -1.04687,0.65625 -2.39062,0.65625 z m 16.41559,0 q -1.75,0 -3.1875,-0.71875 -1.42188,-0.71875 -2.26563,-2.09375 -0.84375,-1.375 -0.84375,-3.32813 0,-1.89062 0.84375,-3.25 0.84375,-1.375 2.20313,-2.10937 1.35937,-0.73438 2.90625,-0.73438 1.6875,0 2.875,0.6875 1.1875,0.6875 1.8125,1.90625 0.64062,1.21875 0.64062,2.875 0,0.34375 -0.0312,0.65625 -0.0156,0.3125 -0.0625,0.54688 h -9.85937 v -1.53125 h 8.6875 l -0.5,0.54687 q 0,-2.0625 -0.95313,-3.09375 -0.95312,-1.03125 -2.5625,-1.03125 -1.07812,0 -2,0.53125 -0.92187,0.51563 -1.48437,1.53125 -0.54688,1.01563 -0.54688,2.46875 0,1.51563 0.59375,2.53125 0.60938,1 1.64063,1.51563 1.03125,0.51562 2.32812,0.51562 1.0625,0 1.90625,-0.29687 0.85938,-0.29688 1.65625,-0.8125 l 0.71875,1.29687 q -0.875,0.57813 -1.98437,0.98438 -1.10938,0.40625 -2.53125,0.40625 z m 15.93121,0 q -1.70313,0 -2.6875,-0.60938 -0.98438,-0.60937 -1.40625,-1.6875 -0.42188,-1.07812 -0.42188,-2.51562 v -5.53125 h -3.28125 v -1.48438 l 3.35938,-0.10937 0.26562,-3.75 h 1.625 v 3.75 h 5.73438 v 1.59375 h -5.73438 v 5.54687 q 0,1.03125 0.26563,1.75 0.26562,0.71875 0.90625,1.09375 0.65625,0.35938 1.78125,0.35938 0.84375,0 1.51562,-0.14063 0.67188,-0.15625 1.29688,-0.39062 l 0.4375,1.4375 q -0.79688,0.28125 -1.67188,0.48437 -0.875,0.20313 -1.98437,0.20313 z m 10.85309,0 q -1.07813,0 -2,-0.39063 -0.90625,-0.39062 -1.4375,-1.125 -0.53125,-0.75 -0.53125,-1.79687 0,-1.95313 1.96875,-2.96875 1.96875,-1.03125 6.48437,-1.39063 -0.0156,-0.79687 -0.32812,-1.46875 -0.29688,-0.67187 -0.96875,-1.0625 -0.67188,-0.39062 -1.79688,-0.39062 -0.75,0 -1.48437,0.20312 -0.71875,0.20313 -1.39063,0.53125 -0.65625,0.3125 -1.20312,0.65625 l -0.76563,-1.34375 q 0.57813,-0.39062 1.40625,-0.78125 0.82813,-0.40625 1.78125,-0.65625 0.95313,-0.25 1.98438,-0.25 1.60937,0 2.65625,0.60938 1.04687,0.59375 1.5625,1.67187 0.51562,1.0625 0.51562,2.51563 v 7.15625 h -1.60937 l -0.17188,-1.57813 h -0.0625 q -0.96875,0.76563 -2.17187,1.3125 -1.1875,0.54688 -2.4375,0.54688 z m 0.53125,-1.57813 q 1,0 1.98437,-0.45312 0.98438,-0.45313 1.96875,-1.28125 v -3.0625 q -2.5,0.21875 -3.92187,0.60937 -1.42188,0.375 -2.01563,0.96875 -0.59375,0.57813 -0.59375,1.34375 0,0.65625 0.35938,1.07813 0.35937,0.40625 0.95312,0.60937 0.59375,0.1875 1.26563,0.1875 z"
     fill-rule="nonzero"
     id="path17"
     clip-path="url(#clipPath32)"
     transform="translate(-43.646286,-223.05985)" />
  <path
     fill="#e91d63"
     d="m 591.48553,272.0911 v -1.89063 l 7.23438,-4.875 v -0.0937 l -7.23438,-4.875 v -1.89062 l 8.95313,6.0625 v 1.5 z"
     fill-rule="nonzero"
     id="path18"
     clip-path="url(#clipPath31)"
     transform="translate(-43.646286,-223.05985)" />
  <path
     fill="#e91d63"
     d="m 53.552536,380.09106 -8.953125,-6.0625 v -1.5 l 8.953125,-6.0625 v 1.89063 l -7.21875,4.875 v 0.0937 l 7.21875,4.875 z"
     fill-rule="nonzero"
     id="path19"
     clip-path="url(#clipPath30)"
     transform="translate(-43.646286,-223.05985)" />
  <path
     fill="#9c26b0"
     d="m 64.04625,381.52856 q -1.75,0 -3.1875,-0.71875 -1.421875,-0.71875 -2.265625,-2.09375 -0.84375,-1.375 -0.84375,-3.32812 0,-1.89063 0.84375,-3.25 0.84375,-1.375 2.203125,-2.10938 1.359375,-0.73437 2.90625,-0.73437 1.6875,0 2.875,0.6875 1.1875,0.6875 1.8125,1.90625 0.640625,1.21875 0.640625,2.875 0,0.34375 -0.03125,0.65625 -0.01563,0.3125 -0.0625,0.54687 H 59.0775 v -1.53125 h 8.6875 l -0.5,0.54688 q 0,-2.0625 -0.953125,-3.09375 -0.953125,-1.03125 -2.5625,-1.03125 -1.078125,0 -2,0.53125 -0.921875,0.51562 -1.484375,1.53125 -0.546875,1.01562 -0.546875,2.46875 0,1.51562 0.59375,2.53125 0.609375,1 1.640625,1.51562 1.03125,0.51563 2.328125,0.51563 1.0625,0 1.90625,-0.29688 0.859375,-0.29687 1.65625,-0.8125 l 0.71875,1.29688 q -0.875,0.57812 -1.984375,0.98437 -1.109375,0.40625 -2.53125,0.40625 z m 15.931213,0 q -1.703125,0 -2.6875,-0.60937 -0.984375,-0.60938 -1.40625,-1.6875 -0.421875,-1.07813 -0.421875,-2.51563 v -5.53125 h -3.28125 v -1.48437 l 3.359375,-0.10938 0.265625,-3.75 h 1.625 v 3.75 h 5.734375 v 1.59375 h -5.734375 v 5.54688 q 0,1.03125 0.265625,1.75 0.265625,0.71875 0.90625,1.09375 0.65625,0.35937 1.78125,0.35937 0.84375,0 1.515625,-0.14062 0.671875,-0.15625 1.296875,-0.39063 l 0.4375,1.4375 q -0.796875,0.28125 -1.671875,0.48438 -0.875,0.20312 -1.984375,0.20312 z m 12.524963,-0.28125 v -10.0625 h -5.421875 v -1.59375 h 7.390625 v 11.65625 z m 0.78125,-14.10937 q -0.671875,0 -1.140625,-0.42188 -0.453125,-0.42187 -0.453125,-1.10937 0,-0.70313 0.453125,-1.125 0.46875,-0.42188 1.140625,-0.42188 0.671875,0 1.125,0.42188 0.453125,0.42187 0.453125,1.125 0,0.6875 -0.453125,1.10937 -0.453125,0.42188 -1.125,0.42188 z m 16.243714,19.03125 v -4.25 l 0.0937,-2.15625 h -0.0781 q -0.6875,0.73437 -1.67187,1.25 -0.98438,0.51562 -2.0625,0.51562 -2.26563,0 -3.65625,-1.59375 -1.39063,-1.59375 -1.39063,-4.5 0,-1.89062 0.75,-3.26562 0.76563,-1.39063 1.96875,-2.125 1.21875,-0.75 2.59375,-0.75 1.04688,0 1.90625,0.40625 0.875,0.39062 1.6875,1.17187 h 0.0781 l 0.15625,-1.28125 h 1.59375 v 16.57813 z m -3.29688,-6.29688 q 0.875,0 1.6875,-0.4375 0.8125,-0.4375 1.60938,-1.3125 v -5.79687 q -0.79688,-0.75 -1.5625,-1.0625 -0.75,-0.3125 -1.51563,-0.3125 -1,0 -1.82812,0.5625 -0.82813,0.5625 -1.32813,1.5625 -0.48437,1 -0.48437,2.34375 0,2.07812 0.90625,3.26562 0.90625,1.1875 2.51562,1.1875 z m 13.39997,1.65625 q -2.09375,0 -3.07813,-1.1875 -0.98437,-1.20312 -0.98437,-3.51562 v -7.23438 h 2 v 6.96875 q 0,1.65625 0.60937,2.46875 0.60938,0.79688 2.07813,0.79688 1,0 1.82812,-0.51563 0.82813,-0.51562 1.79688,-1.64062 v -8.07813 h 1.96875 v 11.65625 h -1.60938 l -0.17187,-2.04687 h -0.0937 q -0.89063,1.01562 -1.95313,1.67187 -1.04687,0.65625 -2.39062,0.65625 z m 16.41558,0 q -1.75,0 -3.1875,-0.71875 -1.42187,-0.71875 -2.26562,-2.09375 -0.84375,-1.375 -0.84375,-3.32812 0,-1.89063 0.84375,-3.25 0.84375,-1.375 2.20312,-2.10938 1.35938,-0.73437 2.90625,-0.73437 1.6875,0 2.875,0.6875 1.1875,0.6875 1.8125,1.90625 0.64063,1.21875 0.64063,2.875 0,0.34375 -0.0312,0.65625 -0.0156,0.3125 -0.0625,0.54687 h -9.85938 v -1.53125 h 8.6875 l -0.5,0.54688 q 0,-2.0625 -0.95312,-3.09375 -0.95313,-1.03125 -2.5625,-1.03125 -1.07813,0 -2,0.53125 -0.92188,0.51562 -1.48438,1.53125 -0.54687,1.01562 -0.54687,2.46875 0,1.51562 0.59375,2.53125 0.60937,1 1.64062,1.51562 1.03125,0.51563 2.32813,0.51563 1.0625,0 1.90625,-0.29688 0.85937,-0.29687 1.65625,-0.8125 l 0.71875,1.29688 q -0.875,0.57812 -1.98438,0.98437 -1.10937,0.40625 -2.53125,0.40625 z m 15.93122,0 q -1.70313,0 -2.6875,-0.60937 -0.98438,-0.60938 -1.40625,-1.6875 -0.42188,-1.07813 -0.42188,-2.51563 v -5.53125 h -3.28125 v -1.48437 l 3.35938,-0.10938 0.26562,-3.75 h 1.625 v 3.75 h 5.73438 v 1.59375 h -5.73438 v 5.54688 q 0,1.03125 0.26563,1.75 0.26562,0.71875 0.90625,1.09375 0.65625,0.35937 1.78125,0.35937 0.84375,0 1.51562,-0.14062 0.67188,-0.15625 1.29688,-0.39063 l 0.4375,1.4375 q -0.79688,0.28125 -1.67188,0.48438 -0.875,0.20312 -1.98437,0.20312 z m 10.85309,0 q -1.07813,0 -2,-0.39062 -0.90625,-0.39063 -1.4375,-1.125 -0.53125,-0.75 -0.53125,-1.79688 0,-1.95312 1.96875,-2.96875 1.96875,-1.03125 6.48437,-1.39062 -0.0156,-0.79688 -0.32812,-1.46875 -0.29688,-0.67188 -0.96875,-1.0625 -0.67188,-0.39063 -1.79688,-0.39063 -0.75,0 -1.48437,0.20313 -0.71875,0.20312 -1.39063,0.53125 -0.65625,0.3125 -1.20312,0.65625 l -0.76563,-1.34375 q 0.57813,-0.39063 1.40625,-0.78125 0.82813,-0.40625 1.78125,-0.65625 0.95313,-0.25 1.98438,-0.25 1.60937,0 2.65625,0.60937 1.04687,0.59375 1.5625,1.67188 0.51562,1.0625 0.51562,2.51562 v 7.15625 h -1.60937 l -0.17188,-1.57812 h -0.0625 q -0.96875,0.76562 -2.17187,1.3125 -1.1875,0.54687 -2.4375,0.54687 z m 0.53125,-1.57812 q 1,0 1.98437,-0.45313 0.98438,-0.45312 1.96875,-1.28125 v -3.0625 q -2.5,0.21875 -3.92187,0.60938 -1.42188,0.375 -2.01563,0.96875 -0.59375,0.57812 -0.59375,1.34375 0,0.65625 0.35938,1.07812 0.35937,0.40625 0.95312,0.60938 0.59375,0.1875 1.26563,0.1875 z"
     fill-rule="nonzero"
     id="path20"
     clip-path="url(#clipPath29)"
     transform="translate(-43.646286,-223.05985)" />
  <path
     fill="#01afd1"
     d="m 190.97404,381.52856 q -1.8125,0 -2.90625,-1.125 -1.09375,-1.14062 -1.09375,-3.32812 0,-1.59375 0.48437,-2.98438 0.5,-1.39062 1.39063,-2.46875 0.89062,-1.07812 2.03125,-1.70312 1.15625,-0.625 2.5,-0.625 1.25,0 2.17187,0.48437 0.92188,0.48438 1.40625,1.26563 h 0.0937 l 0.45313,-1.45313 h 1.48437 l -2.32812,11.65625 h -1.5 l 0.1875,-1.78125 h -0.0937 q -0.92188,0.9375 -2.03125,1.5 -1.10938,0.5625 -2.25,0.5625 z m 0.5625,-1.53125 q 0.95312,0 2,-0.57812 1.04687,-0.57813 2,-1.67188 l 1.07812,-5.1875 q -0.59375,-0.9375 -1.39062,-1.32812 -0.78125,-0.40625 -1.60938,-0.40625 -0.98437,0 -1.85937,0.5 -0.875,0.48437 -1.53125,1.3125 -0.64063,0.82812 -1,1.92187 -0.35938,1.07813 -0.35938,2.21875 0,1.64063 0.73438,2.4375 0.73437,0.78125 1.9375,0.78125 z m 15.96246,1.53125 q -1.82812,0 -2.70312,-0.92187 -0.85938,-0.92188 -0.85938,-2.40625 0,-0.39063 0.0625,-0.75 0.0625,-0.35938 0.14063,-0.76563 l 1.14062,-5.60937 h -3.375 l 0.26563,-1.375 3.5,-0.10938 0.85937,-3.21875 h 1.5625 l -0.67187,3.21875 h 5.76562 l -0.3125,1.48438 h -5.76562 l -1.17188,5.65625 q -0.0781,0.3125 -0.10937,0.5625 -0.0156,0.25 -0.0156,0.51562 0,1.10938 0.57813,1.65625 0.59375,0.53125 1.57812,0.53125 0.875,0 1.64063,-0.25 0.76562,-0.25 1.39062,-0.59375 l 0.59375,1.32813 q -0.73437,0.45312 -1.8125,0.75 -1.0625,0.29687 -2.28125,0.29687 z m 9.35309,-0.28125 2.32813,-11.65625 h 1.51562 l -0.51562,3.32813 h 0.10937 q 0.64063,-0.98438 1.46875,-1.8125 0.82813,-0.82813 1.76563,-1.3125 0.95312,-0.5 1.96875,-0.5 0.79687,0 1.375,0.15625 0.59375,0.15625 0.96875,0.4375 l -0.71875,1.59375 q -0.42188,-0.29688 -0.89063,-0.39063 -0.46875,-0.10937 -1.04687,-0.10937 -1.34375,0 -2.70313,1.15625 -1.35937,1.14062 -2.57812,3.03125 l -1.21875,6.07812 z m 20.39996,0.28125 q -1.39062,0 -2.26562,-0.73437 -0.875,-0.75 -0.875,-2.1875 0,-0.28125 0.0469,-0.60938 0.0469,-0.32812 0.14063,-0.65625 l 1.39062,-6.26562 h -4.26562 l 0.3125,-1.48438 h 6.09375 l -1.75,7.90625 q -0.0312,0.21875 -0.0625,0.40625 -0.0312,0.17188 -0.0312,0.375 0,0.90625 0.5,1.3125 0.5,0.40625 1.29687,0.40625 0.54688,0 1.07813,-0.15625 0.53125,-0.17187 1.15625,-0.46875 l 0.42187,1.39063 q -0.73437,0.34375 -1.48437,0.54687 -0.75,0.21875 -1.70313,0.21875 z m -0.125,-14.42187 q -0.54687,0 -0.95312,-0.32813 -0.40625,-0.34375 -0.40625,-0.9375 0,-0.45312 0.21875,-0.82812 0.23437,-0.39063 0.60937,-0.60938 0.39063,-0.21875 0.82813,-0.21875 0.64062,0 1.01562,0.34375 0.375,0.32813 0.375,0.92188 0,0.70312 -0.5,1.1875 -0.48437,0.46875 -1.1875,0.46875 z m 12.68122,14.42187 q -1.15625,0 -2.09375,-0.5 -0.9375,-0.5 -1.48438,-1.25 h -0.0781 l -0.42188,1.46875 h -1.54687 l 3.40625,-17.09375 h 1.85937 l -0.9375,4.5625 -0.625,2.57813 h 0.0625 q 0.89063,-0.82813 2,-1.40625 1.125,-0.59375 2.25,-0.59375 1.875,0 2.9375,1.20312 1.07811,1.20313 1.07811,3.4375 0,1.54688 -0.48436,2.95313 -0.48437,1.39062 -1.35937,2.4375 -0.875,1.03125 -2.04688,1.625 -1.15625,0.57812 -2.51562,0.57812 z m -0.20313,-1.53125 q 1.03125,0 1.89063,-0.45312 0.85937,-0.45313 1.48437,-1.25 0.64063,-0.8125 0.98438,-1.85938 0.34375,-1.0625 0.34375,-2.25 0,-1.70312 -0.73438,-2.53125 -0.71875,-0.82812 -1.96875,-0.82812 -0.89062,0 -1.95312,0.60937 -1.04688,0.59375 -1.98438,1.65625 l -1.0625,5.23438 q 0.625,0.90625 1.40625,1.29687 0.78125,0.375 1.59375,0.375 z m 12.4937,1.53125 q -1.5625,0 -2.29687,-0.79687 -0.73438,-0.79688 -0.73438,-2.09375 0,-0.53125 0.0625,-0.98438 0.0625,-0.46875 0.15625,-0.9375 l 1.4375,-7.125 h 1.82813 l -1.39063,6.92188 q -0.0781,0.4375 -0.15625,0.84375 -0.0625,0.39062 -0.0625,0.79687 0,0.85938 0.46875,1.32813 0.48438,0.46875 1.375,0.46875 1.17188,0 2.375,-0.75 1.20313,-0.76563 2.375,-2.07813 l 1.51563,-7.53125 h 1.84375 l -2.32813,11.65625 h -1.5 l 0.29688,-2.375 h -0.0937 q -0.71875,0.6875 -1.53125,1.3125 -0.79688,0.60938 -1.70313,0.98438 -0.90625,0.35937 -1.9375,0.35937 z m 17.39996,0 q -1.82812,0 -2.70312,-0.92187 -0.85938,-0.92188 -0.85938,-2.40625 0,-0.39063 0.0625,-0.75 0.0625,-0.35938 0.14063,-0.76563 l 1.14062,-5.60937 h -3.375 l 0.26563,-1.375 3.5,-0.10938 0.85937,-3.21875 h 1.5625 l -0.67187,3.21875 h 5.76562 l -0.3125,1.48438 h -5.76562 l -1.17188,5.65625 q -0.0781,0.3125 -0.10937,0.5625 -0.0156,0.25 -0.0156,0.51562 0,1.10938 0.57813,1.65625 0.59375,0.53125 1.57812,0.53125 0.875,0 1.64063,-0.25 0.76562,-0.25 1.39062,-0.59375 l 0.59375,1.32813 q -0.73437,0.45312 -1.8125,0.75 -1.0625,0.29687 -2.28125,0.29687 z m 13.02497,0 q -1.53125,0 -2.625,-0.64062 -1.09375,-0.65625 -1.6875,-1.79688 -0.57813,-1.15625 -0.57813,-2.67187 0,-1.53125 0.53125,-2.82813 0.54688,-1.29687 1.48438,-2.26562 0.9375,-0.96875 2.14062,-1.5 1.21875,-0.53125 2.5625,-0.53125 1.51563,0 2.59375,0.65625 1.09375,0.64062 1.6875,1.79687 0.59375,1.14063 0.59375,2.65625 0,1.51563 -0.54687,2.82813 -0.54688,1.29687 -1.48438,2.26562 -0.92187,0.95313 -2.125,1.5 -1.20312,0.53125 -2.54687,0.53125 z m 0.125,-1.53125 q 0.9375,0 1.78125,-0.42187 0.85937,-0.4375 1.51562,-1.17188 0.65625,-0.75 1.03125,-1.75 0.39063,-1 0.39063,-2.125 0,-1.70312 -0.84375,-2.70312 -0.82813,-1 -2.3125,-1 -0.92188,0 -1.78125,0.4375 -0.84375,0.4375 -1.5,1.1875 -0.65625,0.73437 -1.04688,1.73437 -0.39062,0.98438 -0.39062,2.125 0,1.70313 0.84375,2.70313 0.84375,0.98437 2.3125,0.98437 z m 14.75933,1.53125 q -1.01562,0 -1.98437,-0.26562 -0.96875,-0.25 -1.79688,-0.73438 -0.82812,-0.48437 -1.39062,-1.125 l 1.0625,-1.1875 q 0.85937,0.96875 2.01562,1.42188 1.17188,0.45312 2.42188,0.45312 1.23437,0 2.03125,-0.4375 0.79687,-0.45312 0.79687,-1.40625 0,-0.57812 -0.35937,-0.9375 -0.35938,-0.375 -1.04688,-0.65625 -0.67187,-0.29687 -1.65625,-0.64062 -1.82812,-0.59375 -2.67187,-1.39063 -0.82813,-0.8125 -0.82813,-2.01562 0,-1.125 0.59375,-1.85938 0.59375,-0.73437 1.57813,-1.09375 0.98437,-0.35937 2.1875,-0.35937 1.6875,0 2.90625,0.57812 1.21875,0.57813 1.96875,1.3125 l -1.03125,1.14063 q -0.71875,-0.625 -1.71875,-1.10938 -1,-0.48437 -2.3125,-0.48437 -1.125,0 -1.78125,0.45312 -0.64063,0.4375 -0.64063,1.20313 0,0.8125 0.73438,1.28125 0.75,0.45312 2.14062,0.9375 1.07813,0.35937 1.92188,0.79687 0.84375,0.42188 1.3125,1.04688 0.46875,0.625 0.46875,1.5625 0,1.25 -0.67188,2.03125 -0.65625,0.76562 -1.78125,1.125 -1.10937,0.35937 -2.46875,0.35937 z"
     fill-rule="nonzero"
     id="path21"
     clip-path="url(#clipPath28)"
     transform="translate(-43.646286,-223.05985)" />
  <path
     fill="#333333"
     d="m 317.37057,371.51294 v -1.48437 h 10.3125 v 1.48437 z m 0,5.125 v -1.48437 h 10.3125 v 1.48437 z"
     fill-rule="nonzero"
     id="path22"
     clip-path="url(#clipPath27)"
     transform="translate(-43.646286,-223.05985)" />
  <path
     fill="#0090ac"
     d="m 334.1299,372.84106 q -0.9375,0 -1.54687,-0.76562 -0.60938,-0.76563 -0.60938,-2.10938 0,-1.82812 0.92188,-3.23437 0.92187,-1.42188 2.53125,-2.26563 l 0.65625,1.15625 q -1.20313,0.70313 -1.85938,1.75 -0.64062,1.03125 -0.64062,2.40625 l 0.45312,1.875 -1.3125,-1.59375 q 0.3125,-0.32812 0.70313,-0.54687 0.39062,-0.23438 0.79687,-0.23438 0.75,0 1.21875,0.48438 0.46875,0.46875 0.46875,1.23437 0,0.8125 -0.5,1.32813 -0.48437,0.51562 -1.28125,0.51562 z m 5.53125,0 q -0.9375,0 -1.54687,-0.76562 -0.60938,-0.76563 -0.60938,-2.10938 0,-1.82812 0.92188,-3.23437 0.92187,-1.42188 2.53125,-2.26563 l 0.65625,1.15625 q -1.20313,0.70313 -1.85938,1.75 -0.64062,1.03125 -0.64062,2.40625 l 0.45312,1.875 -1.3125,-1.59375 q 0.3125,-0.32812 0.70313,-0.54687 0.39062,-0.23438 0.79687,-0.23438 0.75,0 1.21875,0.48438 0.46875,0.46875 0.46875,1.23437 0,0.8125 -0.5,1.32813 -0.48437,0.51562 -1.28125,0.51562 z m 10.60309,8.40625 -4.92188,-11.65625 h 2 l 2.6875,6.60938 q 0.35938,0.875 0.67188,1.73437 0.32812,0.85938 0.64062,1.70313 h 0.0937 q 0.3125,-0.84375 0.625,-1.70313 0.3125,-0.85937 0.65625,-1.73437 l 2.6875,-6.60938 h 1.89063 l -4.8125,11.65625 z m 14.16559,0.28125 q -1.07813,0 -2,-0.39062 -0.90625,-0.39063 -1.4375,-1.125 -0.53125,-0.75 -0.53125,-1.79688 0,-1.95312 1.96875,-2.96875 1.96875,-1.03125 6.48437,-1.39062 -0.0156,-0.79688 -0.32812,-1.46875 -0.29688,-0.67188 -0.96875,-1.0625 -0.67188,-0.39063 -1.79688,-0.39063 -0.75,0 -1.48437,0.20313 -0.71875,0.20312 -1.39063,0.53125 -0.65625,0.3125 -1.20312,0.65625 l -0.76563,-1.34375 q 0.57813,-0.39063 1.40625,-0.78125 0.82813,-0.40625 1.78125,-0.65625 0.95313,-0.25 1.98438,-0.25 1.60937,0 2.65625,0.60937 1.04687,0.59375 1.5625,1.67188 0.51562,1.0625 0.51562,2.51562 v 7.15625 h -1.60937 l -0.17188,-1.57812 h -0.0625 q -0.96875,0.76562 -2.17187,1.3125 -1.1875,0.54687 -2.4375,0.54687 z m 0.53125,-1.57812 q 1,0 1.98437,-0.45313 0.98438,-0.45312 1.96875,-1.28125 v -3.0625 q -2.5,0.21875 -3.92187,0.60938 -1.42188,0.375 -2.01563,0.96875 -0.59375,0.57812 -0.59375,1.34375 0,0.65625 0.35938,1.07812 0.35937,0.40625 0.95312,0.60938 0.59375,0.1875 1.26563,0.1875 z m 17.71246,1.57812 q -1.85938,0 -2.84375,-1.0625 -0.98438,-1.0625 -0.98438,-3.125 v -11.57812 h -3.98437 v -1.60938 h 5.95312 v 13.32813 q 0,1.26562 0.625,1.84375 0.625,0.57812 1.65625,0.57812 0.51563,0 1.03125,-0.125 0.53125,-0.14062 1.1875,-0.42187 l 0.5,1.48437 q -0.79687,0.28125 -1.5,0.48438 -0.6875,0.20312 -1.64062,0.20312 z m 11.85309,0 q -1.54688,0 -2.85938,-0.71875 -1.29687,-0.71875 -2.10937,-2.07812 -0.79688,-1.375 -0.79688,-3.29688 0,-1.96875 0.79688,-3.32812 0.8125,-1.375 2.10937,-2.09375 1.3125,-0.71875 2.85938,-0.71875 1.53125,0 2.84375,0.71875 1.3125,0.71875 2.10937,2.09375 0.79688,1.35937 0.79688,3.32812 0,1.92188 -0.79688,3.29688 -0.79687,1.35937 -2.10937,2.07812 -1.3125,0.71875 -2.84375,0.71875 z m 0,-1.625 q 1.125,0 1.96875,-0.5625 0.84375,-0.5625 1.29687,-1.5625 0.45313,-1.01562 0.45313,-2.34375 0,-1.34375 -0.45313,-2.35937 -0.45312,-1.01563 -1.29687,-1.57813 -0.84375,-0.5625 -1.96875,-0.5625 -1.125,0 -1.95313,0.5625 -0.82812,0.5625 -1.29687,1.57813 -0.46875,1.01562 -0.46875,2.35937 0,1.32813 0.46875,2.34375 0.46875,1 1.29687,1.5625 0.82813,0.5625 1.95313,0.5625 z m 10.69684,1.34375 v -11.65625 h 1.64062 l 0.15625,2.75 h 0.0781 q 0.90625,-1.40625 2.25,-2.21875 1.34375,-0.82812 2.95312,-0.82812 0.65625,0 1.21875,0.10937 0.5625,0.10938 1.09375,0.375 l -0.45312,1.70313 q -0.60938,-0.21875 -1.04688,-0.3125 -0.42187,-0.0937 -1.125,-0.0937 -1.3125,0 -2.53125,0.76562 -1.20312,0.75 -2.26562,2.5625 v 6.84375 z m 14.00933,-8.40625 -0.67187,-1.14062 q 1.20312,-0.70313 1.85937,-1.75 0.67188,-1.04688 0.67188,-2.40625 l -0.48438,-1.875 1.3125,1.60937 q -0.3125,0.34375 -0.70312,0.5625 -0.375,0.20313 -0.78125,0.20313 -0.73438,0 -1.21875,-0.46875 -0.48438,-0.48438 -0.48438,-1.23438 0,-0.84375 0.5,-1.35937 0.51563,-0.51563 1.28125,-0.51563 0.9375,0 1.54688,0.78125 0.60937,0.76563 0.60937,2.125 0,1.79688 -0.92187,3.23438 -0.90625,1.42187 -2.51563,2.23437 z m 5.53125,0 -0.67187,-1.14062 q 1.20312,-0.70313 1.85937,-1.75 0.67188,-1.04688 0.67188,-2.40625 l -0.48438,-1.875 1.3125,1.60937 q -0.3125,0.34375 -0.70312,0.5625 -0.375,0.20313 -0.78125,0.20313 -0.73438,0 -1.21875,-0.46875 -0.48438,-0.48438 -0.48438,-1.23438 0,-0.84375 0.5,-1.35937 0.51563,-0.51563 1.28125,-0.51563 0.9375,0 1.54688,0.78125 0.60937,0.76563 0.60937,2.125 0,1.79688 -0.92187,3.23438 -0.90625,1.42187 -2.51563,2.23437 z"
     fill-rule="nonzero"
     id="path23"
     clip-path="url(#clipPath26)"
     transform="translate(-43.646286,-223.05985)" />
  <path
     fill="#e91d63"
     d="m 447.29837,385.09106 7.875,-20.89062 h 1.78125 l -7.875,20.89062 z m 14.58746,-5 v -1.89062 l 7.23438,-4.875 v -0.0937 l -7.23438,-4.875 v -1.89063 l 8.95313,6.0625 v 1.5 z"
     fill-rule="nonzero"
     id="path24"
     clip-path="url(#clipPath25)"
     transform="translate(-43.646286,-223.05985)" />
</svg>
