<?xml version="1.0" encoding="UTF-8" standalone="no"?>
<svg
   version="1.1"
   viewBox="0 0 759.01685 185.50011"
   fill="none"
   stroke="none"
   stroke-linecap="square"
   stroke-miterlimit="10"
   id="svg28"
   sodipodi:docname="Sintaxis_2.svg"
   width="759.01685"
   height="185.50011"
   inkscape:version="1.3.2 (091e20ef0f, 2023-11-25)"
   xmlns:inkscape="http://www.inkscape.org/namespaces/inkscape"
   xmlns:sodipodi="http://sodipodi.sourceforge.net/DTD/sodipodi-0.dtd"
   xmlns="http://www.w3.org/2000/svg"
   xmlns:svg="http://www.w3.org/2000/svg">
  <defs
     id="defs28">
    <clipPath
       clipPathUnits="userSpaceOnUse"
       id="clipPath29">
      <g
         id="g30">
        <path
           d="M 0,0 H 960 V 540 H 0 Z"
           clip-rule="nonzero"
           id="path29" />
      </g>
    </clipPath>
    <clipPath
       clipPathUnits="userSpaceOnUse"
       id="clipPath30">
      <g
         id="g31">
        <path
           d="M 0,0 H 960 V 540 H 0 Z"
           clip-rule="nonzero"
           id="path30" />
      </g>
    </clipPath>
    <clipPath
       clipPathUnits="userSpaceOnUse"
       id="clipPath31">
      <g
         id="g32">
        <path
           d="M 0,0 H 960 V 540 H 0 Z"
           clip-rule="nonzero"
           id="path31" />
      </g>
    </clipPath>
    <clipPath
       clipPathUnits="userSpaceOnUse"
       id="clipPath32">
      <g
         id="g33">
        <path
           d="M 0,0 H 960 V 540 H 0 Z"
           clip-rule="nonzero"
           id="path32" />
      </g>
    </clipPath>
    <clipPath
       clipPathUnits="userSpaceOnUse"
       id="clipPath33">
      <g
         id="g34">
        <path
           d="M 0,0 H 960 V 540 H 0 Z"
           clip-rule="nonzero"
           id="path33" />
      </g>
    </clipPath>
    <clipPath
       clipPathUnits="userSpaceOnUse"
       id="clipPath34">
      <g
         id="g35">
        <path
           d="M 0,0 H 960 V 540 H 0 Z"
           clip-rule="nonzero"
           id="path34" />
      </g>
    </clipPath>
    <clipPath
       clipPathUnits="userSpaceOnUse"
       id="clipPath35">
      <g
         id="g36">
        <path
           d="M 0,0 H 960 V 540 H 0 Z"
           clip-rule="nonzero"
           id="path35" />
      </g>
    </clipPath>
    <clipPath
       clipPathUnits="userSpaceOnUse"
       id="clipPath36">
      <g
         id="g37">
        <path
           d="M 0,0 H 960 V 540 H 0 Z"
           clip-rule="nonzero"
           id="path36" />
      </g>
    </clipPath>
    <clipPath
       clipPathUnits="userSpaceOnUse"
       id="clipPath37">
      <g
         id="g38">
        <path
           d="M 0,0 H 960 V 540 H 0 Z"
           clip-rule="nonzero"
           id="path37" />
      </g>
    </clipPath>
    <clipPath
       clipPathUnits="userSpaceOnUse"
       id="clipPath38">
      <g
         id="g39">
        <path
           d="M 0,0 H 960 V 540 H 0 Z"
           clip-rule="nonzero"
           id="path38" />
      </g>
    </clipPath>
    <clipPath
       clipPathUnits="userSpaceOnUse"
       id="clipPath39">
      <g
         id="g40">
        <path
           d="M 0,0 H 960 V 540 H 0 Z"
           clip-rule="nonzero"
           id="path39" />
      </g>
    </clipPath>
    <clipPath
       clipPathUnits="userSpaceOnUse"
       id="clipPath40">
      <g
         id="g41">
        <path
           d="M 0,0 H 960 V 540 H 0 Z"
           clip-rule="nonzero"
           id="path40" />
      </g>
    </clipPath>
    <clipPath
       clipPathUnits="userSpaceOnUse"
       id="clipPath41">
      <g
         id="g42">
        <path
           d="M 0,0 H 960 V 540 H 0 Z"
           clip-rule="nonzero"
           id="path41" />
      </g>
    </clipPath>
    <clipPath
       clipPathUnits="userSpaceOnUse"
       id="clipPath42">
      <g
         id="g43">
        <path
           d="M 0,0 H 960 V 540 H 0 Z"
           clip-rule="nonzero"
           id="path42" />
      </g>
    </clipPath>
    <clipPath
       clipPathUnits="userSpaceOnUse"
       id="clipPath43">
      <g
         id="g44">
        <path
           d="M 0,0 H 960 V 540 H 0 Z"
           clip-rule="nonzero"
           id="path43" />
      </g>
    </clipPath>
    <clipPath
       clipPathUnits="userSpaceOnUse"
       id="clipPath44">
      <g
         id="g45">
        <path
           d="M 0,0 H 960 V 540 H 0 Z"
           clip-rule="nonzero"
           id="path44" />
      </g>
    </clipPath>
    <clipPath
       clipPathUnits="userSpaceOnUse"
       id="clipPath45">
      <g
         id="g46">
        <path
           d="M 0,0 H 960 V 540 H 0 Z"
           clip-rule="nonzero"
           id="path45" />
      </g>
    </clipPath>
    <clipPath
       clipPathUnits="userSpaceOnUse"
       id="clipPath46">
      <g
         id="g47">
        <path
           d="M 0,0 H 960 V 540 H 0 Z"
           clip-rule="nonzero"
           id="path46" />
      </g>
    </clipPath>
    <clipPath
       clipPathUnits="userSpaceOnUse"
       id="clipPath47">
      <g
         id="g48">
        <path
           d="M 0,0 H 960 V 540 H 0 Z"
           clip-rule="nonzero"
           id="path47" />
      </g>
    </clipPath>
    <clipPath
       clipPathUnits="userSpaceOnUse"
       id="clipPath48">
      <g
         id="g49">
        <path
           d="M 0,0 H 960 V 540 H 0 Z"
           clip-rule="nonzero"
           id="path48" />
      </g>
    </clipPath>
    <clipPath
       clipPathUnits="userSpaceOnUse"
       id="clipPath49">
      <g
         id="g50">
        <path
           d="M 0,0 H 960 V 540 H 0 Z"
           clip-rule="nonzero"
           id="path49" />
      </g>
    </clipPath>
    <clipPath
       clipPathUnits="userSpaceOnUse"
       id="clipPath50">
      <g
         id="g51">
        <path
           d="M 0,0 H 960 V 540 H 0 Z"
           clip-rule="nonzero"
           id="path50" />
      </g>
    </clipPath>
    <clipPath
       clipPathUnits="userSpaceOnUse"
       id="clipPath51">
      <g
         id="g52">
        <path
           d="M 0,0 H 960 V 540 H 0 Z"
           clip-rule="nonzero"
           id="path51" />
      </g>
    </clipPath>
    <clipPath
       clipPathUnits="userSpaceOnUse"
       id="clipPath52">
      <g
         id="g53">
        <path
           d="M 0,0 H 960 V 540 H 0 Z"
           clip-rule="nonzero"
           id="path52" />
      </g>
    </clipPath>
    <clipPath
       clipPathUnits="userSpaceOnUse"
       id="clipPath53">
      <g
         id="g54">
        <path
           d="M 0,0 H 960 V 540 H 0 Z"
           clip-rule="nonzero"
           id="path53" />
      </g>
    </clipPath>
    <clipPath
       clipPathUnits="userSpaceOnUse"
       id="clipPath54">
      <g
         id="g55">
        <path
           d="M 0,0 H 960 V 540 H 0 Z"
           clip-rule="nonzero"
           id="path54" />
      </g>
    </clipPath>
    <clipPath
       clipPathUnits="userSpaceOnUse"
       id="clipPath55">
      <g
         id="g56">
        <path
           d="M 0,0 H 960 V 540 H 0 Z"
           clip-rule="nonzero"
           id="path55" />
      </g>
    </clipPath>
  </defs>
  <sodipodi:namedview
     id="namedview28"
     pagecolor="#ffffff"
     bordercolor="#000000"
     borderopacity="0.25"
     inkscape:showpageshadow="2"
     inkscape:pageopacity="0.0"
     inkscape:pagecheckerboard="0"
     inkscape:deskcolor="#d1d1d1"
     showguides="false"
     inkscape:zoom="0.66817096"
     inkscape:cx="387.62535"
     inkscape:cy="118.23321"
     inkscape:window-width="952"
     inkscape:window-height="990"
     inkscape:window-x="0"
     inkscape:window-y="0"
     inkscape:window-maximized="0"
     inkscape:current-layer="svg28" />
  <path
     fill="#424242"
     d="m 50.271286,186.5286 q -1.46875,0 -2.78125,-0.5 -1.296875,-0.5 -2.3125,-1.51563 -1,-1.03125 -1.578125,-2.53125 -0.578125,-1.5 -0.578125,-3.46875 0,-2.57812 0.984375,-4.40625 1,-1.84375 2.6875,-2.8125 1.703125,-0.98437 3.796875,-0.98437 1.484375,0 2.671875,0.60937 1.203125,0.60938 2,1.39063 l -1.9375,2.17187 q -0.5625,-0.51562 -1.21875,-0.8125 -0.65625,-0.3125 -1.515625,-0.3125 -1.109375,0 -1.984375,0.625 -0.859375,0.60938 -1.359375,1.73438 -0.5,1.125 -0.5,2.6875 0,1.60937 0.5,2.75 0.5,1.14062 1.40625,1.73437 0.90625,0.59375 2.078125,0.59375 0.859375,0 1.546875,-0.375 0.703125,-0.39062 1.28125,-1.01562 l 1.953125,2.14062 q -0.96875,1.125 -2.265625,1.71875 -1.296875,0.57813 -2.875,0.57813 z m 13.056213,0 q -1.5625,0 -2.953125,-0.71875 -1.390625,-0.73438 -2.265625,-2.14063 -0.859375,-1.40625 -0.859375,-3.375 0,-1.96875 0.859375,-3.375 0.875,-1.40625 2.265625,-2.125 1.390625,-0.73437 2.953125,-0.73437 1.5625,0 2.953125,0.73437 1.390625,0.71875 2.25,2.125 0.859375,1.40625 0.859375,3.375 0,1.96875 -0.859375,3.375 -0.859375,1.40625 -2.25,2.14063 -1.390625,0.71875 -2.953125,0.71875 z m 0,-2.84375 q 0.8125,0 1.34375,-0.40625 0.546875,-0.42188 0.8125,-1.1875 0.28125,-0.76563 0.28125,-1.79688 0,-1.03125 -0.28125,-1.79687 -0.265625,-0.76563 -0.8125,-1.17188 -0.53125,-0.42187 -1.34375,-0.42187 -0.8125,0 -1.359375,0.42187 -0.546875,0.40625 -0.828125,1.17188 -0.265625,0.76562 -0.265625,1.79687 0,1.03125 0.265625,1.79688 0.28125,0.76562 0.828125,1.1875 0.546875,0.40625 1.359375,0.40625 z m 8.931213,2.5625 V 174.3411 h 2.875 l 0.265625,1.59375 h 0.09375 q 0.765625,-0.78125 1.765625,-1.32813 1,-0.54687 2.34375,-0.54687 2.015625,0 2.9375,1.29687 0.9375,1.29688 0.9375,3.54688 v 7.34375 h -3.515625 v -6.89063 q 0,-1.20312 -0.40625,-1.75 -0.390625,-0.54687 -1.34375,-0.54687 -0.734375,0 -1.28125,0.32812 -0.53125,0.3125 -1.15625,0.92188 v 7.9375 z m 35.299928,0.28125 q -1.875,0 -3.375,-0.71875 -1.5,-0.73438 -2.375,-2.14063 -0.875,-1.40625 -0.875,-3.375 0,-1.96875 0.95312,-3.375 0.96875,-1.40625 2.53125,-2.125 1.57813,-0.73437 3.40625,-0.73437 1.40625,0 2.5625,0.45312 1.15625,0.4375 1.89063,1.15625 l -1.625,2.17188 q -0.70313,-0.46875 -1.34375,-0.70313 -0.625,-0.23437 -1.29688,-0.23437 -1,0 -1.79687,0.42187 -0.79688,0.40625 -1.23438,1.17188 -0.42187,0.76562 -0.42187,1.79687 0,1.03125 0.42187,1.79688 0.42188,0.76562 1.17188,1.1875 0.75,0.40625 1.73437,0.40625 0.9375,0 1.71875,-0.32813 0.78125,-0.34375 1.4375,-0.8125 l 1.40625,2.23438 q -1.04687,0.89062 -2.35937,1.32812 -1.3125,0.42188 -2.53125,0.42188 z m 12.83746,-0.28125 v -9.14063 h -4.79687 v -2.76562 h 8.32812 v 11.90625 z m 1.60938,-13.78125 q -1.01563,0 -1.6875,-0.57813 -0.67188,-0.59375 -0.67188,-1.54687 0,-0.98438 0.67188,-1.59375 0.67187,-0.625 1.6875,-0.625 1.03125,0 1.6875,0.625 0.65625,0.60937 0.65625,1.59375 0,0.95312 -0.65625,1.54687 -0.65625,0.57813 -1.6875,0.57813 z m 14.04058,14.0625 q -1.84375,0 -3.34375,-0.71875 -1.5,-0.73438 -2.39062,-2.14063 -0.875,-1.40625 -0.875,-3.375 0,-1.9375 0.89062,-3.34375 0.89063,-1.40625 2.29688,-2.14062 1.42187,-0.75 3.01562,-0.75 1.84375,0 3.09375,0.75 1.25,0.75 1.875,2.04687 0.64063,1.28125 0.64063,2.90625 0,0.48438 -0.0625,0.9375 -0.0469,0.4375 -0.10938,0.65625 h -9.01562 v -2.375 h 6.64062 l -0.54687,0.67188 q 0,-1.45313 -0.60938,-2.17188 -0.60937,-0.73437 -1.79687,-0.73437 -0.85938,0 -1.51563,0.39062 -0.64062,0.375 -1,1.17188 -0.35937,0.78125 -0.35937,1.98437 0,1.21875 0.42187,2 0.4375,0.78125 1.25,1.17188 0.82813,0.375 1.98438,0.375 0.8125,0 1.54687,-0.20313 0.73438,-0.21875 1.51563,-0.625 l 1.17187,2.125 q -1.03125,0.65625 -2.28125,1.03125 -1.23437,0.35938 -2.4375,0.35938 z m 9.25934,-0.28125 V 174.3411 h 2.875 l 0.29688,2.59375 h 0.0781 q 0.875,-1.46875 2.14063,-2.17188 1.26562,-0.70312 2.67187,-0.70312 0.79688,0 1.28125,0.125 0.5,0.10937 1.03125,0.34375 l -0.71875,2.95312 q -0.5625,-0.15625 -1.01562,-0.23437 -0.4375,-0.0937 -1.10938,-0.0937 -1.09375,0 -2.17187,0.65625 -1.0625,0.64062 -1.82813,2.25 v 6.1875 z m 14.39997,0 V 174.3411 h 2.875 l 0.29687,2.59375 h 0.0781 q 0.875,-1.46875 2.14062,-2.17188 1.26563,-0.70312 2.67188,-0.70312 0.79687,0 1.28125,0.125 0.5,0.10937 1.03125,0.34375 l -0.71875,2.95312 q -0.5625,-0.15625 -1.01563,-0.23437 -0.4375,-0.0937 -1.10937,-0.0937 -1.09375,0 -2.17188,0.65625 -1.0625,0.64062 -1.82812,2.25 v 6.1875 z m 19.54058,0.28125 q -1.84375,0 -3.34375,-0.71875 -1.5,-0.73438 -2.39062,-2.14063 -0.875,-1.40625 -0.875,-3.375 0,-1.9375 0.89062,-3.34375 0.89063,-1.40625 2.29688,-2.14062 1.42187,-0.75 3.01562,-0.75 1.84375,0 3.09375,0.75 1.25,0.75 1.875,2.04687 0.64063,1.28125 0.64063,2.90625 0,0.48438 -0.0625,0.9375 -0.0469,0.4375 -0.10938,0.65625 h -9.01562 v -2.375 h 6.64062 l -0.54687,0.67188 q 0,-1.45313 -0.60938,-2.17188 -0.60937,-0.73437 -1.79687,-0.73437 -0.85938,0 -1.51563,0.39062 -0.64062,0.375 -1,1.17188 -0.35937,0.78125 -0.35937,1.98437 0,1.21875 0.42187,2 0.4375,0.78125 1.25,1.17188 0.82813,0.375 1.98438,0.375 0.8125,0 1.54687,-0.20313 0.73438,-0.21875 1.51563,-0.625 l 1.17187,2.125 q -1.03125,0.65625 -2.28125,1.03125 -1.23437,0.35938 -2.4375,0.35938 z"
     fill-rule="nonzero"
     id="path8"
     clip-path="url(#clipPath49)"
     transform="translate(-43.021286,-168.12235)" />
  <path
     fill="#e91d63"
     d="m 53.552536,239.0911 -8.953125,-6.0625 v -1.5 l 8.953125,-6.0625 v 1.89062 l -7.21875,4.875 v 0.0937 l 7.21875,4.875 z"
     fill-rule="nonzero"
     id="path9"
     clip-path="url(#clipPath48)"
     transform="translate(-43.021286,-168.12235)" />
  <path
     fill="#9c26b0"
     d="m 58.35875,240.24734 v -17.09375 h 1.96875 v 4.65625 l -0.125,2.76562 h 0.07813 q 0.890625,-0.95312 1.9375,-1.60937 1.0625,-0.67188 2.421875,-0.67188 2.0625,0 3.046875,1.20313 0.984375,1.20312 0.984375,3.5 v 7.25 H 66.7025 v -6.98438 q 0,-1.65625 -0.625,-2.45312 -0.609375,-0.8125 -2.0625,-0.8125 -1.03125,0 -1.84375,0.53125 -0.8125,0.53125 -1.84375,1.57812 v 8.14063 z m 14.493713,0 v -1.625 h 4.421875 v -11.28125 h -3.4375 v -1.28125 q 0.90625,-0.10938 1.59375,-0.28125 0.703125,-0.17188 1.28125,-0.375 0.578125,-0.20313 1.0625,-0.46875 h 1.46875 v 13.6875 h 4 v 1.625 z"
     fill-rule="nonzero"
     id="path10"
     clip-path="url(#clipPath47)"
     transform="translate(-43.021286,-168.12235)" />
  <path
     fill="#01afd1"
     d="m 107.52739,240.5286 q -1.70313,0 -2.75,-0.90625 -1.03125,-0.90625 -1.03125,-2.5 0,-0.32813 0.0625,-0.6875 0.0781,-0.35938 0.17187,-0.75 l 1.17188,-4.78125 h -3.9375 l 0.5625,-2.5625 h 7.1875 l -1.76563,7.51562 q -0.0312,0.14063 -0.0625,0.29688 -0.0312,0.15625 -0.0312,0.32812 0,0.73438 0.40625,1.04688 0.40625,0.3125 1.03125,0.3125 0.45313,0 0.875,-0.10938 0.4375,-0.125 1,-0.35937 l 0.67188,2.46875 q -0.78125,0.3125 -1.625,0.5 -0.82813,0.1875 -1.9375,0.1875 z m 0.0312,-14.07813 q -0.79688,0 -1.4375,-0.46875 -0.64063,-0.46875 -0.64063,-1.40625 0,-0.59375 0.32813,-1.125 0.32812,-0.53125 0.85937,-0.84375 0.54688,-0.3125 1.21875,-0.3125 0.90625,0 1.5,0.48438 0.59375,0.48437 0.59375,1.39062 0,0.95313 -0.71875,1.625 -0.70312,0.65625 -1.70312,0.65625 z m 10.86871,14.07813 q -1.75,0 -2.8125,-1.1875 -1.04687,-1.1875 -1.04687,-3.40625 0,-1.64063 0.51562,-3.0625 0.51563,-1.4375 1.39063,-2.51563 0.89062,-1.07812 2.04687,-1.6875 1.15625,-0.60937 2.42188,-0.60937 1.1875,0 1.95312,0.39062 0.76563,0.375 1.21875,1.04688 h 0.0469 l 0.29687,-2.26563 0.73438,-3.8125 h 3.26562 l -3.375,16.82813 h -2.67187 l 0.0469,-1.625 h -0.0937 q -0.84375,0.875 -1.875,1.39062 -1.03125,0.51563 -2.0625,0.51563 z m 1.25,-2.6875 q 0.67188,0 1.46875,-0.4375 0.8125,-0.4375 1.5,-1.375 l 0.875,-4.15625 q -0.34375,-0.59375 -0.90625,-0.85938 -0.5625,-0.26562 -1.09375,-0.26562 -0.6875,0 -1.34375,0.35937 -0.64062,0.35938 -1.15625,1.01563 -0.5,0.64062 -0.79687,1.5 -0.28125,0.85937 -0.28125,1.89062 0,1.1875 0.48437,1.76563 0.48438,0.5625 1.25,0.5625 z"
     fill-rule="nonzero"
     id="path11"
     clip-path="url(#clipPath46)"
     transform="translate(-43.021286,-168.12235)" />
  <path
     fill="#333333"
     d="m 129.81169,230.79422 v -2.5 h 11.03125 v 2.5 z m 0,5.5625 v -2.5 h 11.03125 v 2.5 z"
     fill-rule="nonzero"
     id="path12"
     clip-path="url(#clipPath45)"
     transform="translate(-43.021286,-168.12235)" />
  <path
     fill="#0090ac"
     d="m 146.5554,233.29422 q -1.3125,0 -2.0625,-1.01563 -0.73438,-1.03125 -0.73438,-2.82812 0,-1.95313 1.03125,-3.45313 1.04688,-1.51562 3.15625,-2.48437 l 0.92188,1.875 q -1.32813,0.60937 -2.01563,1.51562 -0.67187,0.89063 -0.67187,2.14063 l 0.14062,2.28125 -1.42187,-1.95313 q 0.34375,-0.28125 0.82812,-0.48437 0.5,-0.20313 0.95313,-0.20313 0.95312,0 1.5625,0.59375 0.625,0.59375 0.625,1.57813 0,1.10937 -0.65625,1.78125 -0.64063,0.65625 -1.65625,0.65625 z m 6.375,0 q -1.3125,0 -2.0625,-1.01563 -0.73438,-1.03125 -0.73438,-2.82812 0,-1.95313 1.03125,-3.45313 1.04688,-1.51562 3.15625,-2.48437 l 0.92188,1.875 q -1.32813,0.60937 -2.01563,1.51562 -0.67187,0.89063 -0.67187,2.14063 l 0.14062,2.28125 -1.42187,-1.95313 q 0.34375,-0.28125 0.82812,-0.48437 0.5,-0.20313 0.95313,-0.20313 0.95312,0 1.5625,0.59375 0.625,0.59375 0.625,1.57813 0,1.10937 -0.65625,1.78125 -0.64063,0.65625 -1.65625,0.65625 z m 13.30621,7.23437 q -1.89062,0 -3.01562,-0.65625 -1.10938,-0.65625 -1.625,-1.82812 -0.5,-1.1875 -0.5,-2.73438 v -4.20312 h -2.96875 v -2.625 l 3.14062,-0.14063 0.45313,-3.64062 h 2.90625 v 3.64062 h 5.04687 v 2.76563 h -5.04687 v 4.17187 q 0,0.89063 0.26562,1.45313 0.26563,0.54687 0.8125,0.79687 0.5625,0.25 1.42188,0.25 0.6875,0 1.26562,-0.125 0.57813,-0.125 1.10938,-0.3125 l 0.625,2.54688 q -0.79688,0.23437 -1.75,0.4375 -0.9375,0.20312 -2.14063,0.20312 z m 11.75934,-0.28125 v -9.14062 h -4.79687 v -2.76563 h 8.32812 v 11.90625 z m 1.46875,-13.46875 -1.73437,-1.71875 3.67187,-4.375 2.40625,2.35938 z m 15.57184,13.75 q -1.89063,0 -3.01563,-0.65625 -1.10937,-0.65625 -1.625,-1.82812 -0.5,-1.1875 -0.5,-2.73438 v -4.20312 h -2.96875 v -2.625 l 3.14063,-0.14063 0.45312,-3.64062 h 2.90625 v 3.64062 h 5.04688 v 2.76563 h -5.04688 v 4.17187 q 0,0.89063 0.26563,1.45313 0.26562,0.54687 0.8125,0.79687 0.5625,0.25 1.42187,0.25 0.6875,0 1.26563,-0.125 0.57812,-0.125 1.10937,-0.3125 l 0.625,2.54688 q -0.79687,0.23437 -1.75,0.4375 -0.9375,0.20312 -2.14062,0.20312 z m 10.44684,0 q -2.04688,0 -2.96875,-1.28125 -0.90625,-1.29687 -0.90625,-3.5625 v -7.34375 h 3.53125 v 6.89063 q 0,1.20312 0.375,1.75 0.375,0.54687 1.35937,0.54687 0.67188,0 1.1875,-0.28125 0.53125,-0.28125 1.14063,-1.07812 v -7.82813 h 3.51562 v 11.90625 h -2.875 l -0.26562,-1.70312 h -0.0937 q -0.79688,0.89062 -1.76563,1.4375 -0.95312,0.54687 -2.23437,0.54687 z m 18.52496,0 q -2.23437,0 -3.39062,-1.34375 -1.15625,-1.34375 -1.15625,-3.59375 v -9.39062 h -3.71875 v -2.75 h 7.25 v 12.28125 q 0,1.10937 0.59375,1.53125 0.60937,0.42187 1.32812,0.42187 0.4375,0 0.875,-0.0937 0.45313,-0.10937 1,-0.29687 l 0.76563,2.59375 q -0.90625,0.28125 -1.67188,0.45312 -0.75,0.1875 -1.875,0.1875 z m 12.11871,0 q -1.5625,0 -2.95312,-0.71875 -1.39063,-0.73437 -2.26563,-2.14062 -0.85937,-1.40625 -0.85937,-3.375 0,-1.96875 0.85937,-3.375 0.875,-1.40625 2.26563,-2.125 1.39062,-0.73438 2.95312,-0.73438 1.5625,0 2.95313,0.73438 1.39062,0.71875 2.25,2.125 0.85937,1.40625 0.85937,3.375 0,1.96875 -0.85937,3.375 -0.85938,1.40625 -2.25,2.14062 -1.39063,0.71875 -2.95313,0.71875 z m 0,-2.84375 q 0.8125,0 1.34375,-0.40625 0.54688,-0.42187 0.8125,-1.1875 0.28125,-0.76562 0.28125,-1.79687 0,-1.03125 -0.28125,-1.79688 -0.26562,-0.76562 -0.8125,-1.17187 -0.53125,-0.42188 -1.34375,-0.42188 -0.8125,0 -1.35937,0.42188 -0.54688,0.40625 -0.82813,1.17187 -0.26562,0.76563 -0.26562,1.79688 0,1.03125 0.26562,1.79687 0.28125,0.76563 0.82813,1.1875 0.54687,0.40625 1.35937,0.40625 z m 9.79059,-4.39062 -0.9375,-1.875 q 1.34375,-0.60938 2.01563,-1.5 0.67187,-0.90625 0.67187,-2.15625 l -0.14062,-2.28125 1.42187,1.95312 q -0.34375,0.28125 -0.82812,0.5 -0.46875,0.21875 -0.92188,0.21875 -0.96875,0 -1.59375,-0.60937 -0.625,-0.60938 -0.625,-1.59375 0,-1.09375 0.65625,-1.76563 0.67188,-0.67187 1.65625,-0.67187 1.34375,0 2.0625,1.01562 0.73438,1 0.73438,2.82813 0,1.96875 -1.04688,3.46875 -1.03125,1.5 -3.125,2.46875 z m 6.375,0 -0.9375,-1.875 q 1.34375,-0.60938 2.01563,-1.5 0.67187,-0.90625 0.67187,-2.15625 l -0.14062,-2.28125 1.42187,1.95312 q -0.34375,0.28125 -0.82812,0.5 -0.46875,0.21875 -0.92188,0.21875 -0.96875,0 -1.59375,-0.60937 -0.625,-0.60938 -0.625,-1.59375 0,-1.09375 0.65625,-1.76563 0.67188,-0.67187 1.65625,-0.67187 1.34375,0 2.0625,1.01562 0.73436,1 0.73436,2.82813 0,1.96875 -1.04686,3.46875 -1.03125,1.5 -3.125,2.46875 z"
     fill-rule="nonzero"
     id="path13"
     clip-path="url(#clipPath44)"
     transform="translate(-43.021286,-168.12235)" />
  <path
     fill="#e91d63"
     d="m 260.28635,239.0911 v -1.89063 l 7.23438,-4.875 v -0.0937 l -7.23438,-4.875 v -1.89062 l 8.95313,6.0625 v 1.5 z"
     fill-rule="nonzero"
     id="path14"
     clip-path="url(#clipPath43)"
     transform="translate(-43.021286,-168.12235)" />
  <path
     fill="#424242"
     d="m 279.4363,240.5286 q -1.71875,0 -3.17187,-0.625 -1.45313,-0.64063 -2.53125,-1.70313 l 1.20312,-1.39062 q 0.89063,0.89062 2.07813,1.4375 1.1875,0.53125 2.53125,0.53125 1.625,0 2.51562,-0.6875 0.90625,-0.70313 0.90625,-1.79688 0,-0.84375 -0.375,-1.34375 -0.35937,-0.51562 -1,-0.84375 -0.64062,-0.34375 -1.45312,-0.67187 l -2.25,-0.98438 q -0.79688,-0.34375 -1.57813,-0.84375 -0.78125,-0.5 -1.3125,-1.28125 -0.51562,-0.78125 -0.51562,-1.9375 0,-1.20312 0.65625,-2.14062 0.65625,-0.95313 1.82812,-1.48438 1.1875,-0.54687 2.67188,-0.54687 1.48437,0 2.73437,0.54687 1.25,0.53125 2.10938,1.39063 l -1.0625,1.29687 q -0.76563,-0.6875 -1.70313,-1.07812 -0.9375,-0.40625 -2.15625,-0.40625 -1.35937,0 -2.20312,0.60937 -0.84375,0.60938 -0.84375,1.70313 0,0.73437 0.42187,1.21875 0.42188,0.48437 1.0625,0.79687 0.65625,0.3125 1.32813,0.59375 l 2.20312,0.95313 q 0.98438,0.39062 1.76563,0.9375 0.79687,0.53125 1.25,1.32812 0.46875,0.78125 0.46875,1.9375 0,1.25 -0.67188,2.28125 -0.67187,1.01563 -1.92187,1.60938 -1.25,0.59375 -2.98438,0.59375 z m 14.66559,-0.28125 v -10.0625 h -5.42188 v -1.59375 h 7.39063 v 11.65625 z m 0.78125,-14.10938 q -0.67188,0 -1.14063,-0.42187 -0.45312,-0.42188 -0.45312,-1.10938 0,-0.70312 0.45312,-1.125 0.46875,-0.42187 1.14063,-0.42187 0.67187,0 1.125,0.42187 0.45312,0.42188 0.45312,1.125 0,0.6875 -0.45312,1.10938 -0.45313,0.42187 -1.125,0.42187 z m 8.27496,14.10938 V 228.5911 h 1.625 l 0.17188,1.98437 h 0.0937 q 0.92187,-0.98437 1.96875,-1.625 1.0625,-0.65625 2.42187,-0.65625 2.0625,0 3.04688,1.20313 0.98437,1.20312 0.98437,3.5 v 7.25 h -1.96875 v -6.98438 q 0,-1.65625 -0.625,-2.45312 -0.60937,-0.8125 -2.0625,-0.8125 -1.03125,0 -1.84375,0.53125 -0.8125,0.53125 -1.84375,1.57812 v 8.14063 z m 21.61871,0.28125 q -1.70312,0 -2.6875,-0.60938 -0.98437,-0.60937 -1.40625,-1.6875 -0.42187,-1.07812 -0.42187,-2.51562 v -5.53125 h -3.28125 v -1.48438 l 3.35937,-0.10937 0.26563,-3.75 h 1.625 v 3.75 h 5.73437 v 1.59375 h -5.73437 v 5.54687 q 0,1.03125 0.26562,1.75 0.26563,0.71875 0.90625,1.09375 0.65625,0.35938 1.78125,0.35938 0.84375,0 1.51563,-0.14063 0.67187,-0.15625 1.29687,-0.39062 l 0.4375,1.4375 q -0.79687,0.28125 -1.67187,0.48437 -0.875,0.20313 -1.98438,0.20313 z m 10.85309,0 q -1.07812,0 -2,-0.39063 -0.90625,-0.39062 -1.4375,-1.125 -0.53125,-0.75 -0.53125,-1.79687 0,-1.95313 1.96875,-2.96875 1.96875,-1.03125 6.48438,-1.39063 -0.0156,-0.79687 -0.32813,-1.46875 -0.29687,-0.67187 -0.96875,-1.0625 -0.67187,-0.39062 -1.79687,-0.39062 -0.75,0 -1.48438,0.20312 -0.71875,0.20313 -1.39062,0.53125 -0.65625,0.3125 -1.20313,0.65625 l -0.76562,-1.34375 q 0.57812,-0.39062 1.40625,-0.78125 0.82812,-0.40625 1.78125,-0.65625 0.95312,-0.25 1.98437,-0.25 1.60938,0 2.65625,0.60938 1.04688,0.59375 1.5625,1.67187 0.51563,1.0625 0.51563,2.51563 v 7.15625 h -1.60938 l -0.17187,-1.57813 h -0.0625 q -0.96875,0.76563 -2.17188,1.3125 -1.1875,0.54688 -2.4375,0.54688 z m 0.53125,-1.57813 q 1,0 1.98438,-0.45312 0.98437,-0.45313 1.96875,-1.28125 v -3.0625 q -2.5,0.21875 -3.92188,0.60937 -1.42187,0.375 -2.01562,0.96875 -0.59375,0.57813 -0.59375,1.34375 0,0.65625 0.35937,1.07813 0.35938,0.40625 0.95313,0.60937 0.59375,0.1875 1.26562,0.1875 z m 9.49372,1.29688 4.4375,-6.04688 -4.09375,-5.60937 h 2.1875 l 1.84375,2.5625 q 0.3125,0.45312 0.67187,0.96875 0.35938,0.5 0.6875,1 h 0.10938 q 0.3125,-0.5 0.65625,-1.01563 0.34375,-0.51562 0.65625,-1 l 1.75,-2.51562 h 2.09375 l -4.15625,5.78125 4.46875,5.875 h -2.15625 l -2.04688,-2.6875 q -0.35937,-0.5 -0.76562,-1.04688 -0.39063,-0.5625 -0.76563,-1.0625 h -0.0937 q -0.375,0.5 -0.73437,1.03125 -0.35938,0.53125 -0.71875,1.07813 l -1.92188,2.6875 z m 20.44683,0 v -10.0625 h -5.42187 v -1.59375 h 7.39062 v 11.65625 z m 0.78125,-14.10938 q -0.67187,0 -1.14062,-0.42187 -0.45313,-0.42188 -0.45313,-1.10938 0,-0.70312 0.45313,-1.125 0.46875,-0.42187 1.14062,-0.42187 0.67188,0 1.125,0.42187 0.45313,0.42188 0.45313,1.125 0,0.6875 -0.45313,1.10938 -0.45312,0.42187 -1.125,0.42187 z m 13.47809,14.39063 q -1.70312,0 -3.1875,-0.54688 -1.48437,-0.54687 -2.54687,-1.26562 l 0.90625,-1.29688 q 1.01562,0.71875 2.23437,1.15625 1.23438,0.42188 2.84375,0.42188 1.48438,0 2.20313,-0.54688 0.73437,-0.5625 0.73437,-1.28125 0,-0.32812 -0.125,-0.60937 -0.125,-0.29688 -0.5,-0.5625 -0.375,-0.26563 -1.09375,-0.5 -0.71875,-0.23438 -1.92187,-0.48438 -2.28125,-0.48437 -3.42188,-1.29687 -1.14062,-0.8125 -1.14062,-2.10938 0,-1.42187 1.21875,-2.35937 1.23437,-0.95313 3.625,-0.95313 1.34375,0 2.59375,0.45313 1.25,0.4375 2.10937,1.03125 l -0.95312,1.28125 q -0.79688,-0.57813 -1.8125,-0.90625 -1,-0.32813 -2.09375,-0.32813 -1.01563,0 -1.60938,0.23438 -0.57812,0.23437 -0.82812,0.625 -0.25,0.375 -0.25,0.82812 0,0.75 0.79687,1.17188 0.8125,0.40625 2.57813,0.76562 1.95312,0.40625 2.98437,0.92188 1.04688,0.5 1.4375,1.15625 0.40625,0.64062 0.40625,1.53125 0,0.95312 -0.60937,1.73437 -0.59375,0.78125 -1.75,1.26563 -1.14063,0.46875 -2.82813,0.46875 z m 27.86243,0 q -2.28125,0 -3.67188,-1.59375 -1.39062,-1.59375 -1.39062,-4.5 0,-1.89063 0.75,-3.26563 0.76562,-1.39062 1.96875,-2.125 1.21875,-0.75 2.59375,-0.75 1.03125,0 1.875,0.40625 0.85937,0.39063 1.59375,1.10938 h 0.0781 l -0.0937,-2.15625 v -4.5 h 1.96875 v 17.09375 h -1.64062 l -0.15625,-1.53125 h -0.0781 q -0.70312,0.73437 -1.70312,1.28125 -0.98438,0.53125 -2.09375,0.53125 z m 0.40625,-1.65625 q 0.875,0 1.6875,-0.4375 0.8125,-0.4375 1.60937,-1.3125 v -5.79688 q -0.79687,-0.75 -1.5625,-1.0625 -0.75,-0.3125 -1.51562,-0.3125 -1,0 -1.82813,0.5625 -0.82812,0.5625 -1.32812,1.5625 -0.48438,1 -0.48438,2.34375 0,2.07813 0.90625,3.26563 0.90625,1.1875 2.51563,1.1875 z m 15.41559,1.65625 q -1.75,0 -3.1875,-0.71875 -1.42188,-0.71875 -2.26563,-2.09375 -0.84375,-1.375 -0.84375,-3.32813 0,-1.89062 0.84375,-3.25 0.84375,-1.375 2.20313,-2.10937 1.35937,-0.73438 2.90625,-0.73438 1.6875,0 2.875,0.6875 1.1875,0.6875 1.8125,1.90625 0.64062,1.21875 0.64062,2.875 0,0.34375 -0.0312,0.65625 -0.0156,0.3125 -0.0625,0.54688 h -9.85937 v -1.53125 h 8.6875 l -0.5,0.54687 q 0,-2.0625 -0.95313,-3.09375 -0.95312,-1.03125 -2.5625,-1.03125 -1.07812,0 -2,0.53125 -0.92187,0.51563 -1.48437,1.53125 -0.54688,1.01563 -0.54688,2.46875 0,1.51563 0.59375,2.53125 0.60938,1 1.64063,1.51563 1.03125,0.51562 2.32812,0.51562 1.0625,0 1.90625,-0.29687 0.85938,-0.29688 1.65625,-0.8125 l 0.71875,1.29687 q -0.875,0.57813 -1.98437,0.98438 -1.10938,0.40625 -2.53125,0.40625 z m 28.79992,0 q -1.75,0 -3.1875,-0.71875 -1.42187,-0.71875 -2.26562,-2.09375 -0.84375,-1.375 -0.84375,-3.32813 0,-1.89062 0.84375,-3.25 0.84375,-1.375 2.20312,-2.10937 1.35938,-0.73438 2.90625,-0.73438 1.6875,0 2.875,0.6875 1.1875,0.6875 1.8125,1.90625 0.64063,1.21875 0.64063,2.875 0,0.34375 -0.0312,0.65625 -0.0156,0.3125 -0.0625,0.54688 h -9.85938 v -1.53125 h 8.6875 l -0.5,0.54687 q 0,-2.0625 -0.95312,-3.09375 -0.95313,-1.03125 -2.5625,-1.03125 -1.07813,0 -2,0.53125 -0.92188,0.51563 -1.48438,1.53125 -0.54687,1.01563 -0.54687,2.46875 0,1.51563 0.59375,2.53125 0.60937,1 1.64062,1.51563 1.03125,0.51562 2.32813,0.51562 1.0625,0 1.90625,-0.29687 0.85937,-0.29688 1.65625,-0.8125 l 0.71875,1.29687 q -0.875,0.57813 -1.98438,0.98438 -1.10937,0.40625 -2.53125,0.40625 z m 15.93122,0 q -1.70313,0 -2.6875,-0.60938 -0.98438,-0.60937 -1.40625,-1.6875 -0.42188,-1.07812 -0.42188,-2.51562 v -5.53125 h -3.28125 v -1.48438 l 3.35938,-0.10937 0.26562,-3.75 h 1.625 v 3.75 h 5.73438 v 1.59375 h -5.73438 v 5.54687 q 0,1.03125 0.26563,1.75 0.26562,0.71875 0.90625,1.09375 0.65625,0.35938 1.78125,0.35938 0.84375,0 1.51562,-0.14063 0.67188,-0.15625 1.29688,-0.39062 l 0.4375,1.4375 q -0.79688,0.28125 -1.67188,0.48437 -0.875,0.20313 -1.98437,0.20313 z m 12.52496,-0.28125 v -10.0625 h -5.42188 v -1.59375 h 7.39063 v 11.65625 z m 0.78125,-14.10938 q -0.67188,0 -1.14063,-0.42187 -0.45312,-0.42188 -0.45312,-1.10938 0,-0.70312 0.45312,-1.125 0.46875,-0.42187 1.14063,-0.42187 0.67187,0 1.125,0.42187 0.45312,0.42188 0.45312,1.125 0,0.6875 -0.45312,1.10938 -0.45313,0.42187 -1.125,0.42187 z m 16.24371,19.03125 v -4.25 l 0.0937,-2.15625 h -0.0781 q -0.6875,0.73438 -1.67188,1.25 -0.98437,0.51563 -2.0625,0.51563 -2.26562,0 -3.65625,-1.59375 -1.39062,-1.59375 -1.39062,-4.5 0,-1.89063 0.75,-3.26563 0.76562,-1.39062 1.96875,-2.125 1.21875,-0.75 2.59375,-0.75 1.04687,0 1.90625,0.40625 0.875,0.39063 1.6875,1.17188 h 0.0781 l 0.15625,-1.28125 h 1.59375 v 16.57812 z m -3.29687,-6.29687 q 0.875,0 1.6875,-0.4375 0.8125,-0.4375 1.60937,-1.3125 v -5.79688 q -0.79687,-0.75 -1.5625,-1.0625 -0.75,-0.3125 -1.51562,-0.3125 -1,0 -1.82813,0.5625 -0.82812,0.5625 -1.32812,1.5625 -0.48438,1 -0.48438,2.34375 0,2.07813 0.90625,3.26563 0.90625,1.1875 2.51563,1.1875 z m 13.39996,1.65625 q -2.09375,0 -3.07812,-1.1875 -0.98438,-1.20313 -0.98438,-3.51563 v -7.23437 h 2 v 6.96875 q 0,1.65625 0.60938,2.46875 0.60937,0.79687 2.07812,0.79687 1,0 1.82813,-0.51562 0.82812,-0.51563 1.7969,-1.64063 v -8.07812 h 1.96875 v 11.65625 h -1.60937 l -0.17188,-2.04688 h -0.0937 q -0.89065,1.01563 -1.95315,1.67188 -1.04688,0.65625 -2.39063,0.65625 z m 16.41562,0 q -1.75,0 -3.1875,-0.71875 -1.42188,-0.71875 -2.26563,-2.09375 -0.84375,-1.375 -0.84375,-3.32813 0,-1.89062 0.84375,-3.25 0.84375,-1.375 2.20313,-2.10937 1.35937,-0.73438 2.90625,-0.73438 1.6875,0 2.875,0.6875 1.1875,0.6875 1.8125,1.90625 0.64062,1.21875 0.64062,2.875 0,0.34375 -0.0312,0.65625 -0.0156,0.3125 -0.0625,0.54688 h -9.85937 v -1.53125 h 8.6875 l -0.5,0.54687 q 0,-2.0625 -0.95313,-3.09375 -0.95312,-1.03125 -2.5625,-1.03125 -1.07812,0 -2,0.53125 -0.92187,0.51563 -1.48437,1.53125 -0.54688,1.01563 -0.54688,2.46875 0,1.51563 0.59375,2.53125 0.60938,1 1.64063,1.51563 1.03125,0.51562 2.32812,0.51562 1.0625,0 1.90625,-0.29687 0.85938,-0.29688 1.65625,-0.8125 l 0.71875,1.29687 q -0.875,0.57813 -1.98437,0.98438 -1.10938,0.40625 -2.53125,0.40625 z m 15.93121,0 q -1.70312,0 -2.6875,-0.60938 -0.98437,-0.60937 -1.40625,-1.6875 -0.42187,-1.07812 -0.42187,-2.51562 v -5.53125 h -3.28125 v -1.48438 l 3.35937,-0.10937 0.26563,-3.75 h 1.625 v 3.75 h 5.73437 v 1.59375 h -5.73437 v 5.54687 q 0,1.03125 0.26562,1.75 0.26563,0.71875 0.90625,1.09375 0.65625,0.35938 1.78125,0.35938 0.84375,0 1.51563,-0.14063 0.67187,-0.15625 1.29687,-0.39062 l 0.4375,1.4375 q -0.79687,0.28125 -1.67187,0.48437 -0.875,0.20313 -1.98438,0.20313 z m 10.85309,0 q -1.07812,0 -2,-0.39063 -0.90625,-0.39062 -1.4375,-1.125 -0.53125,-0.75 -0.53125,-1.79687 0,-1.95313 1.96875,-2.96875 1.96875,-1.03125 6.48438,-1.39063 -0.0156,-0.79687 -0.32813,-1.46875 -0.29687,-0.67187 -0.96875,-1.0625 -0.67187,-0.39062 -1.79687,-0.39062 -0.75,0 -1.48438,0.20312 -0.71875,0.20313 -1.39062,0.53125 -0.65625,0.3125 -1.20313,0.65625 l -0.76562,-1.34375 q 0.57812,-0.39062 1.40625,-0.78125 0.82812,-0.40625 1.78125,-0.65625 0.95312,-0.25 1.98437,-0.25 1.60938,0 2.65625,0.60938 1.04688,0.59375 1.5625,1.67187 0.51563,1.0625 0.51563,2.51563 v 7.15625 h -1.60938 l -0.17187,-1.57813 h -0.0625 q -0.96875,0.76563 -2.17188,1.3125 -1.1875,0.54688 -2.4375,0.54688 z m 0.53125,-1.57813 q 1,0 1.98438,-0.45312 0.98437,-0.45313 1.96875,-1.28125 v -3.0625 q -2.5,0.21875 -3.92188,0.60937 -1.42187,0.375 -2.01562,0.96875 -0.59375,0.57813 -0.59375,1.34375 0,0.65625 0.35937,1.07813 0.35938,0.40625 0.95313,0.60937 0.59375,0.1875 1.26562,0.1875 z m 30.6593,1.57813 q -1.8125,0 -3.26562,-0.71875 -1.45313,-0.71875 -2.28125,-2.07813 -0.82813,-1.375 -0.82813,-3.29687 0,-1.96875 0.89063,-3.32813 0.89062,-1.375 2.35937,-2.09375 1.46875,-0.71875 3.25,-0.71875 1.4375,0 2.48438,0.51563 1.04687,0.5 1.76562,1.1875 l -0.98437,1.28125 q -0.71875,-0.625 -1.48438,-0.98438 -0.76562,-0.35937 -1.70312,-0.35937 -1.34375,0 -2.375,0.5625 -1.03125,0.5625 -1.60938,1.57812 -0.5625,1.01563 -0.5625,2.35938 0,1.32812 0.54688,2.34375 0.5625,1 1.57812,1.5625 1.03125,0.5625 2.375,0.5625 1.07813,0 1.96875,-0.42188 0.90625,-0.4375 1.625,-1.04687 l 0.89063,1.28125 q -0.96875,0.85937 -2.15625,1.34375 -1.1875,0.46875 -2.48438,0.46875 z m 13.30622,0 q -1.54688,0 -2.85938,-0.71875 -1.29687,-0.71875 -2.10937,-2.07813 -0.79688,-1.375 -0.79688,-3.29687 0,-1.96875 0.79688,-3.32813 0.8125,-1.375 2.10937,-2.09375 1.3125,-0.71875 2.85938,-0.71875 1.53125,0 2.84375,0.71875 1.3125,0.71875 2.10937,2.09375 0.79688,1.35938 0.79688,3.32813 0,1.92187 -0.79688,3.29687 -0.79687,1.35938 -2.10937,2.07813 -1.3125,0.71875 -2.84375,0.71875 z m 0,-1.625 q 1.125,0 1.96875,-0.5625 0.84375,-0.5625 1.29687,-1.5625 0.45313,-1.01563 0.45313,-2.34375 0,-1.34375 -0.45313,-2.35938 -0.45312,-1.01562 -1.29687,-1.57812 -0.84375,-0.5625 -1.96875,-0.5625 -1.125,0 -1.95313,0.5625 -0.82812,0.5625 -1.29687,1.57812 -0.46875,1.01563 -0.46875,2.35938 0,1.32812 0.46875,2.34375 0.46875,1 1.29687,1.5625 0.82813,0.5625 1.95313,0.5625 z m 9.43121,1.34375 V 228.5911 h 1.625 l 0.17187,1.98437 h 0.0937 q 0.92188,-0.98437 1.96875,-1.625 1.0625,-0.65625 2.42188,-0.65625 2.0625,0 3.04687,1.20313 0.98438,1.20312 0.98438,3.5 v 7.25 h -1.96875 v -6.98438 q 0,-1.65625 -0.625,-2.45312 -0.60938,-0.8125 -2.0625,-0.8125 -1.03125,0 -1.84375,0.53125 -0.8125,0.53125 -1.84375,1.57812 v 8.14063 z m 34.86243,0.28125 q -1.8125,0 -3.26563,-0.71875 -1.45312,-0.71875 -2.28125,-2.07813 -0.82812,-1.375 -0.82812,-3.29687 0,-1.96875 0.89062,-3.32813 0.89063,-1.375 2.35938,-2.09375 1.46875,-0.71875 3.25,-0.71875 1.4375,0 2.48437,0.51563 1.04688,0.5 1.76563,1.1875 l -0.98438,1.28125 q -0.71875,-0.625 -1.48437,-0.98438 -0.76563,-0.35937 -1.70313,-0.35937 -1.34375,0 -2.375,0.5625 -1.03125,0.5625 -1.60937,1.57812 -0.5625,1.01563 -0.5625,2.35938 0,1.32812 0.54687,2.34375 0.5625,1 1.57813,1.5625 1.03125,0.5625 2.375,0.5625 1.07812,0 1.96875,-0.42188 0.90625,-0.4375 1.625,-1.04687 l 0.89062,1.28125 q -0.96875,0.85937 -2.15625,1.34375 -1.1875,0.46875 -2.48437,0.46875 z m 13.68121,-0.28125 v -10.0625 h -5.42188 v -1.59375 h 7.39063 v 11.65625 z m 0.78125,-14.10938 q -0.67188,0 -1.14063,-0.42187 -0.45312,-0.42188 -0.45312,-1.10938 0,-0.70312 0.45312,-1.125 0.46875,-0.42187 1.14063,-0.42187 0.67187,0 1.125,0.42187 0.45312,0.42188 0.45312,1.125 0,0.6875 -0.45312,1.10938 -0.45313,0.42187 -1.125,0.42187 z m 13.96246,14.39063 q -1.75,0 -3.1875,-0.71875 -1.42187,-0.71875 -2.26562,-2.09375 -0.84375,-1.375 -0.84375,-3.32813 0,-1.89062 0.84375,-3.25 0.84375,-1.375 2.20312,-2.10937 1.35938,-0.73438 2.90625,-0.73438 1.6875,0 2.875,0.6875 1.1875,0.6875 1.8125,1.90625 0.64063,1.21875 0.64063,2.875 0,0.34375 -0.0312,0.65625 -0.0156,0.3125 -0.0625,0.54688 h -9.85938 v -1.53125 h 8.6875 l -0.5,0.54687 q 0,-2.0625 -0.95312,-3.09375 -0.95313,-1.03125 -2.5625,-1.03125 -1.07813,0 -2,0.53125 -0.92188,0.51563 -1.48438,1.53125 -0.54687,1.01563 -0.54687,2.46875 0,1.51563 0.59375,2.53125 0.60937,1 1.64062,1.51563 1.03125,0.51562 2.32813,0.51562 1.0625,0 1.90625,-0.29687 0.85937,-0.29688 1.65625,-0.8125 l 0.71875,1.29687 q -0.875,0.57813 -1.98438,0.98438 -1.10937,0.40625 -2.53125,0.40625 z m 9.97809,-0.28125 V 228.5911 h 1.64062 l 0.15625,2.75 h 0.0781 q 0.90625,-1.40625 2.25,-2.21875 1.34375,-0.82813 2.95312,-0.82813 0.65625,0 1.21875,0.10938 0.5625,0.10937 1.09375,0.375 l -0.45312,1.70312 q -0.60938,-0.21875 -1.04688,-0.3125 -0.42187,-0.0937 -1.125,-0.0937 -1.3125,0 -2.53125,0.76563 -1.20312,0.75 -2.26562,2.5625 v 6.84375 z m 14.39996,0 V 228.5911 h 1.64063 l 0.15625,2.75 h 0.0781 q 0.90625,-1.40625 2.25,-2.21875 1.34375,-0.82813 2.95313,-0.82813 0.65625,0 1.21875,0.10938 0.5625,0.10937 1.09375,0.375 l -0.45313,1.70312 q -0.60937,-0.21875 -1.04687,-0.3125 -0.42188,-0.0937 -1.125,-0.0937 -1.3125,0 -2.53125,0.76563 -1.20313,0.75 -2.26563,2.5625 v 6.84375 z m 18.82184,0.28125 q -1.75,0 -3.1875,-0.71875 -1.42188,-0.71875 -2.26563,-2.09375 -0.84375,-1.375 -0.84375,-3.32813 0,-1.89062 0.84375,-3.25 0.84375,-1.375 2.20313,-2.10937 1.35937,-0.73438 2.90625,-0.73438 1.6875,0 2.875,0.6875 1.1875,0.6875 1.8125,1.90625 0.64062,1.21875 0.64062,2.875 0,0.34375 -0.0312,0.65625 -0.0156,0.3125 -0.0625,0.54688 h -9.85937 v -1.53125 h 8.6875 l -0.5,0.54687 q 0,-2.0625 -0.95313,-3.09375 -0.95312,-1.03125 -2.5625,-1.03125 -1.07812,0 -2,0.53125 -0.92187,0.51563 -1.48437,1.53125 -0.54688,1.01563 -0.54688,2.46875 0,1.51563 0.59375,2.53125 0.60938,1 1.64063,1.51563 1.03125,0.51562 2.32812,0.51562 1.0625,0 1.90625,-0.29687 0.85938,-0.29688 1.65625,-0.8125 l 0.71875,1.29687 q -0.875,0.57813 -1.98437,0.98438 -1.10938,0.40625 -2.53125,0.40625 z"
     fill-rule="nonzero"
     id="path15"
     clip-path="url(#clipPath42)"
     transform="translate(-43.021286,-168.12235)" />
  <path
     fill="#e91d63"
     d="m 744.7508,239.0911 -8.95312,-6.0625 v -1.5 l 8.95312,-6.0625 v 1.89062 l -7.21875,4.875 v 0.0937 l 7.21875,4.875 z m 4.94684,5 7.875,-20.89063 h 1.78125 l -7.875,20.89063 z"
     fill-rule="nonzero"
     id="path16"
     clip-path="url(#clipPath41)"
     transform="translate(-43.021286,-168.12235)" />
  <path
     fill="#9c26b0"
     d="m 763.957,240.24734 v -17.09375 h 1.96875 v 4.65625 l -0.125,2.76562 h 0.0781 q 0.89063,-0.95312 1.9375,-1.60937 1.0625,-0.67188 2.42188,-0.67188 2.0625,0 3.04687,1.20313 0.98438,1.20312 0.98438,3.5 v 7.25 h -1.96875 v -6.98438 q 0,-1.65625 -0.625,-2.45312 -0.60938,-0.8125 -2.0625,-0.8125 -1.03125,0 -1.84375,0.53125 -0.8125,0.53125 -1.84375,1.57812 v 8.14063 z m 14.49371,0 v -1.625 h 4.42188 v -11.28125 h -3.4375 v -1.28125 q 0.90625,-0.10938 1.59375,-0.28125 0.70312,-0.17188 1.28125,-0.375 0.57812,-0.20313 1.0625,-0.46875 h 1.46875 v 13.6875 h 4 v 1.625 z"
     fill-rule="nonzero"
     id="path17"
     clip-path="url(#clipPath40)"
     transform="translate(-43.021286,-168.12235)" />
  <path
     fill="#e91d63"
     d="m 793.085,239.0911 v -1.89063 l 7.23438,-4.875 v -0.0937 l -7.23438,-4.875 v -1.89062 l 8.95313,6.0625 v 1.5 z"
     fill-rule="nonzero"
     id="path18"
     clip-path="url(#clipPath39)"
     transform="translate(-43.021286,-168.12235)" />
  <path
     fill="#424242"
     d="m 43.115036,294.24734 v -15.64063 h 3.703125 l 1.53125,5.53125 0.53125,2.17188 h 0.09375 l 0.53125,-2.17188 1.53125,-5.53125 h 3.703125 v 15.64063 h -2.984375 v -4.84375 q 0,-0.65625 0.04687,-1.625 0.04687,-0.96875 0.109375,-2.01563 0.07813,-1.0625 0.15625,-2.01562 0.09375,-0.96875 0.140625,-1.59375 h -0.0625 l -1.203125,4.17187 -1.203125,3.76563 h -1.734375 l -1.21875,-3.76563 -1.125,-4.17187 h -0.07813 q 0.04687,0.625 0.125,1.59375 0.09375,0.95312 0.15625,2.01562 0.07813,1.04688 0.125,2.01563 0.04687,0.96875 0.04687,1.625 v 4.84375 z m 20.212463,0.28125 q -1.5625,0 -2.953125,-0.71875 -1.390625,-0.73438 -2.265625,-2.14063 -0.859375,-1.40625 -0.859375,-3.375 0,-1.96875 0.859375,-3.375 0.875,-1.40625 2.265625,-2.125 1.390625,-0.73437 2.953125,-0.73437 1.5625,0 2.953125,0.73437 1.390625,0.71875 2.25,2.125 0.859375,1.40625 0.859375,3.375 0,1.96875 -0.859375,3.375 -0.859375,1.40625 -2.25,2.14063 -1.390625,0.71875 -2.953125,0.71875 z m 0,-2.84375 q 0.8125,0 1.34375,-0.40625 0.546875,-0.42188 0.8125,-1.1875 0.28125,-0.76563 0.28125,-1.79688 0,-1.03125 -0.28125,-1.79687 -0.265625,-0.76563 -0.8125,-1.17188 -0.53125,-0.42187 -1.34375,-0.42187 -0.8125,0 -1.359375,0.42187 -0.546875,0.40625 -0.828125,1.17188 -0.265625,0.76562 -0.265625,1.79687 0,1.03125 0.265625,1.79688 0.28125,0.76562 0.828125,1.1875 0.546875,0.40625 1.359375,0.40625 z m 8.931213,2.5625 v -11.90625 h 2.875 l 0.265625,1.59375 h 0.09375 q 0.765625,-0.78125 1.765625,-1.32813 1,-0.54687 2.34375,-0.54687 2.015625,0 2.9375,1.29687 0.9375,1.29688 0.9375,3.54688 v 7.34375 h -3.515625 v -6.89063 q 0,-1.20312 -0.40625,-1.75 -0.390625,-0.54687 -1.34375,-0.54687 -0.734375,0 -1.28125,0.32812 -0.53125,0.3125 -1.15625,0.92188 v 7.9375 z m 19.868713,0.28125 q -1.5625,0 -2.953125,-0.71875 -1.390625,-0.73438 -2.265625,-2.14063 -0.859375,-1.40625 -0.859375,-3.375 0,-1.96875 0.859375,-3.375 0.875,-1.40625 2.265625,-2.125 1.390625,-0.73437 2.953125,-0.73437 1.5625,0 2.953125,0.73437 1.390625,0.71875 2.25,2.125 0.859375,1.40625 0.859375,3.375 0,1.96875 -0.859375,3.375 -0.859375,1.40625 -2.25,2.14063 -1.390625,0.71875 -2.953125,0.71875 z m 0,-2.84375 q 0.8125,0 1.34375,-0.40625 0.546875,-0.42188 0.8125,-1.1875 0.28125,-0.76563 0.28125,-1.79688 0,-1.03125 -0.28125,-1.79687 -0.265625,-0.76563 -0.8125,-1.17188 -0.53125,-0.42187 -1.34375,-0.42187 -0.8125,0 -1.359375,0.42187 -0.546875,0.40625 -0.828125,1.17188 -0.265625,0.76562 -0.265625,1.79687 0,1.03125 0.265625,1.79688 0.28125,0.76562 0.828125,1.1875 0.546875,0.40625 1.359375,0.40625 z m 29.518675,2.84375 q -1.84375,0 -3.34375,-0.71875 -1.5,-0.73438 -2.39062,-2.14063 -0.875,-1.40625 -0.875,-3.375 0,-1.9375 0.89062,-3.34375 0.89063,-1.40625 2.29688,-2.14062 1.42187,-0.75 3.01562,-0.75 1.84375,0 3.09375,0.75 1.25,0.75 1.875,2.04687 0.64063,1.28125 0.64063,2.90625 0,0.48438 -0.0625,0.9375 -0.0469,0.4375 -0.10938,0.65625 h -9.01562 v -2.375 h 6.64062 l -0.54687,0.67188 q 0,-1.45313 -0.60938,-2.17188 -0.60937,-0.73437 -1.79687,-0.73437 -0.85938,0 -1.51563,0.39062 -0.64062,0.375 -1,1.17188 -0.35937,0.78125 -0.35937,1.98437 0,1.21875 0.42187,2 0.4375,0.78125 1.25,1.17188 0.82813,0.375 1.98438,0.375 0.8125,0 1.54687,-0.20313 0.73438,-0.21875 1.51563,-0.625 l 1.17187,2.125 q -1.03125,0.65625 -2.28125,1.03125 -1.23437,0.35938 -2.4375,0.35938 z m 15.79059,0 q -1.89063,0 -3.01563,-0.65625 -1.10937,-0.65625 -1.625,-1.82813 -0.5,-1.1875 -0.5,-2.73437 v -4.20313 h -2.96875 v -2.625 l 3.14063,-0.14062 0.45312,-3.64063 h 2.90625 v 3.64063 h 5.04688 v 2.76562 h -5.04688 v 4.17188 q 0,0.89062 0.26563,1.45312 0.26562,0.54688 0.8125,0.79688 0.5625,0.25 1.42187,0.25 0.6875,0 1.26563,-0.125 0.57812,-0.125 1.10937,-0.3125 l 0.625,2.54687 q -0.79687,0.23438 -1.75,0.4375 -0.9375,0.20313 -2.14062,0.20313 z m 11.75934,-0.28125 v -9.14063 h -4.79688 v -2.76562 h 8.32813 v 11.90625 z m 1.60937,-13.78125 q -1.01562,0 -1.6875,-0.57813 -0.67187,-0.59375 -0.67187,-1.54687 0,-0.98438 0.67187,-1.59375 0.67188,-0.625 1.6875,-0.625 1.03125,0 1.6875,0.625 0.65625,0.60937 0.65625,1.59375 0,0.95312 -0.65625,1.54687 -0.65625,0.57813 -1.6875,0.57813 z m 15.25934,18.20312 v -3.57812 l 0.17188,-1.92188 h -0.0937 q -0.57813,0.59375 -1.40625,0.98438 -0.82813,0.375 -1.67188,0.375 -2.25,0 -3.64062,-1.65625 -1.375,-1.67188 -1.375,-4.57813 0,-1.9375 0.73437,-3.32812 0.73438,-1.40625 1.90625,-2.15625 1.17188,-0.75 2.45313,-0.75 1,0 1.79687,0.35937 0.79688,0.35938 1.51563,1.14063 h 0.0937 l 0.28125,-1.21875 h 2.76562 v 16.32812 z m -2.07812,-7.01562 q 0.59375,0 1.10937,-0.25 0.51563,-0.25 0.96875,-0.85938 v -4.8125 q -0.48437,-0.4375 -0.96875,-0.60937 -0.48437,-0.1875 -1.01562,-0.1875 -0.65625,0 -1.20313,0.35937 -0.54687,0.35938 -0.875,1.09375 -0.32812,0.73438 -0.32812,1.85938 0,1.75 0.59375,2.57812 0.60937,0.82813 1.71875,0.82813 z m 12.69683,2.875 q -2.04687,0 -2.96875,-1.28125 -0.90625,-1.29688 -0.90625,-3.5625 v -7.34375 h 3.53125 v 6.89062 q 0,1.20313 0.375,1.75 0.375,0.54688 1.35938,0.54688 0.67187,0 1.1875,-0.28125 0.53125,-0.28125 1.14062,-1.07813 v -7.82812 h 3.51563 v 11.90625 h -2.875 l -0.26563,-1.70313 h -0.0937 q -0.79687,0.89063 -1.76562,1.4375 -0.95313,0.54688 -2.23438,0.54688 z m 16.96247,0 q -1.84375,0 -3.34375,-0.71875 -1.5,-0.73438 -2.39063,-2.14063 -0.875,-1.40625 -0.875,-3.375 0,-1.9375 0.89063,-3.34375 0.89062,-1.40625 2.29687,-2.14062 1.42188,-0.75 3.01563,-0.75 1.84375,0 3.09375,0.75 1.25,0.75 1.875,2.04687 0.64062,1.28125 0.64062,2.90625 0,0.48438 -0.0625,0.9375 -0.0469,0.4375 -0.10937,0.65625 h -9.01563 v -2.375 h 6.64063 l -0.54688,0.67188 q 0,-1.45313 -0.60937,-2.17188 -0.60938,-0.73437 -1.79688,-0.73437 -0.85937,0 -1.51562,0.39062 -0.64063,0.375 -1,1.17188 -0.35938,0.78125 -0.35938,1.98437 0,1.21875 0.42188,2 0.4375,0.78125 1.25,1.17188 0.82812,0.375 1.98437,0.375 0.8125,0 1.54688,-0.20313 0.73437,-0.21875 1.51562,-0.625 l 1.17188,2.125 q -1.03125,0.65625 -2.28125,1.03125 -1.23438,0.35938 -2.4375,0.35938 z m 15.79059,0 q -1.89063,0 -3.01563,-0.65625 -1.10937,-0.65625 -1.625,-1.82813 -0.5,-1.1875 -0.5,-2.73437 v -4.20313 h -2.96875 v -2.625 l 3.14063,-0.14062 0.45312,-3.64063 h 2.90625 v 3.64063 h 5.04688 v 2.76562 h -5.04688 v 4.17188 q 0,0.89062 0.26563,1.45312 0.26562,0.54688 0.8125,0.79688 0.5625,0.25 1.42187,0.25 0.6875,0 1.26563,-0.125 0.57812,-0.125 1.10937,-0.3125 l 0.625,2.54687 q -0.79687,0.23438 -1.75,0.4375 -0.9375,0.20313 -2.14062,0.20313 z m 10.46246,0 q -1.20313,0 -2.07813,-0.46875 -0.875,-0.48438 -1.35937,-1.29688 -0.46875,-0.8125 -0.46875,-1.82812 0,-1.98438 1.8125,-3.04688 1.8125,-1.0625 6.03125,-1.29687 -0.0781,-0.54688 -0.375,-0.92188 -0.28125,-0.39062 -0.82813,-0.59375 -0.53125,-0.21875 -1.34375,-0.21875 -0.57812,0 -1.15625,0.14063 -0.5625,0.125 -1.1875,0.39062 -0.60937,0.25 -1.28125,0.57813 l -1.25,-2.29688 q 0.82813,-0.48437 1.71875,-0.84375 0.90625,-0.35937 1.875,-0.5625 0.96875,-0.20312 1.98438,-0.20312 1.67187,0 2.875,0.59375 1.20312,0.57812 1.84375,1.76562 0.65625,1.1875 0.65625,3.01563 v 6.8125 h -2.89063 l -0.25,-1.34375 h -0.10937 q -0.875,0.67187 -1.96875,1.15625 -1.07813,0.46875 -2.25,0.46875 z m 1.125,-2.73438 q 0.79687,0 1.48437,-0.3125 0.70313,-0.32812 1.32813,-0.8125 v -1.96875 q -1.75,0.0937 -2.73438,0.35938 -0.96875,0.26562 -1.35937,0.67187 -0.375,0.40625 -0.375,0.9375 0,0.35938 0.20312,0.625 0.20313,0.26563 0.57813,0.39063 0.375,0.10937 0.875,0.10937 z"
     fill-rule="nonzero"
     id="path19"
     clip-path="url(#clipPath38)"
     transform="translate(-43.021286,-168.12235)" />
  <path
     fill="#e91d63"
     d="m 53.552536,347.09106 -8.953125,-6.0625 v -1.5 l 8.953125,-6.0625 v 1.89063 l -7.21875,4.875 v 0.0937 l 7.21875,4.875 z"
     fill-rule="nonzero"
     id="path20"
     clip-path="url(#clipPath37)"
     transform="translate(-43.021286,-168.12235)" />
  <path
     fill="#9c26b0"
     d="m 63.7025,348.2473 v -10.0625 h -5.421875 v -1.59375 h 7.390625 v 11.65625 z m 0.78125,-14.10938 q -0.671875,0 -1.140625,-0.42187 Q 62.89,333.29417 62.89,332.60667 q 0,-0.70312 0.453125,-1.125 0.46875,-0.42187 1.140625,-0.42187 0.671875,0 1.125,0.42187 0.453125,0.42188 0.453125,1.125 0,0.6875 -0.453125,1.10938 -0.453125,0.42187 -1.125,0.42187 z m 7.431213,14.10938 v -11.65625 h 1.578125 l 0.171875,1.53125 h 0.04687 q 0.453125,-0.8125 1.046875,-1.3125 0.609375,-0.51563 1.625,-0.51563 0.859375,0 1.40625,0.51563 0.5625,0.5 0.796875,1.5 0.5,-0.9375 1.109375,-1.46875 0.625,-0.54688 1.625,-0.54688 1.234375,0 1.90625,0.92188 0.6875,0.92187 0.6875,2.67187 v 8.35938 h -1.96875 v -8.20313 q 0,-2.04687 -1.25,-2.04687 -0.59375,0 -1,0.45312 -0.390625,0.4375 -0.875,1.34375 v 8.45313 h -1.8125 v -8.20313 q 0,-1.01562 -0.28125,-1.53125 -0.28125,-0.51562 -0.921875,-0.51562 -0.59375,0 -1.046875,0.45312 -0.4375,0.4375 -0.875,1.34375 v 8.45313 z m 20.118713,5.375 q -1.703125,0 -2.90625,-0.39063 -1.203125,-0.375 -1.84375,-1.09375 -0.625,-0.71875 -0.625,-1.75 0,-0.70312 0.484375,-1.39062 0.5,-0.67188 1.421875,-1.20313 v -0.0937 q -0.453125,-0.26562 -0.828125,-0.71875 -0.359375,-0.46875 -0.359375,-1.20312 0,-0.5625 0.359375,-1.14063 0.359375,-0.59375 1.03125,-1.04687 v -0.0937 q -0.609375,-0.45313 -1.03125,-1.21875 -0.40625,-0.78125 -0.40625,-1.8125 0,-1.26563 0.625,-2.20313 0.640625,-0.9375 1.6875,-1.45312 1.046875,-0.51563 2.265625,-0.51563 0.984375,0 1.734375,0.29688 h 4.8125 v 1.59375 h -3.015625 q 0.40625,0.42187 0.6875,1.04687 0.296875,0.60938 0.296875,1.3125 0,1.25 -0.609375,2.15625 -0.59375,0.89063 -1.625,1.375 -1.015625,0.46875 -2.28125,0.46875 -0.453125,0 -0.96875,-0.0937 -0.515625,-0.10937 -1,-0.32812 -0.4375,0.26562 -0.671875,0.60937 -0.234375,0.32813 -0.234375,0.73438 0,0.67187 0.625,1.01562 0.640625,0.32813 1.796875,0.32813 h 2.609375 q 2.265625,0 3.34375,0.625 1.09375,0.625 1.09375,2.10937 0,1.07813 -0.796875,2.01563 -0.78125,0.9375 -2.234375,1.5 -1.453125,0.5625 -3.4375,0.5625 z m -0.125,-10.39063 q 0.75,0 1.359375,-0.32812 0.609375,-0.34375 0.96875,-0.96875 0.359375,-0.625 0.359375,-1.46875 0,-0.8125 -0.359375,-1.42188 -0.359375,-0.60937 -0.96875,-0.95312 -0.609375,-0.35938 -1.359375,-0.35938 -0.71875,0 -1.328125,0.35938 -0.609375,0.34375 -0.984375,0.95312 -0.375,0.60938 -0.375,1.42188 0,0.84375 0.375,1.46875 0.375,0.625 0.984375,0.96875 0.609375,0.32812 1.328125,0.32812 z m 0.265625,8.95313 q 1.359375,0 2.34375,-0.34375 0.984375,-0.32813 1.515625,-0.85938 0.53125,-0.53125 0.53125,-1.125 0,-0.84375 -0.671875,-1.14062 -0.65625,-0.28125 -2,-0.28125 h -2.265625 q -0.515625,0 -0.96875,-0.0469 -0.4375,-0.0469 -0.8125,-0.14062 -0.8125,0.45312 -1.15625,0.9375 -0.328125,0.5 -0.328125,1 0,0.92187 0.96875,1.45312 0.96875,0.54688 2.84375,0.54688 z"
     fill-rule="nonzero"
     id="path21"
     clip-path="url(#clipPath36)"
     transform="translate(-43.021286,-168.12235)" />
  <path
     fill="#01afd1"
     d="m 120.11485,348.52856 q -1.14062,0 -2.15625,-0.28125 -1,-0.26562 -1.84375,-0.73437 -0.82812,-0.48438 -1.48437,-1.15625 l 1.82812,-2.0625 q 0.90625,0.92187 2,1.35937 1.09375,0.4375 2.17188,0.4375 0.875,0 1.34375,-0.25 0.46875,-0.25 0.46875,-0.76562 0,-0.32813 -0.21875,-0.5625 -0.21875,-0.25 -0.73438,-0.46875 -0.51562,-0.23438 -1.40625,-0.5 -1.79687,-0.59375 -2.75,-1.45313 -0.95312,-0.875 -0.95312,-2.21875 0,-1.25 0.70312,-2.09375 0.70313,-0.85937 1.84375,-1.28125 1.14063,-0.4375 2.48438,-0.4375 1.75,0 2.96875,0.5625 1.21875,0.5625 2.0625,1.375 l -1.79688,1.92188 q -0.71875,-0.57813 -1.64062,-1 -0.92188,-0.42188 -1.96875,-0.42188 -0.71875,0 -1.15625,0.25 -0.42188,0.23438 -0.42188,0.73438 0,0.48437 0.5625,0.79687 0.5625,0.3125 1.9375,0.79688 1.07813,0.35937 1.875,0.8125 0.8125,0.45312 1.25,1.125 0.45313,0.65625 0.45313,1.64062 0,1.34375 -0.71875,2.20313 -0.71875,0.85937 -1.96875,1.26562 -1.23438,0.40625 -2.73438,0.40625 z m 9.75934,-0.28125 2.35937,-11.92187 2.65625,0.0156 -0.32812,3.17188 h 0.0937 q 0.625,-1.0625 1.42187,-1.84375 0.8125,-0.78125 1.6875,-1.1875 0.89063,-0.42188 1.8125,-0.42188 0.76563,0 1.39063,0.14063 0.625,0.125 0.95312,0.35937 l -1.17187,2.82813 q -0.40625,-0.21875 -0.85938,-0.3125 -0.4375,-0.0937 -0.96875,-0.0937 -1.17187,0 -2.40625,1.07812 -1.23437,1.0625 -2.29687,2.9375 l -1.04688,5.25 z m 19.80621,0.28125 q -1.5625,0 -2.85937,-0.5625 -1.29688,-0.57812 -2.07813,-1.73437 -0.78125,-1.15625 -0.78125,-2.90625 0,-1.625 0.57813,-2.96875 0.59375,-1.34375 1.60937,-2.29688 1.03125,-0.95312 2.32813,-1.46875 1.3125,-0.53125 2.76562,-0.53125 1.59375,0 2.75,0.65625 1.17188,0.65625 1.82813,1.5 l -2,1.82813 q -0.59375,-0.67188 -1.3125,-0.98438 -0.70313,-0.3125 -1.51563,-0.3125 -0.6875,0 -1.35937,0.3125 -0.65625,0.3125 -1.1875,0.90625 -0.51563,0.57813 -0.82813,1.35938 -0.3125,0.78125 -0.3125,1.6875 0,1.4375 0.84375,2.14062 0.85938,0.6875 2,0.6875 0.89063,0 1.59375,-0.375 0.71875,-0.39062 1.40625,-0.96875 l 1.15625,2.23438 q -0.89062,0.8125 -2.0625,1.3125 -1.17187,0.48437 -2.5625,0.48437 z"
     fill-rule="nonzero"
     id="path22"
     clip-path="url(#clipPath35)"
     transform="translate(-43.021286,-168.12235)" />
  <path
     fill="#333333"
     d="m 158.61162,338.7942 v -2.5 h 11.03125 v 2.5 z m 0,5.5625 v -2.5 h 11.03125 v 2.5 z"
     fill-rule="nonzero"
     id="path23"
     clip-path="url(#clipPath34)"
     transform="translate(-43.021286,-168.12235)" />
  <path
     fill="#0090ac"
     d="m 175.35533,341.2942 q -1.3125,0 -2.0625,-1.01563 -0.73438,-1.03125 -0.73438,-2.82812 0,-1.95313 1.03125,-3.45313 1.04688,-1.51562 3.15625,-2.48437 l 0.92188,1.875 q -1.32813,0.60937 -2.01563,1.51562 -0.67187,0.89063 -0.67187,2.14063 l 0.14062,2.28125 -1.42187,-1.95313 q 0.34375,-0.28125 0.82812,-0.48437 0.5,-0.20313 0.95313,-0.20313 0.95312,0 1.5625,0.59375 0.625,0.59375 0.625,1.57813 0,1.10937 -0.65625,1.78125 -0.64063,0.65625 -1.65625,0.65625 z m 6.375,0 q -1.3125,0 -2.0625,-1.01563 -0.73438,-1.03125 -0.73438,-2.82812 0,-1.95313 1.03125,-3.45313 1.04688,-1.51562 3.15625,-2.48437 l 0.92188,1.875 q -1.32813,0.60937 -2.01563,1.51562 -0.67187,0.89063 -0.67187,2.14063 l 0.14062,2.28125 -1.42187,-1.95313 q 0.34375,-0.28125 0.82812,-0.48437 0.5,-0.20313 0.95313,-0.20313 0.95312,0 1.5625,0.59375 0.625,0.59375 0.625,1.57813 0,1.10937 -0.65625,1.78125 -0.64063,0.65625 -1.65625,0.65625 z m 9.10309,6.95312 v -12.21875 q 0,-1.35937 0.5625,-2.46875 0.5625,-1.125 1.71875,-1.76562 1.17187,-0.65625 3.04687,-0.65625 1.03125,0 1.9375,0.20312 0.92188,0.20313 1.67188,0.4375 l -0.67188,2.59375 q -0.57812,-0.21875 -1.20312,-0.32812 -0.60938,-0.125 -1.29688,-0.125 -1.125,0 -1.6875,0.51562 -0.54687,0.5 -0.54687,1.57813 v 12.23437 z m -3.14063,-9.14062 v -2.625 l 3.26563,-0.14063 h 7.51562 v 2.76563 z m 19.63434,9.42187 q -1.5625,0 -2.95312,-0.71875 -1.39063,-0.73437 -2.26563,-2.14062 -0.85937,-1.40625 -0.85937,-3.375 0,-1.96875 0.85937,-3.375 0.875,-1.40625 2.26563,-2.125 1.39062,-0.73438 2.95312,-0.73438 1.5625,0 2.95313,0.73438 1.39062,0.71875 2.25,2.125 0.85937,1.40625 0.85937,3.375 0,1.96875 -0.85937,3.375 -0.85938,1.40625 -2.25,2.14062 -1.39063,0.71875 -2.95313,0.71875 z m 0,-2.84375 q 0.8125,0 1.34375,-0.40625 0.54688,-0.42187 0.8125,-1.1875 0.28125,-0.76562 0.28125,-1.79687 0,-1.03125 -0.28125,-1.79688 -0.26562,-0.76562 -0.8125,-1.17187 -0.53125,-0.42188 -1.34375,-0.42188 -0.8125,0 -1.35937,0.42188 -0.54688,0.40625 -0.82813,1.17187 -0.26562,0.76563 -0.26562,1.79688 0,1.03125 0.26562,1.79687 0.28125,0.76563 0.82813,1.1875 0.54687,0.40625 1.35937,0.40625 z m 16.50934,2.84375 q -1.89063,0 -3.01563,-0.65625 -1.10937,-0.65625 -1.625,-1.82812 -0.5,-1.1875 -0.5,-2.73438 v -4.20312 h -2.96875 v -2.625 l 3.14063,-0.14063 0.45312,-3.64062 h 2.90625 v 3.64062 h 5.04688 v 2.76563 h -5.04688 v 4.17187 q 0,0.89063 0.26563,1.45313 0.26562,0.54687 0.8125,0.79687 0.5625,0.25 1.42187,0.25 0.6875,0 1.26563,-0.125 0.57812,-0.125 1.10937,-0.3125 l 0.625,2.54688 q -0.79687,0.23437 -1.75,0.4375 -0.9375,0.20312 -2.14062,0.20312 z m 12.29059,0 q -1.5625,0 -2.95313,-0.71875 -1.39062,-0.73437 -2.26562,-2.14062 -0.85938,-1.40625 -0.85938,-3.375 0,-1.96875 0.85938,-3.375 0.875,-1.40625 2.26562,-2.125 1.39063,-0.73438 2.95313,-0.73438 1.5625,0 2.95312,0.73438 1.39063,0.71875 2.25,2.125 0.85938,1.40625 0.85938,3.375 0,1.96875 -0.85938,3.375 -0.85937,1.40625 -2.25,2.14062 -1.39062,0.71875 -2.95312,0.71875 z m 0,-2.84375 q 0.8125,0 1.34375,-0.40625 0.54687,-0.42187 0.8125,-1.1875 0.28125,-0.76562 0.28125,-1.79687 0,-1.03125 -0.28125,-1.79688 -0.26563,-0.76562 -0.8125,-1.17187 -0.53125,-0.42188 -1.34375,-0.42188 -0.8125,0 -1.35938,0.42188 -0.54687,0.40625 -0.82812,1.17187 -0.26563,0.76563 -0.26563,1.79688 0,1.03125 0.26563,1.79687 0.28125,0.76563 0.82812,1.1875 0.54688,0.40625 1.35938,0.40625 z m 14.39996,2.84375 q -1.23437,0 -2.01562,-0.8125 -0.76563,-0.8125 -0.76563,-1.98437 0,-1.1875 0.76563,-2.01563 0.78125,-0.82812 2.01562,-0.82812 1.25,0 2.01563,0.82812 0.76562,0.82813 0.76562,2.01563 0,1.17187 -0.76562,1.98437 -0.76563,0.8125 -2.01563,0.8125 z m 11.88432,4.42188 q -1.10937,0 -2.01562,-0.23438 -0.89063,-0.21875 -1.65625,-0.57812 l 1.03125,-2.51563 q 0.71875,0.3125 1.29687,0.4375 0.59375,0.125 1.125,0.125 0.85938,0 1.32813,-0.28125 0.48437,-0.26562 0.67187,-0.82812 0.20313,-0.54688 0.20313,-1.40625 v -8.5625 h -4.79688 v -2.76563 h 8.32813 v 11.1875 q 0,1.10938 -0.26563,2.07813 -0.26562,0.96875 -0.89062,1.71875 -0.625,0.76562 -1.70313,1.1875 -1.0625,0.4375 -2.65625,0.4375 z m 3.59375,-18.48438 q -1.01562,0 -1.6875,-0.57812 -0.67187,-0.59375 -0.67187,-1.54688 0,-0.98437 0.67187,-1.59375 0.67188,-0.625 1.6875,-0.625 1.03125,0 1.6875,0.625 0.65625,0.60938 0.65625,1.59375 0,0.95313 -0.65625,1.54688 -0.65625,0.57812 -1.6875,0.57812 z m 7.85309,18.20313 v -16.32813 h 2.875 l 0.26563,1.20313 h 0.0625 q 0.75,-0.65625 1.67187,-1.0625 0.92188,-0.42188 1.89063,-0.42188 1.48437,0 2.54687,0.75 1.07813,0.73438 1.64063,2.10938 0.57812,1.35937 0.57812,3.1875 0,2.03125 -0.73437,3.48437 -0.71875,1.4375 -1.90625,2.1875 -1.17188,0.75 -2.51563,0.75 -0.79687,0 -1.54687,-0.32812 -0.75,-0.34375 -1.375,-0.96875 h -0.0937 l 0.15625,1.95312 v 3.48438 z m 5.5625,-7.01563 q 0.67188,0 1.20313,-0.35937 0.53125,-0.35938 0.82812,-1.14063 0.3125,-0.78125 0.3125,-2 0,-1.07812 -0.23437,-1.78125 -0.23438,-0.71875 -0.70313,-1.07812 -0.46875,-0.35938 -1.23437,-0.35938 -0.57813,0 -1.125,0.25 -0.53125,0.25 -1.09375,0.85938 v 4.8125 q 0.51562,0.42187 1.04687,0.60937 0.54688,0.1875 1,0.1875 z m 13.74371,7.65625 q -1.54687,0 -2.76562,-0.32812 -1.21875,-0.3125 -1.92188,-0.98438 -0.70312,-0.67187 -0.70312,-1.73437 0,-0.71875 0.46875,-1.32813 0.46875,-0.59375 1.375,-1.04687 v -0.0937 q -0.5,-0.34375 -0.85938,-0.8125 -0.34375,-0.48438 -0.34375,-1.23438 0,-0.59375 0.39063,-1.1875 0.40625,-0.60937 1.03125,-1.04687 v -0.0937 q -0.65625,-0.42188 -1.10938,-1.21875 -0.45312,-0.79688 -0.45312,-1.82813 0,-1.4375 0.70312,-2.39062 0.71875,-0.96875 1.875,-1.4375 1.17188,-0.48438 2.51563,-0.48438 1.09375,0 1.96875,0.28125 h 4.8125 v 2.59375 h -2.39063 q 0.21875,0.26563 0.375,0.6875 0.15625,0.42188 0.15625,0.875 0,1.35938 -0.67187,2.25 -0.65625,0.875 -1.76563,1.3125 -1.09375,0.42188 -2.48437,0.42188 -0.34375,0 -0.78125,-0.0625 -0.42188,-0.0625 -0.85938,-0.1875 -0.28125,0.20312 -0.40625,0.39062 -0.10937,0.1875 -0.10937,0.5 0,0.46875 0.48437,0.6875 0.48438,0.20313 1.53125,0.20313 h 2.20313 q 2.34375,0 3.57812,0.70312 1.25,0.6875 1.25,2.29688 0,1.25 -0.875,2.21875 -0.85937,0.96875 -2.45312,1.51562 -1.59375,0.5625 -3.76563,0.5625 z m 0.20313,-10.96875 q 0.5,0 0.90625,-0.21875 0.40625,-0.21875 0.64062,-0.65625 0.25,-0.4375 0.25,-1.09375 0,-0.625 -0.25,-1.04687 -0.23437,-0.4375 -0.64062,-0.65625 -0.40625,-0.23438 -0.90625,-0.23438 -0.48438,0 -0.89063,0.23438 -0.40625,0.21875 -0.65625,0.65625 -0.23437,0.42187 -0.23437,1.04687 0,0.65625 0.23437,1.09375 0.25,0.4375 0.65625,0.65625 0.40625,0.21875 0.89063,0.21875 z m 0.3125,8.73438 q 0.95312,0 1.67187,-0.1875 0.71875,-0.1875 1.125,-0.51563 0.42188,-0.32812 0.42188,-0.73437 0,-0.59375 -0.53125,-0.75 -0.53125,-0.15625 -1.5625,-0.15625 h -1.48438 q -0.65625,0 -1.07812,-0.0469 -0.42188,-0.0469 -0.75,-0.125 -0.45313,0.28125 -0.65625,0.5625 -0.1875,0.28125 -0.1875,0.60938 0,0.65625 0.8125,1 0.82812,0.34375 2.21875,0.34375 z m 9.83746,-9.78125 -0.9375,-1.875 q 1.34375,-0.60938 2.01563,-1.5 0.67187,-0.90625 0.67187,-2.15625 l -0.14062,-2.28125 1.42187,1.95312 q -0.34375,0.28125 -0.82812,0.5 -0.46875,0.21875 -0.92188,0.21875 -0.96875,0 -1.59375,-0.60937 -0.625,-0.60938 -0.625,-1.59375 0,-1.09375 0.65625,-1.76563 0.67188,-0.67187 1.65625,-0.67187 1.34375,0 2.0625,1.01562 0.73438,1 0.73438,2.82813 0,1.96875 -1.04688,3.46875 -1.03125,1.5 -3.125,2.46875 z m 6.375,0 -0.9375,-1.875 q 1.34375,-0.60938 2.01563,-1.5 0.67187,-0.90625 0.67187,-2.15625 l -0.14062,-2.28125 1.42187,1.95312 q -0.34375,0.28125 -0.82812,0.5 -0.46875,0.21875 -0.92188,0.21875 -0.96875,0 -1.59375,-0.60937 -0.625,-0.60938 -0.625,-1.59375 0,-1.09375 0.65625,-1.76563 0.67188,-0.67187 1.65625,-0.67187 1.34375,0 2.0625,1.01562 0.73438,1 0.73438,2.82813 0,1.96875 -1.04688,3.46875 -1.03125,1.5 -3.125,2.46875 z"
     fill-rule="nonzero"
     id="path24"
     clip-path="url(#clipPath33)"
     transform="translate(-43.021286,-168.12235)" />
  <path
     fill="#01afd1"
     d="m 334.45804,348.52856 q -1.78125,0 -2.84375,-1.1875 -1.04688,-1.1875 -1.04688,-3.40625 0,-1.64062 0.51563,-3.0625 0.51562,-1.4375 1.39062,-2.51562 0.89063,-1.07813 2.04688,-1.6875 1.15625,-0.60938 2.42187,-0.60938 1.1875,0 2.03125,0.42188 0.85938,0.40625 1.26563,1.14062 h 0.0937 l 0.5,-1.28125 h 2.64062 l -2.39062,11.90625 h -2.67188 l 0.0469,-1.625 h -0.0937 q -0.84375,0.875 -1.875,1.39063 -1.03125,0.51562 -2.03125,0.51562 z m 1.21875,-2.6875 q 0.67187,0 1.46875,-0.4375 0.8125,-0.4375 1.5,-1.375 l 0.875,-4.15625 q -0.34375,-0.59375 -0.90625,-0.85937 -0.5625,-0.26563 -1.09375,-0.26563 -0.6875,0 -1.34375,0.35938 -0.64063,0.35937 -1.15625,1.01562 -0.5,0.64063 -0.79688,1.5 -0.28125,0.85938 -0.28125,1.89063 0,1.20312 0.48438,1.76562 0.48437,0.5625 1.25,0.5625 z m 16.27496,2.6875 q -1.59375,0 -2.625,-0.98437 -1.03125,-0.98438 -1.03125,-2.75 0,-0.34375 0.0469,-0.70313 0.0469,-0.375 0.15625,-0.78125 l 2.07812,-9.3125 h -3.40625 l 0.54688,-2.54687 h 6.625 l -2.6875,12.23437 q -0.0156,0.1875 -0.0625,0.40625 -0.0312,0.20313 -0.0312,0.48438 0,0.67187 0.39062,0.96875 0.40625,0.29687 1,0.29687 0.53125,0 0.95313,-0.125 0.4375,-0.125 1.01562,-0.39062 l 0.70313,2.4375 q -0.92188,0.40625 -1.8125,0.57812 -0.875,0.1875 -1.85938,0.1875 z m 13.99372,0 q -2.125,0 -3.07813,-0.98437 -0.95312,-0.98438 -0.95312,-2.60938 0,-0.35937 0.0469,-0.71875 0.0469,-0.35937 0.14063,-0.84375 l 0.90625,-4.46875 h -3.10938 l 0.46875,-2.42187 3.29688,-0.14063 1.17187,-3.5 h 2.6875 l -0.75,3.5 h 5.09375 l -0.5,2.5625 H 366.258 l -0.92188,4.35938 q -0.0625,0.29687 -0.0781,0.5 -0.0156,0.1875 -0.0156,0.40625 0,0.90625 0.46875,1.29687 0.46875,0.375 1.23438,0.375 0.75,0 1.42187,-0.25 0.6875,-0.26562 1.21875,-0.57812 l 1.01563,2.28125 q -0.82813,0.51562 -2.04688,0.875 -1.21875,0.35937 -2.60937,0.35937 z"
     fill-rule="nonzero"
     id="path25"
     clip-path="url(#clipPath32)"
     transform="translate(-43.021286,-168.12235)" />
  <path
     fill="#333333"
     d="m 374.61105,338.7942 v -2.5 h 11.03125 v 2.5 z m 0,5.5625 v -2.5 h 11.03125 v 2.5 z"
     fill-rule="nonzero"
     id="path26"
     clip-path="url(#clipPath31)"
     transform="translate(-43.021286,-168.12235)" />
  <path
     fill="#0090ac"
     d="m 391.35477,341.2942 q -1.3125,0 -2.0625,-1.01563 -0.73438,-1.03125 -0.73438,-2.82812 0,-1.95313 1.03125,-3.45313 1.04688,-1.51562 3.15625,-2.48437 l 0.92188,1.875 q -1.32813,0.60937 -2.01563,1.51562 -0.67187,0.89063 -0.67187,2.14063 l 0.14062,2.28125 -1.42187,-1.95313 q 0.34375,-0.28125 0.82812,-0.48437 0.5,-0.20313 0.95313,-0.20313 0.95312,0 1.5625,0.59375 0.625,0.59375 0.625,1.57813 0,1.10937 -0.65625,1.78125 -0.64063,0.65625 -1.65625,0.65625 z m 6.375,0 q -1.3125,0 -2.0625,-1.01563 -0.73438,-1.03125 -0.73438,-2.82812 0,-1.95313 1.03125,-3.45313 1.04688,-1.51562 3.15625,-2.48437 l 0.92188,1.875 q -1.32813,0.60937 -2.01563,1.51562 -0.67187,0.89063 -0.67187,2.14063 l 0.14062,2.28125 -1.42187,-1.95313 q 0.34375,-0.28125 0.82812,-0.48437 0.5,-0.20313 0.95313,-0.20313 0.95312,0 1.5625,0.59375 0.625,0.59375 0.625,1.57813 0,1.10937 -0.65625,1.78125 -0.64063,0.65625 -1.65625,0.65625 z m 10.13434,7.23437 q -2.25,0 -3.64063,-1.65625 -1.375,-1.67187 -1.375,-4.57812 0,-1.9375 0.73438,-3.32813 0.73437,-1.40625 1.90625,-2.15625 1.17187,-0.75 2.45312,-0.75 0.98438,0 1.70313,0.34375 0.71875,0.32813 1.29687,0.92188 h 0.0937 l -0.17187,-1.84375 v -4.0625 h 3.53125 v 16.82812 h -2.875 l -0.26563,-1.21875 h -0.0781 q -0.64063,0.64063 -1.51563,1.07813 -0.875,0.42187 -1.79687,0.42187 z m 0.92187,-2.875 q 0.59375,0 1.10938,-0.25 0.51562,-0.25 0.96875,-0.85937 v -4.8125 q -0.48438,-0.4375 -0.96875,-0.60938 -0.48438,-0.1875 -1.01563,-0.1875 -0.65625,0 -1.20312,0.35938 -0.54688,0.35937 -0.875,1.09375 -0.32813,0.73437 -0.32813,1.85937 0,1.75 0.59375,2.57813 0.60938,0.82812 1.71875,0.82812 z m 15.25934,2.875 q -1.84375,0 -3.34375,-0.71875 -1.5,-0.73437 -2.39062,-2.14062 -0.875,-1.40625 -0.875,-3.375 0,-1.9375 0.89062,-3.34375 0.89063,-1.40625 2.29688,-2.14063 1.42187,-0.75 3.01562,-0.75 1.84375,0 3.09375,0.75 1.25,0.75 1.875,2.04688 0.64063,1.28125 0.64063,2.90625 0,0.48437 -0.0625,0.9375 -0.0469,0.4375 -0.10938,0.65625 h -9.01562 v -2.375 h 6.64062 l -0.54687,0.67187 q 0,-1.45312 -0.60938,-2.17187 -0.60937,-0.73438 -1.79687,-0.73438 -0.85938,0 -1.51563,0.39063 -0.64062,0.375 -1,1.17187 -0.35937,0.78125 -0.35937,1.98438 0,1.21875 0.42187,2 0.4375,0.78125 1.25,1.17187 0.82813,0.375 1.98438,0.375 0.8125,0 1.54687,-0.20312 0.73438,-0.21875 1.51563,-0.625 l 1.17187,2.125 q -1.03125,0.65625 -2.28125,1.03125 -1.23437,0.35937 -2.4375,0.35937 z m 13.58746,0 q -1.59375,0 -3.15625,-0.53125 -1.54687,-0.54687 -2.6875,-1.28125 l 1.51563,-2.21875 q 1.07812,0.70313 2.28125,1.0625 1.21875,0.35938 2.51562,0.35938 0.98438,0 1.4375,-0.29688 0.46875,-0.29687 0.46875,-0.71875 0,-0.25 -0.14062,-0.42187 -0.125,-0.1875 -0.45313,-0.34375 -0.32812,-0.15625 -0.89062,-0.29688 -0.5625,-0.15625 -1.45313,-0.34375 -2.42187,-0.53125 -3.48437,-1.4375 -1.04688,-0.92187 -1.04688,-2.28125 0,-1.6875 1.45313,-2.70312 1.46875,-1.01563 4.01562,-1.01563 1.60938,0 2.92188,0.51563 1.3125,0.51562 2.23437,1.10937 l -1.57812,2.10938 q -0.89063,-0.54688 -1.90625,-0.82813 -1,-0.29687 -1.98438,-0.29687 -0.54687,0 -0.90625,0.10937 -0.35937,0.10938 -0.5625,0.34375 -0.1875,0.21875 -0.1875,0.48438 0,0.48437 0.625,0.71875 0.625,0.21875 2.14063,0.54687 1.82812,0.42188 2.85937,0.95313 1.03125,0.51562 1.42188,1.20312 0.39062,0.6875 0.39062,1.67188 0,1.07812 -0.65625,1.9375 -0.65625,0.85937 -1.96875,1.375 -1.29687,0.51562 -3.21875,0.51562 z m 15.52497,0 q -1.875,0 -3.375,-0.71875 -1.5,-0.73437 -2.375,-2.14062 -0.875,-1.40625 -0.875,-3.375 0,-1.96875 0.95312,-3.375 0.96875,-1.40625 2.53125,-2.125 1.57813,-0.73438 3.40625,-0.73438 1.40625,0 2.5625,0.45313 1.15625,0.4375 1.89063,1.15625 l -1.625,2.17187 q -0.70313,-0.46875 -1.34375,-0.70312 -0.625,-0.23438 -1.29688,-0.23438 -1,0 -1.79687,0.42188 -0.79688,0.40625 -1.23438,1.17187 -0.42187,0.76563 -0.42187,1.79688 0,1.03125 0.42187,1.79687 0.42188,0.76563 1.17188,1.1875 0.75,0.40625 1.73437,0.40625 0.9375,0 1.71875,-0.32812 0.78125,-0.34375 1.4375,-0.8125 l 1.40625,2.23437 q -1.04687,0.89063 -2.35937,1.32813 -1.3125,0.42187 -2.53125,0.42187 z m 8.94684,-0.28125 v -11.90625 h 2.875 l 0.29687,2.59375 h 0.0781 q 0.875,-1.46875 2.14062,-2.17187 1.26563,-0.70313 2.67188,-0.70313 0.79687,0 1.28125,0.125 0.5,0.10938 1.03125,0.34375 l -0.71875,2.95313 q -0.5625,-0.15625 -1.01563,-0.23438 -0.4375,-0.0937 -1.10937,-0.0937 -1.09375,0 -2.17188,0.65625 -1.0625,0.64063 -1.82812,2.25 v 6.1875 z m 18.29058,0 v -9.14062 h -4.79687 v -2.76563 h 8.32812 v 11.90625 z m 1.60938,-13.78125 q -1.01563,0 -1.6875,-0.57812 -0.67188,-0.59375 -0.67188,-1.54688 0,-0.98437 0.67188,-1.59375 0.67187,-0.625 1.6875,-0.625 1.03125,0 1.6875,0.625 0.65625,0.60938 0.65625,1.59375 0,0.95313 -0.65625,1.54688 -0.65625,0.57812 -1.6875,0.57812 z m 7.85309,18.20313 v -16.32813 h 2.875 l 0.26562,1.20313 h 0.0625 q 0.75,-0.65625 1.67188,-1.0625 0.92187,-0.42188 1.89062,-0.42188 1.48438,0 2.54688,0.75 1.07812,0.73438 1.64062,2.10938 0.57813,1.35937 0.57813,3.1875 0,2.03125 -0.73438,3.48437 -0.71875,1.4375 -1.90625,2.1875 -1.17187,0.75 -2.51562,0.75 -0.79688,0 -1.54688,-0.32812 -0.75,-0.34375 -1.375,-0.96875 h -0.0937 l 0.15625,1.95312 v 3.48438 z m 5.5625,-7.01563 q 0.67187,0 1.20312,-0.35937 0.53125,-0.35938 0.82813,-1.14063 0.3125,-0.78125 0.3125,-2 0,-1.07812 -0.23438,-1.78125 -0.23437,-0.71875 -0.70312,-1.07812 -0.46875,-0.35938 -1.23438,-0.35938 -0.57812,0 -1.125,0.25 -0.53125,0.25 -1.09375,0.85938 v 4.8125 q 0.51563,0.42187 1.04688,0.60937 0.54687,0.1875 1,0.1875 z m 15.33746,2.875 q -1.875,0 -3.375,-0.71875 -1.5,-0.73437 -2.375,-2.14062 -0.875,-1.40625 -0.875,-3.375 0,-1.96875 0.95312,-3.375 0.96875,-1.40625 2.53125,-2.125 1.57813,-0.73438 3.40625,-0.73438 1.40628,0 2.56253,0.45313 1.15625,0.4375 1.89063,1.15625 l -1.625,2.17187 q -0.70313,-0.46875 -1.34375,-0.70312 -0.62503,-0.23438 -1.29691,-0.23438 -1,0 -1.79687,0.42188 -0.79688,0.40625 -1.23438,1.17187 -0.42187,0.76563 -0.42187,1.79688 0,1.03125 0.42187,1.79687 0.42188,0.76563 1.17188,1.1875 0.75,0.40625 1.73437,0.40625 0.93753,0 1.71878,-0.32812 0.78125,-0.34375 1.4375,-0.8125 l 1.40625,2.23437 q -1.04687,0.89063 -2.35937,1.32813 -1.31253,0.42187 -2.53128,0.42187 z m 12.83749,-0.28125 v -9.14062 h -4.79687 v -2.76563 h 8.32812 v 11.90625 z m 1.60938,-13.78125 q -1.01563,0 -1.6875,-0.57812 -0.67188,-0.59375 -0.67188,-1.54688 0,-0.98437 0.67188,-1.59375 0.67187,-0.625 1.6875,-0.625 1.03125,0 1.6875,0.625 0.65625,0.60938 0.65625,1.59375 0,0.95313 -0.65625,1.54688 -0.65625,0.57812 -1.6875,0.57812 z m 13.32184,14.0625 q -1.5625,0 -2.95313,-0.71875 -1.39062,-0.73437 -2.26562,-2.14062 -0.85938,-1.40625 -0.85938,-3.375 0,-1.96875 0.85938,-3.375 0.875,-1.40625 2.26562,-2.125 1.39063,-0.73438 2.95313,-0.73438 1.5625,0 2.95312,0.73438 1.39063,0.71875 2.25,2.125 0.85938,1.40625 0.85938,3.375 0,1.96875 -0.85938,3.375 -0.85937,1.40625 -2.25,2.14062 -1.39062,0.71875 -2.95312,0.71875 z m 0,-2.84375 q 0.8125,0 1.34375,-0.40625 0.54687,-0.42187 0.8125,-1.1875 0.28125,-0.76562 0.28125,-1.79687 0,-1.03125 -0.28125,-1.79688 -0.26563,-0.76562 -0.8125,-1.17187 -0.53125,-0.42188 -1.34375,-0.42188 -0.8125,0 -1.35938,0.42188 -0.54687,0.40625 -0.82812,1.17187 -0.26563,0.76563 -0.26563,1.79688 0,1.03125 0.26563,1.79687 0.28125,0.76563 0.82812,1.1875 0.54688,0.40625 1.35938,0.40625 z m -0.14063,-10.90625 -1.73437,-1.71875 3.67187,-4.375 2.40625,2.35938 z m 9.07184,13.46875 v -11.90625 h 2.875 l 0.26562,1.59375 h 0.0937 q 0.76563,-0.78125 1.76563,-1.32812 1,-0.54688 2.34375,-0.54688 2.01562,0 2.9375,1.29688 0.9375,1.29687 0.9375,3.54687 v 7.34375 h -3.51563 v -6.89062 q 0,-1.20313 -0.40625,-1.75 -0.39062,-0.54688 -1.34375,-0.54688 -0.73437,0 -1.28125,0.32813 -0.53125,0.3125 -1.15625,0.92187 v 7.9375 z m 33.20618,0.28125 q -2.25,0 -3.64063,-1.65625 -1.375,-1.67187 -1.375,-4.57812 0,-1.9375 0.73438,-3.32813 0.73437,-1.40625 1.90625,-2.15625 1.17187,-0.75 2.45312,-0.75 0.98438,0 1.70313,0.34375 0.71875,0.32813 1.29687,0.92188 h 0.0937 l -0.17187,-1.84375 v -4.0625 h 3.53125 v 16.82812 h -2.875 l -0.26563,-1.21875 h -0.0781 q -0.64063,0.64063 -1.51563,1.07813 -0.875,0.42187 -1.79687,0.42187 z m 0.92187,-2.875 q 0.59375,0 1.10938,-0.25 0.51562,-0.25 0.96875,-0.85937 v -4.8125 q -0.48438,-0.4375 -0.96875,-0.60938 -0.48438,-0.1875 -1.01563,-0.1875 -0.65625,0 -1.20312,0.35938 -0.54688,0.35937 -0.875,1.09375 -0.32813,0.73437 -0.32813,1.85937 0,1.75 0.59375,2.57813 0.60938,0.82812 1.71875,0.82812 z m 15.25934,2.875 q -1.84375,0 -3.34375,-0.71875 -1.5,-0.73437 -2.39063,-2.14062 -0.875,-1.40625 -0.875,-3.375 0,-1.9375 0.89063,-3.34375 0.89062,-1.40625 2.29687,-2.14063 1.42188,-0.75 3.01563,-0.75 1.84375,0 3.09375,0.75 1.25,0.75 1.875,2.04688 0.64062,1.28125 0.64062,2.90625 0,0.48437 -0.0625,0.9375 -0.0469,0.4375 -0.10937,0.65625 h -9.01563 v -2.375 h 6.64063 l -0.54688,0.67187 q 0,-1.45312 -0.60937,-2.17187 -0.60938,-0.73438 -1.79688,-0.73438 -0.85937,0 -1.51562,0.39063 -0.64063,0.375 -1,1.17187 -0.35938,0.78125 -0.35938,1.98438 0,1.21875 0.42188,2 0.4375,0.78125 1.25,1.17187 0.82812,0.375 1.98437,0.375 0.8125,0 1.54688,-0.20312 0.73437,-0.21875 1.51562,-0.625 l 1.17188,2.125 q -1.03125,0.65625 -2.28125,1.03125 -1.23438,0.35937 -2.4375,0.35937 z m 30.36243,0 q -2.23438,0 -3.39063,-1.34375 -1.15625,-1.34375 -1.15625,-3.59375 v -9.39062 h -3.71875 v -2.75 h 7.25 v 12.28125 q 0,1.10937 0.59375,1.53125 0.60938,0.42187 1.32813,0.42187 0.4375,0 0.875,-0.0937 0.45312,-0.10937 1,-0.29687 l 0.76562,2.59375 q -0.90625,0.28125 -1.67187,0.45312 -0.75,0.1875 -1.875,0.1875 z m 10.29058,0 q -1.20312,0 -2.07812,-0.46875 -0.875,-0.48437 -1.35938,-1.29687 -0.46875,-0.8125 -0.46875,-1.82813 0,-1.98437 1.8125,-3.04687 1.8125,-1.0625 6.03125,-1.29688 -0.0781,-0.54687 -0.375,-0.92187 -0.28125,-0.39063 -0.82812,-0.59375 -0.53125,-0.21875 -1.34375,-0.21875 -0.57813,0 -1.15625,0.14062 -0.5625,0.125 -1.1875,0.39063 -0.60938,0.25 -1.28125,0.57812 l -1.25,-2.29687 q 0.82812,-0.48438 1.71875,-0.84375 0.90625,-0.35938 1.875,-0.5625 0.96875,-0.20313 1.98437,-0.20313 1.67188,0 2.875,0.59375 1.20313,0.57813 1.84375,1.76563 0.65625,1.1875 0.65625,3.01562 v 6.8125 h -2.89062 l -0.25,-1.34375 h -0.10938 q -0.875,0.67188 -1.96875,1.15625 -1.07812,0.46875 -2.25,0.46875 z m 1.125,-2.73437 q 0.79688,0 1.48438,-0.3125 0.70312,-0.32813 1.32812,-0.8125 v -1.96875 q -1.75,0.0937 -2.73437,0.35937 -0.96875,0.26563 -1.35938,0.67188 -0.375,0.40625 -0.375,0.9375 0,0.35937 0.20313,0.625 0.20312,0.26562 0.57812,0.39062 0.375,0.10938 0.875,0.10938 z m 28.97181,2.45312 v -9.14062 h -4.79688 v -2.76563 h 8.32813 v 11.90625 z m 1.60937,-13.78125 q -1.01562,0 -1.6875,-0.57812 -0.67187,-0.59375 -0.67187,-1.54688 0,-0.98437 0.67187,-1.59375 0.67188,-0.625 1.6875,-0.625 1.03125,0 1.6875,0.625 0.65625,0.60938 0.65625,1.59375 0,0.95313 -0.65625,1.54688 -0.65625,0.57812 -1.6875,0.57812 z m 6.96246,13.78125 v -11.90625 h 2.65625 l 0.25,1.46875 h 0.0937 q 0.32813,-0.71875 0.92188,-1.23437 0.60937,-0.51563 1.64062,-0.51563 0.76563,0 1.3125,0.5 0.5625,0.48438 0.75,1.4375 0.34375,-0.8125 0.96875,-1.375 0.64063,-0.5625 1.67188,-0.5625 1.28125,0 1.96875,1.03125 0.70312,1.03125 0.70312,2.79688 v 8.35937 h -3.35937 v -8.10937 q 0,-1.07813 -0.65625,-1.07813 -0.32813,0 -0.59375,0.28125 -0.25,0.26563 -0.48438,0.85938 v 8.04687 h -2.76562 v -8.10937 q 0,-0.54688 -0.17188,-0.8125 -0.15625,-0.26563 -0.5,-0.26563 -0.32812,0 -0.57812,0.28125 -0.23438,0.26563 -0.46875,0.85938 v 8.04687 z m 18.93122,0.28125 q -1.20313,0 -2.07813,-0.46875 -0.875,-0.48437 -1.35937,-1.29687 -0.46875,-0.8125 -0.46875,-1.82813 0,-1.98437 1.8125,-3.04687 1.8125,-1.0625 6.03125,-1.29688 -0.0781,-0.54687 -0.375,-0.92187 -0.28125,-0.39063 -0.82813,-0.59375 -0.53125,-0.21875 -1.34375,-0.21875 -0.57812,0 -1.15625,0.14062 -0.5625,0.125 -1.1875,0.39063 -0.60937,0.25 -1.28125,0.57812 l -1.25,-2.29687 q 0.82813,-0.48438 1.71875,-0.84375 0.90625,-0.35938 1.875,-0.5625 0.96875,-0.20313 1.98438,-0.20313 1.67187,0 2.875,0.59375 1.20312,0.57813 1.84375,1.76563 0.65625,1.1875 0.65625,3.01562 v 6.8125 h -2.89063 l -0.25,-1.34375 h -0.10937 q -0.875,0.67188 -1.96875,1.15625 -1.07813,0.46875 -2.25,0.46875 z m 1.125,-2.73437 q 0.79687,0 1.48437,-0.3125 0.70313,-0.32813 1.32813,-0.8125 v -1.96875 q -1.75,0.0937 -2.73438,0.35937 -0.96875,0.26563 -1.35937,0.67188 -0.375,0.40625 -0.375,0.9375 0,0.35937 0.20312,0.625 0.20313,0.26562 0.57813,0.39062 0.375,0.10938 0.875,0.10938 z m 14.54059,7.51562 q -1.54688,0 -2.76563,-0.32812 -1.21875,-0.3125 -1.92187,-0.98438 -0.70313,-0.67187 -0.70313,-1.73437 0,-0.71875 0.46875,-1.32813 0.46875,-0.59375 1.375,-1.04687 v -0.0937 q -0.5,-0.34375 -0.85937,-0.8125 -0.34375,-0.48438 -0.34375,-1.23438 0,-0.59375 0.39062,-1.1875 0.40625,-0.60937 1.03125,-1.04687 v -0.0937 q -0.65625,-0.42188 -1.10937,-1.21875 -0.45313,-0.79688 -0.45313,-1.82813 0,-1.4375 0.70313,-2.39062 0.71875,-0.96875 1.875,-1.4375 1.17187,-0.48438 2.51562,-0.48438 1.09375,0 1.96875,0.28125 h 4.8125 v 2.59375 h -2.39062 q 0.21875,0.26563 0.375,0.6875 0.15625,0.42188 0.15625,0.875 0,1.35938 -0.67188,2.25 -0.65625,0.875 -1.76562,1.3125 -1.09375,0.42188 -2.48438,0.42188 -0.34375,0 -0.78125,-0.0625 -0.42187,-0.0625 -0.85937,-0.1875 -0.28125,0.20312 -0.40625,0.39062 -0.10938,0.1875 -0.10938,0.5 0,0.46875 0.48438,0.6875 0.48437,0.20313 1.53125,0.20313 h 2.20312 q 2.34375,0 3.57813,0.70312 1.25,0.6875 1.25,2.29688 0,1.25 -0.875,2.21875 -0.85938,0.96875 -2.45313,1.51562 -1.59375,0.5625 -3.76562,0.5625 z m 0.20312,-10.96875 q 0.5,0 0.90625,-0.21875 0.40625,-0.21875 0.64063,-0.65625 0.25,-0.4375 0.25,-1.09375 0,-0.625 -0.25,-1.04687 -0.23438,-0.4375 -0.64063,-0.65625 -0.40625,-0.23438 -0.90625,-0.23438 -0.48437,0 -0.89062,0.23438 -0.40625,0.21875 -0.65625,0.65625 -0.23438,0.42187 -0.23438,1.04687 0,0.65625 0.23438,1.09375 0.25,0.4375 0.65625,0.65625 0.40625,0.21875 0.89062,0.21875 z m 0.3125,8.73438 q 0.95313,0 1.67188,-0.1875 0.71875,-0.1875 1.125,-0.51563 0.42187,-0.32812 0.42187,-0.73437 0,-0.59375 -0.53125,-0.75 -0.53125,-0.15625 -1.5625,-0.15625 h -1.48437 q -0.65625,0 -1.07813,-0.0469 -0.42187,-0.0469 -0.75,-0.125 -0.45312,0.28125 -0.65625,0.5625 -0.1875,0.28125 -0.1875,0.60938 0,0.65625 0.8125,1 0.82813,0.34375 2.21875,0.34375 z m 15.16559,-2.54688 q -1.84375,0 -3.34375,-0.71875 -1.5,-0.73437 -2.39063,-2.14062 -0.875,-1.40625 -0.875,-3.375 0,-1.9375 0.89063,-3.34375 0.89062,-1.40625 2.29687,-2.14063 1.42188,-0.75 3.01563,-0.75 1.84375,0 3.09375,0.75 1.25,0.75 1.875,2.04688 0.64062,1.28125 0.64062,2.90625 0,0.48437 -0.0625,0.9375 -0.0469,0.4375 -0.10937,0.65625 h -9.01563 v -2.375 h 6.64063 l -0.54688,0.67187 q 0,-1.45312 -0.60937,-2.17187 -0.60938,-0.73438 -1.79688,-0.73438 -0.85937,0 -1.51562,0.39063 -0.64063,0.375 -1,1.17187 -0.35938,0.78125 -0.35938,1.98438 0,1.21875 0.42188,2 0.4375,0.78125 1.25,1.17187 0.82812,0.375 1.98437,0.375 0.8125,0 1.54688,-0.20312 0.73437,-0.21875 1.51562,-0.625 l 1.17188,2.125 q -1.03125,0.65625 -2.28125,1.03125 -1.23438,0.35937 -2.4375,0.35937 z m 8.21246,-0.28125 v -11.90625 h 2.875 l 0.26563,1.59375 h 0.0937 q 0.76562,-0.78125 1.76562,-1.32812 1,-0.54688 2.34375,-0.54688 2.01563,0 2.9375,1.29688 0.9375,1.29687 0.9375,3.54687 v 7.34375 h -3.51562 v -6.89062 q 0,-1.20313 -0.40625,-1.75 -0.39063,-0.54688 -1.34375,-0.54688 -0.73438,0 -1.28125,0.32813 -0.53125,0.3125 -1.15625,0.92187 v 7.9375 z m 15.25934,-6.95312 -0.9375,-1.875 q 1.34375,-0.60938 2.01562,-1.5 0.67188,-0.90625 0.67188,-2.15625 l -0.14063,-2.28125 1.42188,1.95312 q -0.34375,0.28125 -0.82813,0.5 -0.46875,0.21875 -0.92187,0.21875 -0.96875,0 -1.59375,-0.60937 -0.625,-0.60938 -0.625,-1.59375 0,-1.09375 0.65625,-1.76563 0.67187,-0.67187 1.65625,-0.67187 1.34375,0 2.0625,1.01562 0.73437,1 0.73437,2.82813 0,1.96875 -1.04687,3.46875 -1.03125,1.5 -3.125,2.46875 z m 6.375,0 -0.9375,-1.875 q 1.34375,-0.60938 2.01562,-1.5 0.67188,-0.90625 0.67188,-2.15625 l -0.14063,-2.28125 1.42188,1.95312 q -0.34375,0.28125 -0.82813,0.5 -0.46875,0.21875 -0.92187,0.21875 -0.96875,0 -1.59375,-0.60937 -0.625,-0.60938 -0.625,-1.59375 0,-1.09375 0.65625,-1.76563 0.67187,-0.67187 1.65625,-0.67187 1.34375,0 2.0625,1.01562 0.73437,1 0.73437,2.82813 0,1.96875 -1.04687,3.46875 -1.03125,1.5 -3.125,2.46875 z"
     fill-rule="nonzero"
     id="path27"
     clip-path="url(#clipPath30)"
     transform="translate(-43.021286,-168.12235)" />
  <path
     fill="#e91d63"
     d="m 764.0976,352.09106 7.875,-20.89062 h 1.78125 l -7.875,20.89062 z m 14.58746,-5 v -1.89062 l 7.23438,-4.875 v -0.0937 l -7.23438,-4.875 v -1.89063 l 8.95313,6.0625 v 1.5 z"
     fill-rule="nonzero"
     id="path28"
     clip-path="url(#clipPath29)"
     transform="translate(-43.021286,-168.12235)" />
</svg>
